# 3ds Max Wavefront OBJ Exporter v0.99 - (c)2007 guruware
# File Created: 30.05.2025 04:55:53

#
# object Pedestal
#

v  0.6413 3.6887 -0.4660
v  0.7927 3.6887 -0.0000
v  0.8560 0.6000 -0.2782
v  0.4659 3.6887 0.6412
v  0.0000 3.6887 0.7926
v  0.2781 0.6000 0.8559
v  -0.6413 3.6887 -0.4660
v  -0.5290 0.6000 -0.7282
v  -0.8560 0.6000 -0.2782
v  -0.2781 0.6000 0.8559
v  -0.6413 3.6887 0.4659
v  -0.7927 3.6887 -0.0000
v  -0.7281 0.6000 0.5290
v  0.9718 4.2314 -0.7061
v  0.6541 4.2137 -0.9004
v  -0.9718 4.2314 0.7061
v  -1.2418 0.0128 -0.9023
v  -0.9023 0.0128 -1.2419
v  1.5350 0.0128 -0.0000
v  0.5290 0.6000 -0.7282
v  -0.4659 3.6887 -0.6413
v  -0.3689 4.2137 -1.1355
v  -0.7017 4.2137 -0.9659
v  -1.2418 0.0128 0.9022
v  -1.4599 0.0128 0.4743
v  0.2781 0.6000 -0.8560
v  -0.2781 0.6000 -0.8560
v  0.0000 3.6887 -0.7927
v  0.4743 0.0128 -1.4599
v  0.9023 0.0128 -1.2419
v  0.6445 3.9887 -0.8870
v  1.3000 4.0015 -0.4224
v  1.0006 3.6887 -0.3252
v  0.9659 4.2137 0.7017
v  1.1425 4.2314 0.3712
v  -0.9003 4.2137 -0.6542
v  -1.1354 4.2137 -0.3690
v  -1.0834 3.7015 -0.0000
v  -0.8765 3.7015 0.6368
v  -1.1059 4.0015 0.8034
v  0.4743 0.0128 1.4598
v  0.0000 0.0128 1.5350
v  0.7281 0.6000 0.5290
v  0.8560 0.6000 0.2781
v  0.6413 3.6887 0.4659
v  1.3669 4.0015 -0.0000
v  1.1059 4.0015 0.8034
v  1.0006 3.6887 0.3251
v  0.6368 3.7015 0.8765
v  0.4224 4.0015 1.3000
v  0.0000 4.0015 1.3669
v  -0.3348 3.7015 1.0304
v  -0.8111 4.0325 1.1163
v  0.0000 3.7015 1.0834
v  0.8035 4.2259 -1.1059
v  1.1164 4.1950 -0.8111
v  -0.3388 3.7325 -1.0428
v  -0.4224 4.0015 -1.3001
v  0.0000 3.9887 -1.3356
v  -1.4301 0.3500 0.4646
v  -1.2418 0.3372 0.9022
v  -0.9552 0.5872 0.6939
v  0.0000 0.3372 1.5350
v  0.0000 0.5872 1.1806
v  -0.3648 0.5872 1.1228
v  -1.2702 3.9887 -0.4128
v  -1.1059 4.0015 -0.8035
v  -0.8765 3.7015 -0.6369
v  -0.6940 0.5872 -0.9552
v  -0.9023 0.3372 -1.2419
v  -1.2418 0.3372 -0.9023
v  -0.3688 0.3500 -1.1352
v  -0.3648 0.5872 -1.1229
v  0.3688 0.5563 -1.1352
v  1.4599 0.3372 -0.4744
v  1.1229 0.5872 -0.3649
v  1.1806 0.5872 -0.0000
v  0.6756 0.6000 0.9298
v  0.9023 0.3372 1.2418
v  1.2523 0.3063 0.9098
v  -1.1229 0.5872 0.3648
v  -0.9552 0.5872 -0.6940
v  0.3648 0.5872 1.1228
v  0.4743 0.3372 1.4598
v  1.4599 0.0128 -0.4744
v  1.2165 0.0000 -0.8839
v  1.2418 0.3372 -0.9023
v  0.4743 0.3372 -1.4599
v  -1.0584 4.2137 0.3439
v  -1.3124 4.0325 0.4264
v  -1.3669 4.0015 -0.0000
v  0.0000 4.2137 1.1128
v  0.3689 4.2137 1.1354
v  -0.4127 3.9887 1.2702
v  1.1129 4.2137 -0.0000
v  1.1354 4.2137 -0.3690
v  0.0000 3.7015 -1.0835
v  0.4224 4.0015 -1.3001
v  0.3439 4.2137 -1.0584
v  0.0000 4.2314 -1.1055
v  0.4659 3.6887 -0.6413
v  0.6541 4.2137 0.9003
v  0.8870 3.7325 0.6444
v  0.8035 4.0015 1.1058
v  -0.9023 0.3372 1.2418
v  -0.4743 0.3372 1.4598
v  -0.4743 0.0128 1.4598
v  -0.9023 0.0128 1.2418
v  -1.1229 0.5872 -0.3649
v  -1.4722 0.3063 -0.4784
v  -1.5350 0.3372 -0.0000
v  -1.5350 0.0128 -0.0000
v  -1.4301 0.0000 -0.4647
v  1.2418 0.0128 0.9022
v  0.9099 0.0437 1.2523
v  1.1229 0.5872 0.3648
v  1.4599 0.3372 0.4743
v  1.5350 0.3372 -0.0000
v  -0.4659 3.6887 0.6412
v  0.8838 0.3500 -1.2165
v  0.6940 0.5872 -0.9552
v  -0.7016 0.5563 0.9656
v  0.9552 0.5872 0.6939
v  -0.4784 0.0437 -1.4723
v  0.0000 0.0128 -1.5350
v  -0.4784 0.3063 -1.4723
v  -1.1129 4.2137 -0.0000
v  -0.7850 3.9887 -1.0806
v  -1.1936 0.5563 -0.0000
v  -0.3439 4.2137 1.0584
v  -0.7061 4.2314 0.9718
v  1.3124 4.0325 0.4264
v  0.6368 3.7015 -0.8766
v  1.4722 0.0437 0.4783
v  0.0000 0.3372 -1.5350
v  0.9657 0.5563 -0.7016
# 136 vertices

vn 0.8905 0.0343 -0.4537
vn 0.4537 0.0343 0.8905
vn -0.8905 0.0343 -0.4537
vn -0.1563 0.0343 0.9871
vn -0.8905 0.0343 0.4537
vn 0.0128 0.9999 -0.0093
vn 0.0093 0.9999 -0.0128
vn -0.0128 0.9999 0.0093
vn -0.0161 -0.9998 -0.0117
vn -0.0117 -0.9998 -0.0161
vn 0.0199 -0.9998 -0.0000
vn -0.7067 0.0343 -0.7067
vn -0.0049 0.9999 -0.0151
vn -0.0093 0.9999 -0.0128
vn -0.0161 -0.9998 0.0117
vn -0.0189 -0.9998 0.0061
vn -0.9871 0.0343 0.1563
vn 0.1563 0.0343 -0.9871
vn 0.0061 -0.9998 -0.0189
vn 0.0117 -0.9998 -0.0161
vn 0.8090 0.0000 -0.5878
vn 0.9511 0.0000 -0.3090
vn 0.9502 -0.0433 -0.3087
vn 0.0128 0.9999 0.0093
vn 0.0151 0.9999 0.0049
vn -0.0128 0.9999 -0.0093
vn -0.0151 0.9999 -0.0049
vn -0.9991 -0.0433 -0.0000
vn -0.9502 -0.0433 0.3087
vn -0.9511 0.0000 0.3090
vn 0.0061 -0.9998 0.0189
vn 0.0000 -0.9998 0.0199
vn 0.8905 0.0343 0.4537
vn 1.0000 0.0000 0.0000
vn 0.9511 0.0000 0.3090
vn 0.9502 -0.0433 0.3087
vn 0.3087 -0.0433 0.9502
vn 0.3090 0.0000 0.9511
vn 0.0000 0.0000 1.0000
vn -0.5872 -0.0433 0.8083
vn -0.5878 0.0000 0.8090
vn -0.8090 0.0000 0.5878
vn 0.0000 -0.0433 0.9991
vn -0.0000 -1.0000 0.0000
vn 0.0360 -0.9981 -0.0496
vn 0.0496 -0.9981 -0.0360
vn -0.3087 -0.0433 -0.9502
vn -0.3090 0.0000 -0.9511
vn 0.0000 0.0000 -1.0000
vn -0.0472 0.9988 0.0153
vn -0.0401 0.9988 0.0291
vn 0.0000 1.0000 -0.0000
vn 0.0000 0.9988 0.0496
vn -0.9502 -0.0433 -0.3087
vn -0.9511 0.0000 -0.3090
vn -0.8090 0.0000 -0.5878
vn -0.5872 -0.0433 -0.8083
vn -0.0291 0.9988 -0.0401
vn -0.0401 0.9988 -0.0291
vn 0.0000 0.0525 -0.9986
vn 0.3086 0.0525 -0.9497
vn 0.0472 0.9988 -0.0153
vn 0.0291 0.9988 0.0401
vn 0.0401 0.9988 0.0291
vn 0.0153 0.9988 0.0472
vn 0.9502 -0.0425 -0.3087
vn 0.8083 -0.0425 -0.5873
vn 0.8083 0.0425 -0.5873
vn 0.0153 0.9988 -0.0472
vn 0.0417 0.9990 -0.0135
vn -0.0993 0.9945 0.0323
vn 0.0355 0.9990 -0.0258
vn -1.0000 0.0000 -0.0000
vn 0.0000 0.9999 0.0158
vn 0.0049 0.9999 0.0151
vn -0.3087 -0.0433 0.9502
vn -0.3090 0.0000 0.9511
vn 0.0158 0.9999 -0.0000
vn 0.0151 0.9999 -0.0049
vn 0.0000 -0.0433 -0.9991
vn 0.3090 0.0000 -0.9511
vn 0.0049 0.9999 -0.0151
vn 0.0000 0.9999 -0.0158
vn 0.3087 -0.0433 -0.9502
vn 0.5878 0.0000 -0.8090
vn 0.0093 0.9999 0.0128
vn 0.8083 -0.0433 0.5872
vn 0.8090 0.0000 0.5878
vn 0.5878 0.0000 0.8090
vn 0.5872 -0.0433 0.8083
vn 0.9871 0.0343 0.1563
vn -0.0291 0.9988 0.0401
vn -0.0153 0.9988 0.0472
vn -0.0061 -0.9998 0.0189
vn -0.0117 -0.9998 0.0161
vn -0.0472 0.9988 -0.0153
vn -0.0496 0.9988 -0.0000
vn -0.0199 -0.9998 -0.0000
vn -0.0189 -0.9998 -0.0061
vn 0.0161 -0.9998 0.0117
vn 0.0117 -0.9998 0.0161
vn 0.0472 0.9988 0.0153
vn 0.0496 0.9988 -0.0000
vn -0.8083 -0.0433 0.5872
vn 0.0401 0.9988 -0.0291
vn 0.0291 0.9988 -0.0401
vn 0.0574 0.9982 -0.0186
vn -0.7067 0.0343 0.7067
vn -0.8083 -0.0433 -0.5872
vn -0.9871 0.0343 -0.1563
vn 0.0488 0.9982 0.0355
vn 0.0574 0.9982 0.0186
vn -0.0061 -0.9998 -0.0189
vn 0.0000 -0.9998 -0.0199
vn -0.0153 0.9988 -0.0472
vn -0.0158 0.9999 -0.0000
vn -0.1045 0.9945 -0.0000
vn 0.0438 0.9990 -0.0000
vn 0.0417 0.9990 0.0135
vn -0.5870 0.0525 -0.8079
vn -0.3086 0.0525 -0.9497
vn 0.0186 0.9982 -0.0574
vn -0.0186 0.9982 -0.0574
vn 0.0355 0.9990 0.0258
vn -0.0845 0.9945 -0.0614
vn -0.5866 -0.0645 -0.8073
vn -0.5866 0.0645 -0.8073
vn -0.3084 0.0645 -0.9491
vn -0.0574 0.9982 0.0186
vn 0.9991 -0.0433 0.0000
vn 0.0000 -1.0000 -0.0000
vn 0.0563 -0.9982 0.0183
vn -0.0323 0.9945 0.0993
vn 0.0135 0.9990 -0.0417
vn 0.0258 0.9990 -0.0355
vn -0.0135 0.9990 -0.0417
vn 0.0000 0.9990 -0.0438
vn 0.0000 0.9945 0.1045
vn 0.9491 0.0645 -0.3084
vn 0.9979 0.0645 0.0000
vn 0.9979 -0.0645 0.0000
vn -0.0355 0.9990 -0.0258
vn 0.0993 0.9945 0.0323
vn -0.0417 0.9990 -0.0135
vn 0.0603 0.9982 -0.0000
vn -0.0135 0.9990 0.0417
vn 0.0323 0.9945 -0.0993
vn 0.0000 0.9945 -0.1045
vn 0.0614 0.9945 -0.0845
vn -0.0258 0.9990 0.0355
vn -0.0355 0.9990 0.0258
vn -0.0186 0.9982 0.0574
vn 0.0000 0.9982 0.0603
vn 0.0186 0.9982 0.0574
vn 0.0355 0.9982 0.0488
vn 0.0583 -0.9981 -0.0189
vn 0.0000 -0.9982 -0.0592
vn -0.0479 -0.9982 -0.0348
vn -0.0183 -0.9982 -0.0563
vn 0.0000 0.9990 0.0438
vn -0.3084 -0.0645 -0.9491
vn 0.0000 -0.0645 -0.9979
vn 0.0479 -0.9982 0.0348
vn 0.0348 -0.9982 0.0479
vn 0.0000 -1.0000 0.0000
vn 0.0000 -0.9982 0.0592
vn 0.4537 0.0343 -0.8905
vn -0.4537 0.0343 -0.8905
vn -0.0479 -0.9982 0.0348
vn -0.0183 -0.9982 0.0563
vn -0.5878 0.0000 -0.8090
vn -0.8073 -0.0645 -0.5866
vn -0.0093 0.9999 0.0128
vn -0.0049 0.9999 0.0151
vn -0.8073 0.0645 0.5866
vn -0.8073 -0.0645 0.5866
vn -0.5866 -0.0645 0.8073
vn -0.0000 -1.0000 -0.0000
vn 0.0348 -0.9982 -0.0479
vn 0.0563 -0.9982 -0.0183
vn 0.5873 0.0425 -0.8083
vn 0.5873 -0.0425 -0.8083
vn 0.3087 -0.0425 -0.9502
vn -0.9502 0.0425 0.3087
vn -0.9502 -0.0425 0.3087
vn -0.8083 -0.0425 0.5873
vn -0.9502 -0.0425 -0.3087
vn -0.9991 -0.0425 -0.0000
vn -0.9991 0.0425 -0.0000
vn -0.0488 0.9982 0.0355
vn -0.3087 0.0425 0.9502
vn -0.5873 0.0425 0.8083
vn -0.5873 -0.0425 0.8083
vn -0.8083 0.0425 0.5873
vn 0.9502 0.0425 -0.3087
vn 0.9502 -0.0425 0.3087
vn 0.9991 -0.0425 0.0000
vn 0.9991 0.0425 0.0000
vn -0.3087 -0.0425 0.9502
vn 0.3087 0.0425 0.9502
vn 0.0000 0.0425 0.9991
vn 0.0000 -0.0425 0.9991
vn -0.0574 0.9982 -0.0186
vn -0.0603 0.9982 -0.0000
vn 0.0000 -0.0425 -0.9991
vn 0.0000 0.0425 -0.9991
vn 0.3087 0.0425 -0.9502
vn -0.3087 -0.0425 -0.9502
vn 0.0189 -0.9998 0.0061
vn 0.0189 -0.9981 -0.0583
vn -0.0592 -0.9982 -0.0000
vn -0.0438 0.9990 -0.0000
vn -0.0258 0.9990 -0.0355
vn 0.0614 0.9945 0.0845
vn -0.1563 0.0343 -0.9871
vn 0.0258 0.9990 0.0355
vn -0.0496 -0.9981 0.0360
vn -0.0583 -0.9981 0.0189
vn -0.0613 -0.9981 -0.0000
vn -0.9491 -0.0645 0.3084
vn 0.0135 0.9990 0.0417
vn -0.0355 0.9982 0.0488
vn -0.0355 0.9982 -0.0488
vn -0.0488 0.9982 -0.0355
vn 0.8073 0.0645 0.5866
vn 0.8073 -0.0645 0.5866
vn 0.9491 -0.0645 0.3084
vn 0.5866 -0.0645 0.8073
vn 0.0613 -0.9981 -0.0000
vn 0.0583 -0.9981 0.0189
vn 0.0496 -0.9981 0.0360
vn 0.0355 0.9982 -0.0488
vn 0.0488 0.9982 -0.0355
vn -0.0151 0.9999 0.0049
vn -0.5866 0.0645 0.8073
vn -0.3084 -0.0645 0.9491
vn 0.8083 -0.0433 -0.5872
vn 0.5872 -0.0433 -0.8083
vn -0.9491 -0.0645 -0.3084
vn -0.9491 0.0645 -0.3084
vn -0.9979 -0.0645 -0.0000
vn 0.3084 -0.0645 0.9491
vn 0.3084 0.0645 0.9491
vn 0.0000 -0.0645 0.9979
vn 0.9491 -0.0645 -0.3084
vn 0.8073 0.0645 -0.5866
vn -0.0417 0.9990 0.0135
vn 0.0845 0.9945 -0.0614
vn -0.5873 -0.0425 -0.8083
vn -0.8083 -0.0425 -0.5873
vn -0.8083 0.0425 -0.5873
vn -0.9502 0.0425 -0.3087
vn 0.3087 -0.0425 0.9502
vn 0.5873 -0.0425 0.8083
vn 0.7067 0.0343 -0.7067
vn 0.7067 0.0343 0.7067
vn -0.5873 0.0425 -0.8083
vn -0.3087 0.0425 -0.9502
vn 0.0000 0.9988 -0.0496
vn 0.0161 -0.9998 -0.0117
vn 0.0189 -0.9998 -0.0061
vn 0.8083 0.0425 0.5873
vn 0.8083 -0.0425 0.5873
vn 0.5873 0.0425 0.8083
vn 0.9502 0.0425 0.3087
# 265 vertex normals

o Pedestal
g Pedestal
s off
f 1//1 2//1 3//1 
f 4//2 5//2 6//2 
f 7//3 8//3 9//3 
f 10//4 6//4 5//4 
f 11//5 12//5 13//5 
s 12
f 14//6 15//7 16//8 
s 4
f 17//9 18//10 19//11 
s off
f 3//1 20//1 1//1 
f 8//12 7//12 21//12 
s 12
f 22//13 23//14 16//8 
s 4
f 24//15 25//16 19//11 
s off
f 9//17 13//17 12//17 
f 26//18 27//18 28//18 
s 4
f 29//19 30//20 19//11 
s 6
f 31//21 32//22 33//23 
s 12
f 34//24 35//25 16//8 
f 36//26 37//27 16//8 
s 6
f 38//28 39//29 40//30 
s 4
f 41//31 42//32 19//11 
s off
f 43//33 44//33 45//33 
s 6
f 46//34 47//35 48//36 
f 49//37 50//38 51//39 
f 52//40 53//41 40//42 
f 51//39 54//43 49//37 
s 7
f 31//44 55//45 56//46 
s 6
f 57//47 58//48 59//49 
s 10
f 60//50 61//51 62//52 
f 63//53 64//52 65//52 
s 6
f 38//54 66//55 67//56 
f 58//48 57//47 68//57 
s 10
f 69//52 70//58 71//59 
s 9
f 72//49 73//60 74//61 
s 10
f 75//62 76//52 77//52 
f 78//52 79//63 80//64 
f 62//52 81//52 60//50 
f 71//59 82//52 69//52 
f 79//63 78//52 83//52 
f 64//52 63//53 84//65 
s 3
f 85//66 86//67 87//68 
s 10
f 72//52 74//52 88//69 
s 1
f 89//70 90//71 16//72 
s 6
f 38//28 91//73 66//55 
s 12
f 92//74 93//75 16//8 
s 6
f 52//76 94//77 53//41 
f 33//23 32//22 46//34 
s 12
f 95//78 96//79 16//8 
s 6
f 97//80 59//49 98//81 
s 12
f 99//82 100//83 16//8 
s 6
f 97//84 98//81 31//85 
s off
f 28//18 101//18 26//18 
s 12
f 102//86 34//24 16//8 
s 6
f 103//87 47//88 104//89 
f 104//89 49//90 103//87 
s off
f 2//91 45//91 44//91 
s 10
f 105//92 106//93 65//52 
s 4
f 107//94 108//95 19//11 
s 10
f 109//52 110//96 111//97 
s 4
f 112//98 113//99 19//11 
f 114//100 115//101 19//11 
s 10
f 116//52 117//102 118//103 
s off
f 5//4 119//4 10//4 
s 6
f 40//42 39//104 52//40 
s 10
f 87//105 120//106 121//52 
s 8
f 20//52 3//52 76//107 
s 10
f 65//52 122//52 105//92 
s off
f 13//108 10//108 119//108 
s 6
f 67//56 68//109 38//54 
s off
f 12//110 7//110 9//110 
s 8
f 43//52 123//111 116//112 
s 10
f 117//102 116//52 123//52 
s 4
f 124//113 125//114 19//11 
s 10
f 69//52 72//52 126//115 
s 12
f 37//27 127//116 16//8 
s 1
f 91//117 127//118 37//119 
s 9
f 69//120 73//121 72//48 
s 8
f 74//122 73//123 27//52 
s 1
f 37//119 36//124 67//125 
s 2
f 128//126 23//127 22//128 
s 8
f 81//129 13//52 9//52 
s 10
f 111//97 129//52 109//52 
s 6
f 46//34 48//130 33//23 
s 5
f 45//131 2//131 48//132 
s 1
f 94//133 130//134 131//135 
f 93//136 92//137 51//138 
s 2
f 96//139 95//140 46//141 
s 1
f 34//142 132//143 35//144 
s 8
f 3//52 77//145 76//107 
s off
f 44//91 3//91 2//91 
s 1
f 99//146 98//147 59//148 
f 55//149 15//150 14//151 
s 8
f 65//152 64//153 6//52 
f 83//154 78//155 43//52 
s 12
f 93//75 102//86 16//8 
s 6
f 49//90 104//89 50//38 
s 12
f 96//79 14//6 16//8 
s 7
f 31//44 56//46 32//156 
s 5
f 101//131 28//131 97//157 
f 68//158 57//159 21//131 
s 1
f 59//148 100//160 99//146 
s 2
f 58//161 22//128 59//162 
s 5
f 103//163 49//164 4//131 
f 5//165 4//131 49//164 
f 49//164 54//166 5//165 
f 119//131 5//165 54//166 
s off
f 20//167 26//167 101//167 
s 10
f 74//52 121//52 120//106 
s 8
f 8//52 27//52 73//123 
s off
f 21//168 27//168 8//168 
s 5
f 39//169 12//131 11//131 
f 119//131 52//170 39//169 
s 6
f 40//30 91//73 38//28 
s 1
f 127//118 91//117 90//71 
s 6
f 68//109 67//56 128//171 
s 2
f 23//127 128//126 67//172 
s 12
f 131//173 130//174 16//8 
s 2
f 16//175 40//176 53//177 
s 5
f 1//178 133//179 33//180 
f 97//157 133//179 101//131 
s 3
f 120//181 30//182 29//183 
f 30//182 120//181 87//68 
f 60//184 25//185 24//186 
f 113//187 112//188 111//189 
s 8
f 10//52 13//52 62//190 
f 81//129 62//190 13//52 
s 3
f 106//191 105//192 108//193 
f 24//186 61//194 60//184 
f 87//68 75//195 85//66 
f 134//196 19//197 118//198 
f 108//193 107//199 106//191 
f 84//200 63//201 42//202 
s 8
f 9//52 109//203 129//204 
f 109//203 9//52 8//52 
s 3
f 125//205 135//206 88//207 
f 135//206 125//205 124//208 
s 4
f 115//101 41//31 19//11 
s 10
f 83//52 84//65 79//63 
s 4
f 18//10 124//113 19//11 
s 10
f 126//115 70//58 69//52 
s 8
f 43//52 6//52 83//154 
s off
f 6//2 43//2 4//2 
s 10
f 82//52 71//59 110//96 
s 4
f 113//99 17//9 19//11 
f 134//209 114//100 19//11 
s 10
f 123//52 80//64 117//102 
s 1
f 130//134 94//133 51//138 
s 6
f 54//43 51//39 94//77 
s 10
f 121//52 136//52 87//105 
f 75//62 87//105 136//52 
s 7
f 98//210 55//45 31//44 
s 1
f 15//150 55//149 98//147 
s 5
f 7//131 12//131 38//211 
f 12//131 39//169 38//211 
f 38//211 68//158 7//131 
f 21//131 7//131 68//158 
s 1
f 35//144 132//143 95//212 
s 12
f 35//25 95//78 16//8 
s 8
f 77//145 3//52 44//52 
s 10
f 118//103 77//52 116//52 
s 1
f 102//213 104//214 34//142 
f 104//214 102//213 93//136 
s 5
f 28//131 21//131 57//159 
s off
f 27//215 21//215 28//215 
s 1
f 67//125 36//124 23//216 
s 12
f 23//14 36//26 16//8 
s 7
f 40//217 90//218 91//219 
s 2
f 40//176 16//175 90//220 
s 12
f 100//83 22//13 16//8 
s 1
f 100//160 59//148 22//221 
s 8
f 122//222 65//152 10//52 
f 6//52 10//52 65//152 
f 69//223 82//224 8//52 
f 73//123 69//223 8//52 
s 2
f 34//225 47//226 132//227 
f 47//226 34//225 104//228 
s 7
f 46//229 132//230 47//231 
s 2
f 46//141 95//140 132//227 
s 8
f 26//52 20//52 121//232 
f 136//233 121//232 20//52 
s 5
f 33//180 48//132 2//131 
f 33//180 2//131 1//178 
s 1
f 90//71 89//70 127//118 
s 12
f 127//116 89//234 16//8 
f 15//7 99//82 16//8 
s 1
f 98//147 99//146 15//150 
s 12
f 130//174 92//74 16//8 
s 1
f 51//138 92//137 130//134 
s 2
f 53//177 131//235 16//175 
f 131//235 53//177 94//236 
s 6
f 33//23 133//237 31//21 
f 31//85 133//238 97//84 
s 2
f 66//239 37//240 67//172 
f 37//240 66//239 91//241 
f 50//242 93//243 51//244 
f 93//243 50//242 104//228 
f 46//141 32//245 96//139 
f 56//246 96//139 32//245 
s 6
f 68//57 128//171 58//48 
s 2
f 22//128 58//161 128//126 
s 8
f 78//155 123//111 43//52 
s 10
f 80//64 123//52 78//52 
f 84//65 83//52 64//52 
s 8
f 64//153 83//154 6//52 
s 10
f 122//52 62//52 61//51 
s 8
f 62//190 122//222 10//52 
s 1
f 96//247 56//248 14//151 
f 14//151 56//248 55//149 
s 8
f 76//107 136//233 20//52 
s 10
f 136//52 76//52 75//62 
s 8
f 9//52 129//204 81//129 
s 10
f 60//50 81//52 129//52 
f 110//96 109//52 82//52 
s 8
f 8//52 82//224 109//203 
s 3
f 25//185 60//184 111//189 
s 10
f 129//52 111//97 60//50 
s 5
f 57//159 97//157 28//131 
s 6
f 59//49 97//80 57//47 
s 3
f 85//66 75//195 118//198 
s 10
f 77//52 118//103 75//62 
s 8
f 27//52 26//52 74//122 
f 121//232 74//122 26//52 
s 5
f 48//132 103//163 45//131 
s 6
f 47//88 103//87 48//36 
f 94//77 52//76 54//43 
s 5
f 54//166 52//170 119//131 
s 3
f 29//183 88//207 120//181 
s 10
f 120//106 88//69 74//52 
s 3
f 105//192 61//194 24//186 
s 10
f 61//51 105//92 122//52 
s 8
f 44//52 116//112 77//145 
f 116//112 44//52 43//52 
s 3
f 63//201 106//191 107//199 
s 10
f 65//52 106//93 63//53 
s 3
f 18//249 17//250 71//251 
f 110//252 71//251 17//250 
f 84//200 41//253 115//254 
f 42//202 41//253 84//200 
s 5
f 39//169 11//131 119//131 
s off
f 119//108 11//108 13//108 
s 3
f 24//186 108//193 105//192 
s 4
f 108//95 24//15 19//11 
s off
f 101//255 1//255 20//255 
s 5
f 133//179 1//178 101//131 
f 4//131 45//131 103//163 
s off
f 45//256 4//256 43//256 
s 3
f 88//207 29//183 125//205 
s 4
f 125//114 29//19 19//11 
s 3
f 71//251 70//257 18//249 
f 18//249 70//257 126//258 
s 4
f 42//32 107//94 19//11 
s 3
f 107//199 42//202 63//201 
s 10
f 135//259 126//115 72//52 
f 88//69 135//259 72//52 
s 3
f 111//189 112//188 25//185 
s 4
f 25//16 112//98 19//11 
s 3
f 118//198 19//197 85//66 
s 4
f 86//260 85//261 19//11 
s 3
f 111//189 110//252 113//187 
f 17//250 113//187 110//252 
f 80//262 114//263 134//196 
f 114//263 80//262 79//264 
s 4
f 30//20 86//260 19//11 
s 3
f 87//68 86//67 30//182 
f 79//264 115//254 114//263 
f 115//254 79//264 84//200 
f 126//258 124//208 18//249 
f 124//208 126//258 135//206 
f 118//198 117//265 134//196 
f 134//196 117//265 80//262 
# 268 faces

