# 3ds Max Wavefront OBJ Exporter v0.99 - (c)2007 guruware
# File Created: 30.05.2025 04:53:05

#
# object heliosbust_helios
#

v  4.4513 0.0092 -4.5871
v  5.5201 0.7426 2.9370
v  3.0965 0.4896 4.4603
v  5.3799 12.8451 -4.7993
v  4.3504 10.3278 -4.4940
v  3.1904 11.7280 -5.6292
v  1.8029 18.6060 6.5066
v  -0.1256 16.8290 7.7239
v  2.7919 16.6804 7.3615
v  -7.0463 11.5089 -1.4716
v  -7.0665 14.1571 -0.7830
v  -6.1963 12.0420 -3.4755
v  7.7489 13.1487 -0.6042
v  6.6813 11.6603 -2.5025
v  6.6893 13.3201 -3.2236
v  3.8358 7.9079 3.4666
v  5.2300 11.9492 3.5304
v  4.9667 11.8620 5.0160
v  2.7396 6.9250 4.2526
v  1.0113 6.9462 6.8031
v  1.2265 6.2146 4.8069
v  -2.6459 16.6229 5.9918
v  -1.3809 18.8424 6.0048
v  1.8902 22.1632 -0.8615
v  -0.1161 22.4205 1.4373
v  2.4459 22.3402 2.7406
v  -4.1222 14.8371 -3.5154
v  -3.5314 18.3453 -2.5701
v  -1.8412 16.5039 -5.1596
v  -4.3240 7.1361 1.7758
v  -2.5991 5.9253 4.5539
v  -3.9875 8.1752 2.9200
v  -3.0888 8.0005 6.5537
v  -4.5289 9.3905 3.5576
v  -4.3088 5.1556 1.4261
v  -4.4034 6.4246 0.5976
v  -4.0847 2.8423 -0.1156
v  3.3910 3.6150 -6.0931
v  1.4750 4.4560 -6.1293
v  3.3990 4.8463 -5.2616
v  3.5414 1.8205 4.2090
v  5.5920 1.7373 3.4354
v  4.6926 2.6484 3.1369
v  2.3474 8.7230 -5.3655
v  4.6356 9.0359 -4.3926
v  4.7887 7.4388 -4.9984
v  7.1334 16.8207 -2.2371
v  7.0307 18.5281 -0.5450
v  7.8047 16.0646 0.6889
v  3.0150 15.8565 7.6837
v  5.0286 16.0592 5.7566
v  4.0943 10.8324 6.1209
v  1.5615 7.9631 7.2847
v  -1.3529 14.6696 7.0302
v  -2.3003 14.9431 6.6139
v  -1.7253 13.2362 7.4014
v  -1.7153 19.7217 -3.6584
v  -2.9611 20.4291 -0.3484
v  -5.6550 17.0385 2.5523
v  -5.6208 16.4478 3.3707
v  -5.1368 18.6680 3.0677
v  7.4525 11.0368 2.5234
v  5.6142 11.6057 2.8444
v  6.2126 10.7555 2.2647
v  7.2171 6.5146 0.2498
v  8.3399 8.3499 1.5559
v  7.9888 7.2030 1.2353
v  -6.9753 10.2675 -2.1241
v  -4.1044 5.6464 -5.3847
v  -4.0487 3.9725 -5.3233
v  -4.7541 5.2634 -4.0416
v  -6.5075 14.7810 1.8941
v  -5.1535 14.5492 2.5539
v  -5.7255 15.2510 3.7227
v  -4.6979 10.1853 4.3183
v  -3.1152 11.2044 7.1707
v  -4.3284 13.4337 4.8585
v  7.4893 17.9641 2.4317
v  6.6971 19.2642 3.3310
v  7.6224 16.7560 4.0900
v  8.9939 12.7174 2.7139
v  7.7041 12.5038 3.5741
v  8.2575 11.9356 2.8394
v  0.8270 10.4575 -5.4963
v  2.3544 12.8821 -6.2393
v  2.9145 10.3991 -5.0950
v  -2.0725 5.2888 -6.7954
v  -2.9889 6.3602 -5.8592
v  -1.9892 8.0048 -6.4148
v  1.5142 3.1603 4.9487
v  2.4473 3.1131 4.7384
v  0.8994 5.0044 4.6904
v  -4.1146 1.7657 0.6064
v  4.1378 19.4691 5.9633
v  5.8582 17.5996 5.9441
v  5.1871 20.5910 3.7684
v  -0.5457 19.9188 6.0767
v  0.9542 19.6814 6.7462
v  0.1730 21.1415 6.9074
v  6.3336 1.1531 -2.8602
v  6.5298 5.5680 -3.0390
v  6.5690 7.2866 -3.1533
v  7.2377 6.2881 -1.8249
v  -0.2288 12.6277 8.7557
v  1.1219 10.8050 7.9276
v  0.9345 11.5977 8.0026
v  1.1071 16.4866 7.9053
v  2.1678 15.5410 7.9507
v  6.2904 19.2761 -1.9988
v  -3.8916 20.3192 1.2044
v  -5.4245 19.0807 1.4700
v  -4.8781 18.9188 2.5483
v  -2.4219 22.0046 4.2124
v  -2.7795 21.5360 5.4805
v  -1.0962 23.1033 4.6248
v  -3.8560 0.4278 -0.0653
v  -3.6299 0.6160 -3.3788
v  2.4975 0.0092 -5.2753
v  -5.2542 3.9880 -3.8993
v  6.8309 5.5672 2.1729
v  7.9264 6.0150 0.6266
v  5.0868 10.7165 3.2747
v  8.2429 9.7087 -1.5719
v  8.6995 9.9832 0.0134
v  8.6622 9.0656 -0.6756
v  8.0617 11.0389 -0.6623
v  8.9902 11.1960 -0.2226
v  -3.0023 12.1365 7.2149
v  -3.7616 13.5479 6.0901
v  0.0577 6.9242 7.5701
v  -0.8457 5.9011 5.2891
v  4.5367 21.5099 2.7396
v  2.2906 22.4804 4.1212
v  3.4742 20.9764 5.3860
v  0.0768 22.3838 2.7762
v  1.3038 22.6820 3.7941
v  -3.5850 13.0956 -4.3182
v  -5.4434 11.3937 -4.4646
v  -4.9475 9.2543 -5.0377
v  -5.9047 9.9364 -4.4619
v  4.8640 1.5095 -4.2155
v  6.0709 3.2775 -4.6246
v  6.4292 4.0685 -3.5352
v  6.3906 4.8525 -2.2506
v  7.7436 3.3111 -2.6845
v  -6.3091 6.6314 -2.3385
v  -3.9518 5.4529 -2.3336
v  -3.3951 6.5448 -1.8043
v  -6.0827 9.7935 -3.3455
v  -5.6585 8.7184 -3.2324
v  -1.3572 1.5517 -6.8320
v  -4.0306 2.5242 -5.0218
v  -0.2785 3.2106 -7.3174
v  8.7414 13.8040 3.9251
v  8.4225 13.4081 4.7362
v  4.8576 13.2662 5.7014
v  5.3067 12.8875 4.2344
v  5.0869 14.8768 5.2151
v  -6.0138 12.2326 0.3703
v  -6.3863 10.5603 -0.6197
v  -6.0612 10.7510 0.8050
v  -4.7091 12.3768 2.4655
v  -4.8905 12.6546 3.6502
v  -4.6979 13.4726 2.3120
v  3.9291 14.2716 -6.0473
v  1.1223 16.4587 -6.3271
v  1.5215 19.6706 -5.0156
v  3.1693 18.4618 -5.4549
v  -2.3822 0.3507 3.0455
v  -0.2035 2.8932 4.3480
v  -2.7227 4.2311 3.3587
v  -1.3502 1.1839 3.2464
v  2.9254 10.9082 7.1637
v  4.7420 14.5019 6.4234
v  -3.5387 17.5871 5.9779
v  -3.0181 20.9115 5.5202
v  -3.3172 21.4002 4.4819
v  -2.8724 19.7393 4.9038
v  6.6340 5.3078 0.5667
v  4.4715 9.0945 2.3533
v  4.0608 8.0556 3.1049
v  5.3070 4.5630 1.8935
v  -5.6328 17.9907 -0.1530
v  -6.2539 15.4943 0.1181
v  -6.8578 14.0322 0.6164
v  -6.2772 16.2199 1.4933
v  -0.3004 9.5098 8.2973
v  0.6717 9.3794 8.0413
v  -0.3323 10.5685 8.5420
v  1.3523 9.5393 7.6694
v  -4.9453 7.7153 -4.5186
v  -4.1741 8.3417 -5.7518
v  -3.5629 7.6491 -5.7570
v  -3.3038 9.0764 -5.6594
v  7.1308 10.8692 -1.7830
v  8.4232 12.4060 -0.0305
v  8.6998 13.8881 2.2981
v  9.2630 11.3082 2.6871
v  9.3478 12.2021 1.7872
v  -3.6513 16.1984 4.9140
v  -4.0940 16.8747 5.5335
v  -5.0445 15.3667 4.3319
v  -3.4058 14.4539 5.8804
v  8.5402 12.3860 1.3977
v  9.3977 10.8002 2.0279
v  9.3267 11.2467 0.7843
v  7.8166 9.0345 2.4911
v  6.8099 8.3523 2.5203
v  -1.3141 4.4768 4.3942
v  -3.1277 5.1387 3.3643
v  -4.8361 7.7257 -0.8729
v  -5.6260 10.0776 0.9796
v  -6.5509 7.9343 -1.2967
v  -1.2892 22.4991 3.2953
v  -4.5303 20.8497 2.2641
v  -1.1876 21.6243 -1.0340
v  3.2891 19.5687 -4.7482
v  1.7125 13.6862 7.1635
v  3.5583 13.7622 6.8115
v  2.7896 14.7358 7.1722
v  1.4882 14.5609 7.8014
v  1.6055 19.9820 7.0321
v  2.4870 19.8850 7.4246
v  2.5636 7.4543 -5.8365
v  -1.6707 6.9503 -6.7770
v  0.4782 6.2110 -6.6885
v  -0.6910 5.2842 -6.9062
v  -6.0449 5.2666 -2.8029
v  -4.2577 3.1453 -3.2775
v  -4.3536 1.4094 -0.7767
v  -3.8844 2.7951 -1.0568
v  -4.3549 1.0838 -2.1750
v  5.5424 9.9483 2.2847
v  6.6948 9.0752 2.2206
v  4.7755 8.8852 1.2031
v  6.3216 6.7145 1.2135
v  5.9932 7.8559 2.0527
v  7.3120 16.1707 3.6178
v  7.8117 15.2300 4.0058
v  8.9263 15.0671 3.5935
v  4.8155 16.8449 6.6535
v  -4.7998 10.3497 3.2708
v  -4.2456 10.4741 0.9487
v  -4.2644 9.2454 2.0439
v  -5.0509 11.5084 2.0299
v  -4.8550 11.0610 3.2861
v  6.6540 4.5137 -0.5936
v  8.8375 2.9729 -0.9897
v  5.6758 4.0501 1.3086
v  7.8239 2.7109 1.1999
v  -3.3494 4.6827 -5.9921
v  -3.3078 5.9492 -6.0486
v  -2.9868 2.8441 -6.2751
v  -1.6613 2.9946 -7.1975
v  5.9998 12.6563 4.1396
v  6.8849 11.0962 3.1524
v  7.3457 12.2457 4.1402
v  6.5541 14.5429 4.8818
v  6.9230 12.9084 4.1063
v  -5.8493 13.4065 1.7278
v  -5.0471 12.1454 0.7578
v  -5.5322 12.7715 1.1187
v  8.6096 13.1739 1.2060
v  8.4380 14.3198 1.1287
v  8.6214 16.0695 2.4402
v  0.4471 13.5749 8.7181
v  0.7753 14.8897 8.2573
v  -0.6660 14.7131 6.8153
v  -1.4857 16.1332 7.2966
v  -3.0876 9.5246 -5.4344
v  -2.1666 11.7556 -5.1426
v  -0.0212 9.1607 -5.7846
v  -4.3355 11.9778 -3.9320
v  -3.5144 10.9213 -5.1702
v  -3.7370 19.0743 4.7818
v  -3.9237 18.0566 5.4661
v  -2.5996 19.8859 6.4574
v  -4.2637 18.2593 4.6447
v  7.6622 9.0753 -1.7434
v  6.7587 9.3597 -3.0152
v  7.4006 9.8147 -2.2851
v  -6.9998 16.5142 -0.4036
v  -6.5420 17.5150 0.8403
v  -6.3260 17.0577 -1.3556
v  -6.1061 14.4022 -1.8020
v  -6.3901 13.6968 -2.7158
v  6.4337 7.7564 -3.4645
v  5.8386 5.9122 -3.5365
v  5.4436 5.8705 -4.4766
v  4.1541 4.9958 -4.8995
v  -6.1181 7.5423 -2.8554
v  -6.5321 8.5175 -1.9915
v  -5.5470 6.8616 -4.6781
v  -1.1227 0.0092 3.8417
v  0.2035 7.8187 8.4171
v  -0.4968 8.7678 8.5462
v  -1.0328 7.3318 8.1069
v  -3.9315 8.8537 5.5738
v  0.5828 1.5491 -6.0914
v  -1.5591 0.0092 -6.2026
v  -4.4771 15.0640 3.9752
v  -4.8639 13.7459 3.7343
v  -1.5266 20.2380 6.2624
v  -0.8184 21.0125 5.3378
v  -1.6977 22.1845 2.2621
v  -3.6019 20.8048 1.1729
v  -2.5874 21.2422 0.4169
v  7.6431 14.1780 4.8244
v  6.9780 15.6254 5.0479
v  -4.8977 9.9615 0.8162
v  1.1922 7.9680 -6.1216
v  7.2261 14.4433 -1.8976
v  1.7144 14.7176 -6.4882
v  4.0254 17.6107 -5.5602
v  5.3012 16.0848 -5.2066
v  7.9667 9.8339 3.0039
v  8.3408 10.8131 3.2718
v  5.1934 20.7160 -1.6074
v  5.4077 20.8831 2.1246
v  6.0881 20.1984 0.7154
v  6.0424 4.8540 1.6276
v  5.2310 5.8238 1.3902
v  2.8169 4.9748 4.4136
v  4.3281 5.8841 3.2080
v  3.9170 4.2465 3.8229
v  -3.3868 1.7492 2.5626
v  8.2239 8.3213 0.5220
v  8.8565 9.3909 2.0705
v  7.9874 9.3921 1.9084
v  -1.1581 12.5949 7.7805
v  -0.3928 11.3270 8.6122
v  -0.9555 10.4993 8.1906
v  -1.9194 11.5142 7.7763
v  -2.2521 9.9324 7.7130
v  -6.5587 10.7960 -3.2266
v  -5.4934 13.1449 -3.7638
v  -5.4496 15.2364 -1.6954
v  3.0283 12.5024 6.9501
v  -5.6573 18.3452 2.0619
v  7.7116 0.0092 0.5950
v  7.8280 0.8728 -0.5901
v  8.1894 1.7691 -2.5523
v  0.1429 22.6901 4.8635
v  -0.0535 21.5485 5.3116
v  1.4041 22.3035 5.7968
v  -1.3047 21.6748 5.6224
v  7.3008 5.3444 -0.3918
v  8.0366 7.0389 -0.7208
v  -3.7944 5.8166 -1.0642
v  -4.0739 7.3714 -0.8295
v  -4.3880 8.6235 0.8398
v  4.5603 18.5188 6.6795
v  3.4628 17.2570 6.5499
v  3.3971 18.8626 6.5465
v  -1.0372 21.3379 -2.0844
v  2.1931 21.2023 -3.2626
v  -0.3038 18.4252 -5.3141
v  0.4332 19.4789 -4.9939
v  -2.1787 7.8163 8.0172
v  -1.6113 6.4097 5.7503
v  -1.0416 10.7342 -5.6428
v  -0.1200 13.3389 -6.1473
v  0.1580 16.8672 -6.0874
v  -2.2222 6.4245 5.1638
v  -5.3154 17.1921 -1.0028
v  -4.8081 13.9767 -3.3678
v  -4.7409 3.4154 -4.9961
v  -4.5640 2.5645 -4.1546
v  -5.2873 4.3983 -3.5165
v  6.0570 16.8939 5.4669
v  5.6964 15.7453 5.1157
v  3.6944 21.6099 -1.4977
v  4.9937 19.5331 -3.6660
v  0.4655 8.8048 8.0918
v  8.0821 14.5867 1.6613
v  8.3032 15.7284 1.8719
v  6.8070 19.2713 1.8857
v  -4.6248 21.0123 3.3341
v  -3.4722 19.7152 4.6211
v  -0.6337 0.7536 4.5988
v  2.8259 0.8968 4.8335
v  0.6273 2.9125 4.8369
v  0.1926 1.0126 4.8688
v  4.8820 9.3513 1.6710
v  4.7704 9.6734 2.7537
v  -4.3736 7.3215 -5.2942
v  6.7969 1.7660 -3.7482
v  6.7176 1.9833 2.2649
v  7.7490 1.1014 0.4499
v  -5.6217 8.0822 -4.1125
v  -5.2591 9.0861 -3.9486
v  -2.1106 20.5106 5.4968
v  7.5741 9.9798 1.7575
v  -0.2314 13.8194 8.0798
v  0.0183 14.7822 7.1659
v  -4.2934 11.3357 1.2031
v  5.6629 10.6035 -3.7420
v  4.9580 4.9882 -4.2715
v  3.7586 6.3275 -5.4091
v  4.1398 14.3650 6.9755
v  3.9119 15.1362 7.2768
v  -6.4586 13.0832 -0.4002
v  -6.3406 14.5128 -0.3770
v  5.0356 6.7049 0.7228
v  5.4889 6.8767 -0.1112
v  4.7747 7.7458 1.1148
v  7.0059 6.6504 2.0510
v  2.1077 21.1266 6.8592
v  1.5445 21.4809 7.1684
v  1.2909 19.9134 7.3961
v  0.2786 15.7930 7.9245
v  -0.9250 16.2809 7.6034
v  -0.5349 15.2196 6.8751
v  6.1383 17.6750 -3.7733
v  6.8881 15.7364 -3.1805
v  1.7744 12.7793 7.5120
v  1.2879 12.1494 7.9324
v  -4.1266 1.9688 -3.8253
v  8.4996 14.7632 4.5289
v  -3.4819 21.7653 2.4701
v  -0.5169 4.1153 -6.4635
v  -3.5884 3.7735 -5.8378
v  -1.7674 4.4001 -6.4270
v  -2.3633 16.1006 6.9549
v  2.0619 6.8358 -6.1802
v  1.3061 5.1180 -6.3866
v  4.7031 6.7907 -4.9746
v  5.1711 7.8508 -4.3866
v  8.8272 12.2161 0.5594
v  -1.4647 9.4817 8.1020
v  -2.7556 8.8368 7.5789
v  -1.9604 8.8463 8.2691
v  4.3204 17.3211 6.9514
v  -6.5944 9.3842 0.2168
v  -6.8177 9.8691 -1.7513
v  -6.0357 17.3615 1.5855
v  -6.1185 18.2975 1.4730
v  -5.4458 6.2060 -3.5667
v  -6.0056 6.8507 -2.8012
v  -0.2676 7.8499 -6.4628
v  6.8635 16.4047 4.9343
v  -1.0621 5.0829 4.8570
v  0.0774 5.6168 4.9111
v  -3.2175 3.9216 -1.8577
v  -3.4761 2.9190 -2.4563
v  -5.3085 13.4080 1.5656
v  -3.9145 19.1712 -1.0519
v  9.2050 10.3788 0.5428
v  2.3036 1.5106 -5.3651
v  3.3549 2.1033 -5.8281
v  -4.5827 13.2110 4.2463
v  -6.7833 15.7250 -0.4348
v  -6.7914 14.5759 -1.7146
v  6.7596 5.4838 -1.5146
v  3.6447 20.8858 -3.1538
v  -4.2770 9.9174 -5.2159
v  -4.9500 17.0913 -1.8075
v  -4.1156 16.8731 -2.4993
v  -4.9616 17.4242 4.6867
v  -6.0181 16.2318 -1.3570
v  7.3895 14.9935 5.0628
v  7.3704 7.5442 1.6557
v  -0.5757 21.0610 6.1939
v  6.0806 5.9269 2.3356
v  -3.9686 5.0451 2.2671
v  3.4749 21.9257 1.9832
v  0.3991 10.3075 8.2039
v  7.1753 13.1648 3.6407
v  7.4826 12.5826 4.6940
v  2.0916 14.7527 7.2304
v  6.3567 8.9310 -3.4035
v  7.3319 6.9939 -1.9608
v  7.9132 8.2395 -1.4103
v  8.4640 8.0304 -0.5677
v  3.9576 13.1044 6.2449
v  3.9636 11.8988 6.5767
v  -6.4677 12.6461 1.1237
v  -5.0687 11.0351 0.7659
v  -3.3564 0.7378 2.4420
v  -1.9164 5.0305 4.6499
v  9.0808 14.7684 3.0171
v  -0.3240 18.7430 6.2394
v  -1.7116 20.6818 -2.5445
v  -3.0634 15.5432 5.9933
v  0.1855 21.0287 -3.3705
v  6.3293 15.1233 -4.2174
v  8.6484 2.2702 -2.4350
v  8.2873 3.3157 0.0058
v  5.6183 5.0262 -3.6096
v  -3.7214 0.3734 0.8280
v  -3.6319 2.9781 -5.8724
v  -6.5226 12.0149 -1.3351
v  -6.6874 10.3561 -1.1567
v  -4.2796 19.5785 0.5626
v  -4.4073 13.9569 1.6276
v  5.7718 4.7556 0.5856
v  -3.6214 17.9543 4.9089
v  7.7265 14.2735 -0.3514
v  1.5406 0.3667 5.1100
v  -3.3826 5.1581 -2.2684
v  9.2314 10.0029 2.9776
v  -3.7905 21.3851 3.5237
v  -3.9417 20.8536 2.8147
v  8.2119 9.7833 0.9839
v  -3.8546 0.0092 -2.8826
v  5.2541 11.7730 2.8677
# 506 vertices

vn 0.3710 -0.6708 -0.6421
vn 0.4018 -0.7201 0.5657
vn 0.3658 -0.7155 0.5951
vn 0.6175 -0.2849 -0.7331
vn 0.5721 -0.3556 -0.7391
vn 0.3682 -0.3710 -0.8525
vn 0.0878 0.5275 0.8450
vn -0.0368 0.5579 0.8291
vn 0.1769 0.6411 0.7468
vn -0.9448 0.1416 -0.2955
vn -0.9117 0.1070 -0.3966
vn -0.8368 0.1128 -0.5358
vn 0.8664 0.0677 -0.4946
vn 0.8493 0.0147 -0.5277
vn 0.9054 -0.1868 -0.3812
vn 0.8576 -0.4324 0.2785
vn 0.9422 -0.2591 0.2125
vn 0.9192 -0.1864 0.3469
vn 0.6171 -0.7019 0.3555
vn 0.4201 -0.8337 0.3583
vn 0.3633 -0.7940 0.4874
vn -0.6326 0.3602 0.6856
vn -0.2202 0.5714 0.7906
vn -0.4483 0.4174 0.7904
vn -0.0129 0.9989 -0.0450
vn -0.0609 0.9449 -0.3216
vn 0.2853 0.9473 -0.1456
vn -0.7466 0.1700 -0.6432
vn -0.7923 0.3901 -0.4691
vn -0.6661 0.3122 -0.6773
vn -0.8918 -0.0861 0.4441
vn -0.7983 -0.4021 0.4483
vn -0.9412 -0.2378 0.2398
vn -0.7638 -0.5778 0.2875
vn -0.9095 -0.4119 -0.0549
vn -0.9977 -0.0674 0.0025
vn -0.9913 -0.0338 -0.1272
vn -0.9062 0.0250 -0.4222
vn 0.3876 0.3583 -0.8493
vn 0.2288 0.5529 -0.8012
vn 0.3471 0.4939 -0.7972
vn 0.2969 0.5183 0.8020
vn 0.3991 0.4347 0.8073
vn 0.3455 0.6343 0.6916
vn 0.2876 0.0786 -0.9545
vn 0.3599 0.4307 -0.8276
vn 0.3351 0.2842 -0.8983
vn 0.9395 0.1543 -0.3058
vn 0.9122 0.3998 -0.0897
vn 0.9946 0.0661 -0.0801
vn 0.4403 0.5994 0.6684
vn 0.5290 0.4451 0.7225
vn 0.6910 0.3718 0.6198
vn 0.7760 -0.3168 0.5453
vn 0.6618 -0.3136 0.6809
vn -0.1801 0.2049 0.9621
vn -0.6034 0.1186 0.7885
vn -0.3951 0.3812 0.8358
vn -0.7183 0.5387 -0.4404
vn -0.6500 0.7098 -0.2714
vn -0.9632 0.2608 0.0645
vn -0.8883 0.0215 0.4587
vn -0.8899 0.3133 0.3314
vn -0.0627 -0.7153 0.6959
vn 0.1570 -0.3529 0.9224
vn 0.4606 -0.5519 0.6951
vn 0.6209 0.1403 -0.7712
vn 0.8798 -0.1832 -0.4386
vn 0.9512 -0.0765 -0.2987
vn -0.9470 0.0230 -0.3204
vn -0.9187 0.1189 -0.3765
vn -0.5773 -0.0338 -0.8158
vn -0.8715 0.0012 -0.4903
vn -0.8934 -0.3702 -0.2545
vn -0.4449 -0.4673 0.7640
vn -0.7515 -0.6342 0.1815
vn -0.9173 -0.2879 0.2751
vn -0.9650 -0.1690 0.2005
vn -0.8209 0.0332 0.5701
vn -0.9031 0.2257 0.3653
vn 0.8523 0.4481 0.2696
vn 0.7399 0.5564 0.3780
vn 0.7494 0.4789 0.4572
vn 0.2713 -0.4361 0.8580
vn 0.3039 -0.6237 0.7201
vn 0.1218 -0.2205 0.9677
vn -0.0432 -0.3509 -0.9354
vn 0.1384 -0.2059 -0.9687
vn 0.1933 -0.3587 -0.9132
vn -0.5542 -0.0131 -0.8323
vn -0.4904 -0.1293 -0.8618
vn -0.4415 -0.2293 -0.8675
vn 0.0218 0.1045 0.9943
vn 0.3603 0.0135 0.9327
vn 0.0494 0.1866 0.9812
vn -0.9931 0.0490 -0.1063
vn -0.9943 0.0053 0.1065
vn 0.6196 0.5320 0.5771
vn 0.5980 0.4718 0.6479
vn 0.6123 0.6527 0.4462
vn -0.0914 -0.2946 0.9512
vn -0.2991 -0.3456 0.8894
vn -0.2272 -0.3219 0.9191
vn 0.5447 -0.6841 -0.4850
vn 0.9781 -0.0817 -0.1913
vn 0.8819 -0.3838 -0.2738
vn 0.7152 -0.6215 0.3197
vn 0.1530 -0.0831 0.9847
vn 0.4839 -0.0832 0.8712
vn 0.7004 -0.1639 0.6946
vn 0.1699 0.5319 0.8296
vn 0.1523 0.5078 0.8479
vn 0.8022 0.5047 -0.3189
vn -0.6736 0.4165 -0.6105
vn -0.5452 0.7454 -0.3835
vn -0.6537 0.7567 -0.0012
vn -0.6550 0.7539 -0.0505
vn -0.4948 0.8138 -0.3046
vn -0.5390 0.7911 0.2892
vn -0.5381 0.8357 -0.1100
vn -0.6869 -0.7233 0.0697
vn -0.5777 -0.7229 -0.3789
vn 0.2126 -0.7002 -0.6815
vn -0.8206 0.2937 -0.4902
vn -0.8468 0.2809 -0.4516
vn -0.8625 0.3055 -0.4033
vn 0.6695 -0.6882 0.2793
vn 0.7028 -0.3042 0.6430
vn 0.9239 -0.3424 0.1703
vn 0.9041 -0.2605 0.3387
vn 0.7237 0.3405 -0.6002
vn 0.8873 0.4368 -0.1482
vn 0.9486 0.0950 -0.3017
vn 0.7335 0.2502 -0.6319
vn 0.4194 -0.1914 -0.8874
vn 0.9768 0.1893 -0.1000
vn -0.7476 0.0675 0.6607
vn -0.7905 0.1501 0.5938
vn 0.1357 -0.9045 0.4043
vn 0.1665 -0.8922 0.4197
vn 0.5636 0.7467 0.3531
vn 0.3771 0.8712 0.3142
vn 0.6195 0.6446 0.4479
vn 0.0082 0.9706 0.2405
vn 0.1240 0.9907 -0.0562
vn 0.1925 0.9768 0.0937
vn -0.5621 0.1942 -0.8039
vn -0.5599 0.0598 -0.8264
vn -0.0911 0.2794 -0.9558
vn -0.5458 -0.0085 -0.8379
vn -0.3728 0.0710 -0.9251
vn 0.4432 -0.2904 -0.8481
vn 0.4415 0.0168 -0.8971
vn 0.5804 -0.1411 -0.8020
vn 0.6644 0.5902 -0.4584
vn 0.7265 0.6871 -0.0094
vn 0.6246 0.7310 -0.2748
vn -0.1801 -0.5188 0.8357
vn -0.1237 -0.3811 0.9162
vn -0.0078 -0.5293 0.8484
vn -0.5581 -0.2494 -0.7914
vn -0.9001 -0.2219 -0.3749
vn -0.9072 -0.2365 -0.3478
vn -0.6046 -0.4542 -0.6543
vn -0.7105 -0.3896 -0.5859
vn -0.5934 -0.5736 -0.5646
vn 0.1914 0.4242 -0.8851
vn 0.2600 0.4948 -0.8292
vn 0.8939 -0.4462 -0.0431
vn 0.9048 -0.4176 0.0831
vn 0.6350 -0.7719 -0.0297
vn 0.9713 -0.0917 0.2194
vn 0.8890 -0.1367 0.4369
vn 0.8407 -0.1602 0.5173
vn -0.9403 0.3379 0.0400
vn -0.8278 0.1846 -0.5298
vn -0.9817 0.1560 -0.1092
vn -0.9724 -0.1779 -0.1506
vn -0.8519 -0.4081 -0.3282
vn -0.8999 -0.1212 -0.4189
vn 0.3939 -0.2582 -0.8821
vn -0.0675 0.2004 -0.9774
vn -0.0353 0.5705 -0.8205
vn 0.2367 0.4120 -0.8799
vn 0.2063 -0.7232 -0.6591
vn -0.3532 -0.7589 0.5470
vn -0.4099 -0.2143 0.8866
vn -0.4284 -0.3866 0.8166
vn -0.6880 -0.1297 0.7140
vn 0.3405 -0.0186 0.9400
vn 0.3285 0.0379 0.9437
vn 0.2326 0.0549 0.9710
vn 0.9189 0.1579 0.3614
vn 0.9514 -0.0421 0.3052
vn -0.0379 -0.1631 0.9859
vn 0.1000 -0.2262 0.9689
vn 0.4083 -0.2740 0.8707
vn -0.9992 -0.0106 0.0383
vn -0.8792 -0.0082 0.4763
vn -0.9521 -0.2832 0.1146
vn 0.7021 0.2453 -0.6684
vn 0.8824 -0.2541 -0.3960
vn 0.3614 -0.8983 -0.2499
vn 0.2542 -0.6169 -0.7449
vn 0.4251 -0.8779 -0.2202
vn 0.5686 -0.0208 0.8224
vn 0.4669 0.1923 0.8631
vn 0.6643 0.0631 0.7448
vn 0.9488 -0.0809 0.3054
vn 0.8867 0.1243 0.4452
vn 0.8696 0.1337 0.4752
vn -0.5055 0.4872 -0.7121
vn -0.3850 0.5159 -0.7652
vn -0.9697 0.1789 -0.1665
vn -0.9845 -0.0386 -0.1712
vn -0.9637 0.1559 -0.2164
vn -0.1189 -0.6411 0.7581
vn 0.0364 -0.6377 0.7694
vn -0.0207 -0.0792 0.9966
vn 0.3844 -0.0725 0.9203
vn 0.4773 -0.1334 0.8686
vn -0.7254 0.0142 -0.6882
vn -0.6908 -0.0565 -0.7208
vn -0.6452 -0.1047 -0.7568
vn -0.7291 0.0295 -0.6838
vn -0.4306 0.2895 -0.8548
vn -0.0567 0.3752 -0.9252
vn 0.9619 -0.2259 -0.1542
vn 0.9565 -0.0066 -0.2916
vn 0.9811 -0.1787 -0.0738
vn 0.8698 0.3131 0.3814
vn 0.8589 0.2358 0.4547
vn 0.9319 0.3135 0.1823
vn 0.1218 -0.6008 0.7900
vn -0.2536 -0.4964 0.8302
vn 0.2223 -0.8554 0.4678
vn -0.6425 0.4350 0.6308
vn -0.6386 0.3739 0.6726
vn -0.4613 0.5265 0.7141
vn 0.5725 0.5292 -0.6263
vn 0.9402 0.2446 -0.2370
vn 0.9586 0.2799 -0.0529
vn 0.2087 -0.5678 0.7963
vn -0.1033 -0.1131 0.9882
vn 0.1841 -0.2869 0.9401
vn -0.3965 -0.2294 0.8889
vn -0.3635 -0.3953 0.8435
vn -0.8193 -0.3321 0.4674
vn -0.2271 -0.6879 0.6893
vn 0.0873 -0.6559 0.7497
vn -0.3279 -0.6686 0.6674
vn -0.5842 0.7568 -0.2933
vn -0.4035 0.9148 -0.0175
vn -0.4213 0.9054 -0.0515
vn -0.8452 0.2627 -0.4654
vn -0.9639 0.2586 -0.0630
vn -0.9581 0.2261 -0.1758
vn -0.2499 0.9453 -0.2094
vn 0.2984 0.5970 -0.7447
vn -0.1645 -0.0333 0.9858
vn 0.1217 -0.1815 0.9758
vn -0.0914 -0.1883 0.9778
vn -0.1237 0.0986 0.9874
vn 0.3998 0.0427 0.9156
vn 0.1815 0.0735 0.9806
vn -0.1775 -0.5585 0.8103
vn -0.1853 -0.6044 0.7748
vn 0.1595 -0.5785 0.7999
vn 0.4233 0.1073 -0.8996
vn -0.1941 0.1058 -0.9752
vn 0.2314 0.1813 -0.9558
vn 0.0745 0.0639 -0.9951
vn -0.2343 -0.4005 0.8858
vn -0.4057 -0.5558 0.7255
vn -0.3312 -0.2679 0.9047
vn -0.9669 0.2539 0.0229
vn -0.9110 0.4038 -0.0832
vn -0.9914 0.0974 0.0878
vn -0.4106 0.0318 0.9113
vn -0.3053 0.0937 0.9476
vn -0.1294 0.2182 0.9673
vn -0.6986 -0.6589 0.2787
vn -0.6992 -0.6291 0.3395
vn -0.6250 -0.6674 0.4048
vn 0.1484 0.0934 0.9845
vn 0.4473 0.4580 0.7682
vn 0.5568 0.4445 0.7017
vn 0.4929 -0.5117 0.7036
vn 0.6275 -0.6721 0.3931
vn 0.7017 -0.4414 0.5592
vn -0.9270 -0.2297 -0.2964
vn -0.9903 -0.0568 -0.1268
vn -0.9567 -0.1725 -0.2343
vn -0.9883 0.0544 0.1427
vn -0.9995 0.0309 0.0023
vn -0.9879 0.0544 0.1448
vn 0.5976 0.7986 -0.0709
vn 0.8374 0.5304 -0.1317
vn 0.3354 0.7672 0.5467
vn 0.4426 0.7346 0.5142
vn 0.4086 0.8297 0.3802
vn -0.6584 0.3774 -0.6512
vn -0.6337 0.3238 -0.7025
vn -0.5075 0.2499 -0.8246
vn -0.6138 -0.3636 -0.7008
vn -0.5472 0.0295 -0.8365
vn 0.0616 -0.3496 0.9348
vn 0.0122 -0.8209 0.5708
vn -0.0477 -0.2674 0.9624
vn -0.1818 -0.2517 0.9506
vn -0.4259 -0.2716 0.8630
vn -0.1692 -0.3553 0.9193
vn -0.9512 0.0462 0.3051
vn -0.9068 -0.1877 0.3775
vn -0.9522 -0.1560 0.2626
vn -0.4854 -0.3827 0.7860
vn -0.6847 -0.4529 0.5710
vn -0.8674 -0.4803 0.1300
vn 0.9861 -0.0383 0.1617
vn 0.8906 -0.3820 -0.2468
vn 0.9545 0.2953 -0.0414
vn 0.8391 0.4437 0.3146
vn 0.7146 0.1942 0.6720
vn 0.7893 0.3599 0.4974
vn 0.0736 0.2899 0.9542
vn 0.1264 0.2860 0.9498
vn -0.3836 -0.2713 0.8827
vn -0.0153 -0.1729 0.9848
vn -0.2764 -0.0031 0.9610
vn -0.2017 0.0664 -0.9772
vn -0.3257 -0.0130 -0.9454
vn -0.1911 0.0390 -0.9808
vn -0.5870 0.2017 -0.7841
vn -0.4566 0.2009 -0.8666
vn -0.2331 0.4621 -0.8556
vn -0.7072 0.1859 0.6821
vn -0.3756 0.2399 0.8952
vn -0.7764 0.1311 0.6164
vn -0.9246 0.3710 0.0855
vn -0.8393 0.2628 0.4760
vn 0.2900 0.2393 -0.9266
vn 0.3719 0.3807 -0.8466
vn 0.4902 0.0307 -0.8711
vn 0.7535 0.0351 -0.6565
vn 0.2534 0.3211 -0.9125
vn 0.5718 0.4557 -0.6821
vn -0.7442 0.6049 -0.2833
vn -0.7172 0.6941 0.0624
vn -0.6985 0.5546 -0.4522
vn -0.5030 0.3273 -0.7998
vn -0.9291 0.2564 -0.2663
vn 0.6537 -0.0551 -0.7547
vn 0.8563 -0.4613 -0.2323
vn 0.7337 -0.1935 -0.6513
vn 0.4647 0.3628 -0.8077
vn 0.5936 0.4381 -0.6750
vn -0.9291 -0.0878 -0.3593
vn -0.9704 -0.0745 -0.2297
vn -0.6854 -0.5100 -0.5196
vn 0.2871 -0.0273 0.9575
vn -0.4987 -0.7070 0.5014
vn 0.3909 -0.2523 0.8852
vn 0.1125 0.0656 0.9915
vn 0.0942 -0.2653 0.9595
vn -0.8761 -0.3539 0.3272
vn 0.3272 -0.2594 -0.9086
vn 0.1767 0.1296 -0.9757
vn 0.0963 -0.6756 -0.7310
vn -0.8281 0.3061 0.4696
vn -0.8533 0.2312 0.4674
vn -0.8370 -0.4452 -0.3181
vn -0.5136 -0.3364 -0.7893
vn -0.8403 -0.2151 -0.4975
vn 0.1682 -0.2437 0.9551
vn 0.3322 0.0124 0.9431
vn -0.7793 0.1727 0.6024
vn 0.2131 0.4853 0.8479
vn -0.0829 0.9395 -0.3321
vn -0.1765 0.7372 -0.6522
vn -0.3140 0.7052 -0.6357
vn -0.4206 0.8868 -0.1915
vn -0.4289 0.7951 -0.4288
vn -0.2558 0.9000 -0.3530
vn -0.0409 -0.3890 0.9203
vn 0.8361 -0.2660 0.4796
vn 0.4807 -0.6878 0.5439
vn 0.8993 -0.1576 -0.4078
vn 0.8469 -0.5032 0.1716
vn 0.9971 -0.0231 -0.0727
vn -0.5490 0.0119 0.8357
vn -0.4020 0.4854 0.7764
vn -0.1892 0.3289 0.9252
vn 0.1772 -0.6419 0.7460
vn -0.3536 -0.5215 0.7765
vn 0.1304 -0.6162 0.7767
vn 0.2448 0.4512 -0.8582
vn 0.2017 0.2211 -0.9542
vn 0.3932 0.3250 -0.8601
vn 0.1805 0.3870 -0.9042
vn 0.0006 0.0796 -0.9968
vn 0.9698 -0.1074 -0.2189
vn 0.0078 -0.0336 -0.9994
vn 0.3673 0.3221 -0.8725
vn 0.4511 0.0840 -0.8885
vn -0.6640 0.1994 0.7206
vn -0.7995 -0.0016 0.6007
vn -0.2561 0.3079 0.9163
vn 0.3737 -0.1964 0.9065
vn 0.6673 0.4997 0.5522
vn 0.6204 0.7400 -0.2598
vn 0.5870 0.8072 0.0618
vn 0.7566 0.6535 0.0196
vn 0.4289 -0.8947 0.1248
vn 0.8673 0.2672 0.4200
vn 0.1697 -0.0090 0.9854
vn 0.3574 0.1452 0.9226
vn 0.3122 0.0802 0.9466
vn 0.7338 0.1127 0.6700
vn 0.6712 0.0159 0.7411
vn -0.9635 -0.0819 0.2547
vn -0.9406 -0.0834 0.3289
vn 0.9936 -0.0548 -0.0989
vn 0.9359 -0.0065 0.3522
vn 0.9589 -0.1609 0.2335
vn 0.6556 -0.3829 -0.6508
vn 0.4187 -0.2456 -0.8742
vn 0.4937 -0.5712 -0.6557
vn -0.7165 0.1316 0.6850
vn -0.5799 0.0761 0.8111
vn -0.6755 0.0183 0.7371
vn -0.4262 -0.5414 0.7247
vn -0.3121 0.1771 0.9334
vn -0.3587 -0.1874 0.9144
vn -0.8386 0.3038 -0.4521
vn -0.4505 0.4697 -0.7592
vn -0.7421 0.0127 -0.6701
vn -0.2737 0.5239 -0.8066
vn -0.4818 0.5661 -0.6688
vn -0.2025 0.7494 -0.6303
vn 0.0443 0.0430 0.9981
vn 0.1870 -0.0819 0.9789
vn 0.2850 -0.0573 0.9568
vn -0.6777 -0.6063 0.4161
vn -0.7782 -0.5320 0.3336
vn -0.8011 -0.4884 0.3458
vn -0.8912 0.3467 0.2926
vn 0.6333 -0.6763 -0.3762
vn 0.8685 -0.4543 0.1980
vn 0.7196 -0.6913 -0.0651
vn 0.6903 -0.7017 -0.1765
vn -0.3966 0.5232 0.7542
vn -0.6346 0.2094 0.7439
vn -0.4133 0.6377 0.6499
vn 0.1875 0.1901 0.9637
vn 0.0435 0.5170 0.8549
vn -0.2446 0.3192 0.9156
vn 0.8625 -0.1636 -0.4788
vn 0.7549 -0.2057 -0.6227
vn 0.6168 -0.3059 -0.7252
vn 0.8702 -0.4823 -0.1002
vn 0.6005 -0.4725 -0.6450
vn 0.8641 -0.4598 -0.2047
vn -0.9008 -0.0609 -0.4299
vn -0.9564 0.0179 -0.2916
vn -0.9929 0.0618 -0.1018
vn -0.9363 -0.3140 0.1571
vn 0.6515 0.5438 0.5289
vn -0.1763 -0.3762 0.9096
vn -0.1789 -0.0388 0.9831
vn -0.0085 -0.0722 0.9973
vn -0.2148 0.8717 -0.4404
vn 0.0212 0.9267 -0.3752
vn -0.0525 0.7940 -0.6055
vn -0.3378 0.4169 -0.8438
vn -0.5316 0.5492 -0.6448
vn -0.1976 0.5381 -0.8194
vn -0.2000 -0.7956 0.5718
vn -0.5239 -0.7348 0.4307
vn -0.4335 -0.7904 0.4329
vn -0.5818 -0.0836 0.8090
vn -0.3301 -0.3520 0.8759
vn -0.2968 -0.0927 0.9504
vn -0.0637 -0.1486 -0.9868
vn -0.1227 -0.2717 -0.9545
vn -0.2894 -0.1079 -0.9511
vn -0.2294 0.2566 -0.9389
vn -0.0636 0.3700 -0.9268
vn -0.0218 0.1090 0.9938
vn -0.1715 -0.2492 0.9531
vn -0.4177 -0.0024 0.9086
vn -0.7073 -0.5648 0.4250
vn -0.5155 0.8432 -0.1520
vn -0.6441 0.6920 -0.3260
vn -0.8863 0.1912 -0.4217
vn -0.7312 0.2756 -0.6239
vn -0.7361 0.3516 -0.5784
vn -0.6058 -0.6064 -0.5149
vn -0.8907 -0.4453 0.0913
vn -0.8676 -0.4566 -0.1967
vn -0.4870 -0.6117 0.6234
vn -0.7243 -0.6330 0.2733
vn -0.5269 -0.6366 0.5631
vn 0.5395 -0.5176 0.6641
vn 0.8055 -0.2580 0.5335
vn 0.0362 -0.3412 0.9393
vn -0.2340 -0.4181 0.8777
vn 0.3495 0.8960 -0.2737
vn 0.1759 0.9843 -0.0083
vn 0.4751 0.5298 -0.7025
vn 0.5863 -0.1442 0.7971
vn 0.5810 -0.2327 0.7799
vn 0.1323 0.2897 0.9479
vn 0.3977 0.0585 0.9156
vn 0.3420 0.4411 0.8297
vn 0.4064 0.0737 -0.9107
vn 0.5610 0.1430 -0.8154
vn 0.8186 0.2900 -0.4957
vn 0.9095 0.3197 -0.2657
vn 0.8690 0.4847 -0.0994
vn 0.9270 0.2634 -0.2669
vn -0.8632 0.3729 0.3403
vn -0.7475 0.4532 0.4856
vn -0.4865 0.5255 0.6980
vn -0.9147 0.1124 0.3881
vn -0.9171 0.1317 0.3762
vn -0.8283 0.0024 0.5603
vn -0.7846 0.2394 0.5719
vn -0.7592 0.0799 0.6459
vn 0.1874 0.0171 0.9821
vn -0.0736 0.0060 0.9973
vn -0.0779 0.1113 0.9907
vn -0.5247 -0.2669 0.8083
vn 0.8902 -0.4391 -0.1209
vn 0.8895 -0.3807 0.2527
vn 0.9541 -0.2899 0.0750
vn -0.3619 0.0598 -0.9303
vn -0.6085 -0.2840 -0.7409
vn -0.4711 0.1053 -0.8757
vn -0.5027 0.2483 -0.8280
vn -0.2409 0.4335 -0.8683
vn 0.7994 0.1162 -0.5894
vn 0.6000 -0.3973 -0.6943
vn 0.7629 0.2312 -0.6037
vn 0.4113 -0.7317 -0.5435
vn 0.2960 -0.8370 -0.4602
vn 0.3998 -0.8938 -0.2032
vn 0.3321 0.4801 0.8119
vn 0.5033 0.5608 0.6574
vn 0.5942 0.4189 0.6866
vn 0.7951 -0.1988 0.5729
vn 0.7664 -0.1645 0.6210
vn 0.7082 -0.2614 0.6558
vn -0.9784 0.0833 0.1892
vn -0.9666 -0.1351 0.2178
vn -0.9962 -0.0119 -0.0864
vn -0.7721 -0.0754 -0.6309
vn -0.9601 -0.1368 -0.2440
vn -0.9933 0.1128 -0.0224
vn -0.7861 0.2638 0.5590
vn 0.0422 0.7069 0.7060
vn -0.4699 0.6506 0.5966
vn -0.1110 0.8483 0.5178
vn -0.9684 -0.2256 0.1062
vn -0.9607 0.2536 0.1130
vn -0.9626 -0.1073 0.2488
vn 0.2521 -0.4106 0.8762
vn 0.0918 -0.3125 0.9455
vn -0.3380 0.4993 0.7978
vn -0.5668 0.6033 0.5610
vn -0.6019 0.6799 0.4188
vn -0.7847 0.4852 0.3857
vn -0.7133 0.5559 0.4267
vn -0.7802 0.3735 0.5017
vn -0.9665 -0.0946 -0.2384
vn -0.9230 -0.3430 -0.1743
vn -0.8012 -0.3886 -0.4551
vn -0.7147 -0.4879 -0.5012
vn -0.6902 -0.6466 -0.3248
vn 0.8426 0.1356 -0.5211
vn 0.7048 0.1999 -0.6807
vn 0.7910 0.2257 -0.5686
vn 0.7330 -0.2269 -0.6412
vn 0.7599 0.0020 -0.6500
vn 0.6412 -0.1867 -0.7443
vn 0.7290 -0.3638 -0.5798
vn 0.6571 -0.5390 -0.5269
vn 0.3285 -0.0494 -0.9432
vn 0.1018 0.3061 -0.9465
vn 0.0593 0.0259 -0.9979
vn 0.0676 -0.2461 0.9669
vn 0.3797 -0.3827 0.8422
vn 0.0996 -0.4142 0.9047
vn 0.7342 0.3217 0.5979
vn -0.9184 0.0095 -0.3956
vn -0.9366 0.1923 -0.2927
vn -0.9044 -0.0716 -0.4207
vn -0.9799 -0.0884 -0.1785
vn 0.8996 0.1541 0.4086
vn 0.6819 0.0256 0.7309
vn 0.7433 -0.3256 0.5843
vn -0.4970 0.7432 0.4478
vn -0.6747 0.7050 0.2182
vn -0.5296 0.8406 0.1132
vn -0.3350 -0.0260 0.9419
vn -0.4239 0.2517 0.8700
vn -0.4961 0.2089 0.8427
vn -0.1572 0.2669 0.9508
vn -0.4202 0.1677 0.8918
vn -0.3750 0.5411 0.7527
vn -0.4787 -0.5746 0.6638
vn -0.2652 -0.6985 0.6647
vn -0.3397 -0.6359 0.6930
vn 0.8179 -0.1713 -0.5493
vn 0.7868 -0.2959 -0.5416
vn 0.6173 -0.1123 -0.7786
vn 0.7801 0.3143 -0.5410
vn 0.7840 0.1438 -0.6038
vn 0.6279 0.1338 -0.7667
vn 0.3619 0.2145 0.9072
vn 0.4676 0.1597 0.8694
vn 0.7854 -0.1317 0.6047
vn 0.9599 0.0609 0.2736
vn 0.5966 -0.0587 0.8004
vn -0.7667 -0.4812 -0.4249
vn -0.7076 -0.5300 -0.4674
vn -0.8601 0.5085 0.0393
vn 0.5310 0.3816 0.7566
vn 0.7423 0.5478 0.3857
vn 0.8843 0.4350 0.1694
vn 0.9831 0.0956 -0.1559
vn 0.8962 0.0302 -0.4425
vn -0.9660 -0.0909 0.2420
vn -0.9520 0.2501 0.1765
vn -0.4678 0.8564 -0.2182
vn -0.0857 0.5871 -0.8049
vn 0.1815 0.1629 -0.9698
vn 0.0328 0.6641 -0.7468
vn -0.6173 -0.3983 -0.6785
vn -0.1633 -0.1803 -0.9699
vn -0.1372 -0.0923 -0.9862
vn 0.8399 0.1987 -0.5050
vn 0.1614 0.4224 -0.8919
vn 0.2806 0.5906 -0.7566
vn 0.1859 -0.7152 0.6737
vn -0.3895 -0.4260 0.8166
vn -0.9289 -0.3515 0.1167
vn -0.5775 -0.0156 0.8162
vn -0.8610 -0.1655 0.4808
vn -0.8303 -0.2968 0.4718
vn -0.7333 -0.0459 0.6783
vn -0.8880 0.0549 0.4565
vn -0.5211 0.5489 0.6536
vn -0.8177 0.1581 0.5535
vn 0.7192 -0.3952 0.5714
vn 0.5110 -0.5829 0.6317
vn 0.6002 -0.5446 0.5857
vn 0.7873 -0.1330 0.6020
vn 0.6524 -0.1612 0.7405
vn 0.9225 -0.2393 0.3028
vn 0.2918 -0.0092 -0.9564
vn 0.2353 0.2553 -0.9378
vn 0.3010 0.1690 -0.9385
vn 0.2829 -0.0551 -0.9575
vn 0.1846 0.3239 -0.9279
vn -0.0735 0.2363 -0.9689
vn 0.6868 -0.0198 -0.7266
vn 0.5568 0.1691 -0.8132
vn 0.2443 0.2451 -0.9382
vn 0.6025 -0.0121 -0.7980
vn 0.9336 0.1497 -0.3254
vn -0.4629 0.1457 -0.8743
vn -0.5041 -0.0720 -0.8606
vn -0.0935 0.4979 -0.8622
vn -0.1956 -0.1326 -0.9716
vn 0.8223 0.2649 0.5036
vn 0.8223 0.5655 0.0636
vn 0.7595 0.5755 0.3032
vn 0.7681 0.3474 -0.5379
vn 0.1704 0.5719 -0.8024
vn -0.2352 0.8086 -0.5392
vn -0.4502 0.5470 0.7057
vn -0.5794 0.4692 0.6665
vn -0.5942 0.1111 0.7966
vn -0.7447 0.0797 0.6626
vn -0.4343 0.3614 0.8251
vn -0.4680 0.1932 0.8623
vn -0.3674 0.5576 -0.7443
vn -0.5419 0.1295 -0.8304
vn -0.7442 0.3734 -0.5538
vn -0.6772 -0.1447 -0.7214
vn 0.8664 0.1315 0.4817
vn 0.6449 -0.6272 0.4367
vn -0.4393 -0.5792 0.6866
vn -0.1912 -0.8799 0.4350
vn -0.3375 -0.8806 0.3324
vn -0.1862 0.0484 0.9813
vn -0.2772 0.2110 0.9373
vn -0.9967 0.0632 -0.0504
vn -0.9918 0.1250 0.0264
vn -0.9883 -0.1029 0.1125
vn -0.8751 -0.4475 0.1843
vn -0.9643 -0.1776 -0.1963
vn -0.8803 0.3692 0.2977
vn -0.6371 -0.0581 0.7685
vn -0.9312 0.3546 0.0846
vn -0.8320 0.4018 -0.3826
vn -0.6637 0.5108 -0.5464
vn -0.6679 0.2572 -0.6983
vn -0.9590 -0.2034 0.1975
vn -0.9673 -0.2378 0.0885
vn -0.9471 -0.2133 0.2395
vn -0.7878 -0.3477 -0.5083
vn -0.8490 -0.4152 -0.3266
vn -0.8575 -0.3580 -0.3694
vn 0.0332 0.3948 -0.9181
vn -0.1802 0.3070 -0.9345
vn -0.0972 0.3041 -0.9477
vn 0.0984 0.1878 -0.9772
vn -0.5415 -0.0375 -0.8398
vn -0.2834 -0.1585 -0.9458
vn -0.1397 0.1755 -0.9745
vn 0.8713 0.1428 0.4694
vn 0.8103 0.3660 0.4576
vn 0.9960 -0.0407 0.0797
vn -0.6657 0.0160 0.7460
vn -0.8536 -0.1281 0.5049
vn -0.0801 -0.4744 0.8766
vn 0.1999 -0.2225 0.9542
vn 0.1761 -0.2885 0.9411
vn -0.9244 0.2352 -0.3003
vn -0.9992 0.0287 0.0255
vn -0.9430 0.2469 -0.2233
vn -0.9325 -0.3358 0.1326
vn 0.6383 0.4174 -0.6468
vn 0.4709 0.3840 -0.7942
vn -0.8017 0.2779 0.5291
vn -0.3737 0.2636 0.8893
vn -0.2893 0.8295 0.4777
vn -0.0463 -0.3097 0.9497
vn 0.0111 -0.1969 0.9803
vn -0.4477 -0.0749 0.8910
vn -0.3695 0.7986 -0.4750
vn -0.3498 0.9139 -0.2057
vn -0.6596 0.5191 -0.5435
vn 0.9744 -0.2247 0.0041
vn 0.9580 -0.0597 0.2803
vn -0.3551 -0.8553 0.3772
vn -0.3427 -0.7125 0.6122
vn -0.4190 -0.8682 0.2658
vn 0.7027 -0.4400 -0.5592
vn 0.8850 -0.2401 -0.3989
vn 0.8648 -0.4918 -0.1007
vn 0.6593 -0.7430 0.1151
vn 0.8285 -0.4845 0.2806
vn 0.3175 -0.0672 -0.9459
vn 0.2987 -0.0020 -0.9543
vn 0.2849 -0.0714 -0.9559
vn 0.3728 -0.3479 -0.8602
vn 0.4441 -0.4469 -0.7765
vn -0.8985 -0.0526 0.4357
vn -0.7086 0.1011 0.6983
vn -0.5755 0.0389 0.8169
vn -0.8082 0.1861 0.5587
vn -0.8848 -0.1282 0.4479
vn -0.8699 0.4820 0.1042
vn -0.9708 0.2311 -0.0641
vn -0.8883 0.4538 0.0701
vn -0.9080 0.3193 0.2713
vn -0.9531 0.2156 -0.2123
vn 0.5321 0.5398 -0.6522
vn 0.7059 0.4259 -0.5659
vn 0.6304 -0.7115 -0.3102
vn 0.1959 0.9265 -0.3211
vn 0.3266 0.8128 -0.4823
vn 0.1175 0.8590 -0.4982
vn 0.5982 0.8013 0.0068
vn 0.0768 0.9237 -0.3753
vn 0.2452 0.8977 -0.3660
vn 0.3739 0.8541 0.3615
vn 0.4093 0.7816 0.4706
vn -0.3279 0.5429 -0.7731
vn -0.5713 0.2828 -0.7705
vn -0.2048 0.4731 -0.8569
vn -0.3942 0.0938 -0.9142
vn 0.0621 0.1610 -0.9850
vn 0.0656 -0.0679 -0.9955
vn -0.4367 0.2132 0.8739
vn -0.2422 0.1742 0.9544
vn -0.4940 0.3389 0.8007
vn -0.4805 0.4823 -0.7324
vn -0.5866 0.4002 -0.7041
vn -0.4715 0.5994 -0.6468
vn -0.8068 0.0174 -0.5906
vn -0.8891 0.0546 -0.4545
vn -0.8550 0.1925 -0.4816
vn -0.6092 0.2298 0.7590
vn 0.0650 -0.2578 0.9640
vn -0.3281 0.1278 0.9359
vn -0.8509 0.1481 0.5039
vn 0.9436 0.1272 -0.3057
vn 0.3185 0.6497 -0.6901
vn 0.8460 0.0540 -0.5305
vn 0.9987 -0.0327 0.0377
vn -0.6350 0.3475 -0.6899
vn -0.2010 0.2656 -0.9429
vn -0.3599 0.2553 -0.8974
vn -0.4536 0.0942 -0.8862
vn -0.5631 0.6630 -0.4933
vn -0.7641 0.1132 -0.6350
vn 0.9939 -0.0512 -0.0978
vn 0.2174 -0.3937 0.8931
vn 0.8481 0.1057 0.5191
vn 0.4521 0.2272 0.8625
vn -0.5282 0.1769 0.8304
vn -0.7554 0.2336 0.6122
vn -0.5730 -0.0119 0.8195
vn -0.2510 0.9598 0.1251
vn -0.6942 0.5959 0.4037
vn -0.3025 0.9026 0.3062
vn -0.6929 0.0566 0.7188
vn -0.7931 -0.4000 0.4593
vn 0.0981 -0.4074 0.9080
vn 0.3624 -0.0642 0.9298
vn -0.0670 -0.6575 0.7504
vn -0.5051 0.7934 0.3398
vn -0.2693 0.9389 0.2141
vn -0.4172 0.8642 -0.2812
vn -0.3717 0.1766 0.9113
vn -0.5766 0.0049 0.8170
vn -0.3721 -0.0634 0.9260
vn -0.5127 -0.6833 -0.5197
vn -0.7985 -0.1315 -0.5874
vn -0.7751 -0.0847 -0.6261
vn -0.5192 0.0531 0.8530
vn -0.7075 0.5815 0.4015
vn -0.3885 0.1628 0.9069
vn -0.5171 0.6064 0.6041
vn -0.8282 -0.0678 0.5562
vn -0.4937 -0.0757 0.8663
vn -0.6362 -0.2364 0.7344
vn -0.7085 -0.0521 0.7038
vn 0.5542 0.8268 0.0961
vn 0.4134 0.9103 0.0207
vn -0.5143 -0.1636 0.8418
vn 0.1472 -0.0123 0.9890
vn 0.2225 -0.2659 0.9380
vn 0.3584 0.2809 0.8903
vn 0.1534 0.4207 0.8941
vn 0.4348 0.5950 0.6760
vn 0.4963 -0.6306 0.5967
vn 0.1048 -0.4670 0.8780
vn 0.1490 -0.3069 0.9400
vn 0.8298 0.5324 -0.1673
vn 0.5151 0.7275 -0.4533
vn 0.5708 0.5941 -0.5667
vn -0.9927 0.0006 0.1207
vn -0.9485 -0.0646 0.3099
vn -0.1662 0.9191 -0.3573
vn -0.4509 0.8798 -0.1507
vn -0.0224 0.8835 -0.4678
vn -0.2051 -0.5684 0.7968
vn -0.0097 -0.4713 0.8819
vn -0.6761 -0.2766 0.6829
vn -0.9130 0.3466 0.2152
vn -0.8372 0.4455 0.3169
vn 0.0830 0.3270 -0.9413
vn -0.2614 0.0037 -0.9652
vn -0.1812 0.5740 -0.7985
vn -0.2654 0.0137 -0.9640
vn 0.0603 0.2017 -0.9776
vn 0.6239 -0.5967 0.5047
vn 0.2218 -0.7101 0.6682
vn 0.2441 -0.7049 0.6659
vn 0.0323 -0.6730 0.7389
vn -0.0421 -0.7330 0.6789
vn 0.0261 -0.6359 0.7713
vn -0.7941 -0.1237 0.5951
vn -0.7626 -0.3235 0.5602
vn -0.6622 -0.4433 0.6041
vn -0.8701 0.3703 0.3252
vn -0.7862 0.1447 0.6008
vn -0.6014 0.0368 -0.7981
vn -0.6937 -0.4494 -0.5629
vn -0.5917 -0.1830 -0.7851
vn -0.8465 -0.2329 -0.4788
vn -0.8652 -0.3674 -0.3412
vn -0.8809 -0.4664 -0.0796
vn -0.0629 -0.5509 0.8321
vn 0.8542 0.2691 -0.4449
vn 0.5844 0.7638 -0.2741
vn 0.7951 0.5628 -0.2260
vn 0.5278 0.0574 -0.8474
vn 0.5989 0.1242 -0.7911
vn 0.3262 0.3572 -0.8752
vn 0.3569 0.1686 -0.9188
vn 0.5334 -0.1082 -0.8389
vn 0.8422 0.1041 -0.5290
vn 0.6777 -0.0284 -0.7347
vn 0.9125 -0.1458 -0.3822
vn 0.9161 -0.0627 -0.3959
vn 0.7935 -0.2722 -0.5443
vn 0.9188 -0.1160 -0.3771
vn 0.8524 -0.1729 -0.4935
vn 0.5340 0.2466 0.8087
vn 0.6469 0.0291 0.7620
vn 0.8219 -0.0638 0.5660
vn 0.7158 0.1639 0.6788
vn 0.4167 -0.3757 0.8277
vn 0.3005 -0.4261 0.8533
vn 0.3077 -0.5563 0.7719
vn -0.3040 0.0121 0.9526
vn -0.2259 -0.0073 0.9741
vn -0.9558 -0.2675 -0.1221
vn -0.8925 -0.0023 0.4511
vn 0.4275 -0.1939 -0.8829
vn -0.0593 0.0370 0.9975
vn -0.2277 0.4259 0.8756
vn -0.1451 0.2369 0.9606
vn -0.5457 -0.5692 0.6150
vn -0.6868 -0.1019 0.7197
vn -0.7035 -0.5508 0.4490
vn -0.8793 -0.4277 0.2094
vn -0.1822 -0.0584 0.9815
vn -0.2032 -0.1379 0.9694
vn 0.7836 0.2467 -0.5701
vn 0.4430 -0.1110 -0.8896
vn 0.7148 0.3571 -0.6013
vn 0.6060 0.4315 -0.6682
vn 0.8206 0.2049 -0.5334
vn 0.5877 0.3126 -0.7462
vn -0.5535 -0.3401 0.7602
vn -0.7019 -0.2159 0.6787
vn -0.6394 -0.5357 0.5515
vn -0.4353 -0.4829 0.7598
vn -0.3172 -0.5914 0.7413
vn -0.3802 -0.7076 0.5956
vn -0.8672 0.2098 0.4515
vn -0.7646 -0.3072 0.5665
vn -0.8358 -0.2222 0.5019
vn -0.8120 0.5831 0.0228
vn 0.4595 0.0291 -0.8877
vn 0.9849 0.1691 0.0366
vn 0.9338 0.0443 -0.3548
vn 0.7203 0.0435 -0.6923
vn 0.1484 -0.0128 -0.9888
vn 0.8468 0.1774 -0.5015
vn -0.2492 0.6032 0.7577
vn -0.0979 0.5591 0.8233
vn -0.2092 -0.0056 0.9778
vn -0.1412 0.2070 0.9681
vn 0.2259 -0.7966 0.5607
vn -0.3843 0.6760 -0.6287
vn -0.5493 0.7051 -0.4484
vn -0.6695 0.0647 0.7399
vn -0.8165 0.4342 0.3805
vn -0.8638 0.3634 0.3490
vn -0.8866 0.1676 0.4310
vn -0.7472 -0.2306 0.6233
vn -0.8308 -0.4237 0.3608
vn -0.4841 -0.4550 0.7474
vn 0.9729 0.0140 0.2309
vn 0.9523 0.2751 0.1319
vn 0.9732 0.1660 0.1591
vn 0.4987 0.1314 0.8567
vn 0.6897 -0.1947 0.6973
vn 0.4087 0.0481 0.9114
vn -0.2116 -0.7801 0.5888
vn -0.0387 -0.9944 -0.0983
vn -0.0403 -0.6746 0.7370
vn -0.5001 0.3438 -0.7948
vn -0.9890 -0.0161 -0.1471
vn -0.9069 -0.1451 -0.3956
vn -0.9320 -0.3257 0.1588
vn -0.5676 -0.4083 0.7149
vn -0.3367 -0.7193 -0.6076
vn -0.3197 -0.7764 -0.5431
vn 0.0814 -0.1859 0.9792
vn 0.0945 -0.3817 0.9194
vn 0.1772 -0.2173 0.9599
vn -0.2917 -0.6763 0.6764
vn 0.0561 -0.6366 0.7692
vn 0.1478 -0.3489 0.9254
vn -0.1946 -0.2652 0.9443
vn 0.3184 -0.0490 0.9467
vn -0.1143 -0.1200 0.9861
vn 0.3156 0.1159 0.9418
vn 0.2773 -0.2732 0.9211
vn 0.1919 -0.0911 0.9772
vn 0.1730 -0.2586 0.9503
vn -0.3666 0.7120 0.5988
vn 0.0433 0.0779 0.9960
vn -0.1974 0.7970 -0.5708
vn 0.7169 0.0805 -0.6925
vn 0.6938 0.1330 -0.7077
vn 0.7741 0.5438 -0.3240
vn 0.5978 0.7229 0.3464
vn 0.7056 0.2999 0.6420
vn 0.6149 0.7886 0.0084
vn 0.2468 0.2087 0.9463
vn 0.2818 0.5038 0.8165
vn -0.0248 0.3324 -0.9428
vn 0.1402 0.4925 -0.8589
vn 0.1957 0.3479 -0.9169
vn 0.8652 -0.0808 0.4948
vn 0.6412 -0.5372 0.5479
vn 0.9017 0.1301 0.4122
vn 0.9061 -0.2082 0.3682
vn 0.8643 -0.0512 0.5004
vn 0.5903 0.8047 0.0629
vn 0.8719 0.4858 0.0611
vn 0.0552 -0.5598 0.8268
vn 0.6165 0.5731 0.5398
vn 0.6969 0.4062 0.5911
vn 0.7087 -0.4316 -0.5580
vn 0.4569 -0.6174 -0.6403
vn 0.7645 -0.5457 -0.3430
vn 0.8350 -0.5476 -0.0530
vn -0.8152 -0.5771 -0.0480
vn -0.9159 -0.4015 -0.0023
vn -0.8727 -0.4882 0.0057
vn -0.7652 -0.6014 0.2295
vn -0.3711 0.0978 -0.9234
vn -0.6715 0.0790 -0.7367
vn 0.5255 -0.4685 0.7102
vn -0.5429 0.0358 0.8390
vn 0.1308 0.1209 0.9840
vn -0.2304 -0.2591 0.9380
vn 0.4404 -0.2311 0.8675
vn -0.2098 -0.0603 0.9759
vn -0.0403 -0.2561 0.9658
vn 0.1023 0.2787 0.9549
vn -0.1628 0.0030 0.9866
vn -0.6717 0.3216 0.6674
vn -0.1571 0.8031 0.5747
vn -0.2325 0.4656 0.8538
vn -0.9588 0.0948 0.2677
vn -0.6829 0.3934 -0.6156
vn -0.9872 0.1407 -0.0744
vn -0.7807 0.0339 0.6240
vn -0.8686 -0.0731 0.4900
vn -0.9622 -0.0978 0.2543
vn 0.7208 -0.6886 0.0790
vn 0.5217 -0.7521 0.4026
vn 0.5429 -0.8091 0.2250
vn 0.9322 -0.3617 -0.0057
vn 0.6180 -0.2495 -0.7455
vn 0.3678 -0.6262 -0.6875
vn -0.8015 0.2616 0.5376
vn -0.3165 0.7122 -0.6265
vn -0.5428 0.7115 -0.4462
vn -0.6625 0.6709 -0.3331
vn -0.6115 0.6614 -0.4342
vn 0.2110 -0.0456 -0.9764
vn 0.7275 -0.0952 -0.6795
vn 0.5383 -0.1835 -0.8225
vn -0.2769 0.9093 0.3106
vn -0.1792 0.9621 0.2056
vn -0.8992 -0.1712 -0.4026
vn -0.8243 0.0423 -0.5645
vn -0.9374 0.2438 -0.2486
vn -0.6097 -0.4885 -0.6241
vn -0.2310 -0.3851 -0.8935
vn -0.6204 -0.7828 -0.0485
vn -0.6828 0.1463 -0.7158
vn -0.7541 0.0938 -0.6500
vn -0.7971 -0.1869 -0.5741
vn -0.0757 -0.9201 0.3843
vn -0.1551 -0.6406 0.7520
vn 0.3081 -0.5797 0.7543
vn -0.0298 -0.8151 0.5785
vn 0.5961 -0.2163 0.7732
vn 0.3919 -0.4701 0.7908
vn 0.9038 0.1181 0.4112
vn 0.7194 0.0301 -0.6939
vn 0.8417 -0.3834 -0.3801
vn 0.2405 -0.7414 0.6264
vn 0.4786 -0.5855 0.6543
vn 0.4411 -0.8235 0.3565
vn -0.6698 0.4483 0.5919
vn -0.4613 0.1772 0.8694
vn 0.0892 0.2173 0.9720
vn -0.2861 0.9268 0.2434
vn -0.3797 0.8022 0.4607
vn -0.5627 0.7878 0.2503
vn -0.8718 -0.4129 0.2636
vn -0.7644 -0.2628 0.5888
vn -0.9852 -0.0084 0.1710
vn -0.1771 -0.2165 0.9601
vn -0.7871 -0.1128 0.6064
vn 0.1705 -0.2599 0.9504
vn 0.8135 0.3081 0.4932
vn 0.9123 0.3883 0.1301
vn 0.7841 0.3576 -0.5071
vn 0.0410 0.8691 -0.4929
vn -0.2502 0.6844 -0.6848
vn -0.3238 0.7717 -0.5473
vn -0.0745 0.7836 -0.6167
vn 0.8532 0.2190 -0.4734
vn 0.9783 0.1053 -0.1781
vn 0.8862 -0.2717 0.3752
vn -0.6538 0.2105 -0.7268
vn -0.6565 0.1563 -0.7380
vn -0.5390 0.3770 -0.7532
vn -0.4619 0.4157 -0.7835
vn -0.1997 0.8069 -0.5559
vn -0.9639 0.1280 -0.2333
vn -0.6691 -0.2731 0.6912
vn -0.9210 0.2703 0.2803
vn -0.9801 0.1880 -0.0638
vn 0.7692 0.1115 -0.6292
vn 0.7839 0.1382 -0.6053
vn 0.5387 0.3809 -0.7514
vn 0.4784 0.3134 -0.8203
vn -0.6981 0.5999 -0.3909
vn -0.7468 0.4995 -0.4391
vn 0.0254 0.2648 -0.9640
vn -0.1690 0.7632 -0.6236
vn 0.4183 0.5748 -0.7033
vn -0.8068 -0.2622 0.5295
vn -0.7727 -0.1554 0.6154
vn 0.2478 -0.1926 0.9495
vn 0.0233 -0.1847 0.9825
vn 0.6545 -0.6798 0.3308
vn 0.2499 -0.7569 0.6038
vn 0.7960 0.0744 0.6007
vn 0.9460 0.1324 0.2958
vn 0.7088 0.5624 0.4258
vn 0.1242 0.1562 0.9799
vn 0.1478 0.2073 0.9670
vn 0.5050 -0.3952 0.7673
vn 0.4968 -0.2139 0.8410
vn 0.5196 -0.4717 0.7123
vn 0.8263 0.0207 -0.5629
vn 0.9048 0.0583 -0.4219
vn -0.1434 0.1865 -0.9719
vn -0.0997 0.3291 -0.9390
vn -0.7088 0.5722 -0.4125
vn -0.8173 0.5761 0.0078
vn -0.6198 0.6782 -0.3948
vn 0.6381 0.1653 0.7520
vn 0.7838 0.0761 0.6163
vn 0.5307 0.1274 0.8379
vn 0.5894 0.1443 0.7948
vn -0.1191 -0.2261 0.9668
vn 0.0488 -0.3518 0.9348
vn -0.2936 -0.3408 0.8931
vn -0.7928 -0.1301 0.5954
vn -0.8528 -0.2453 0.4609
vn -0.3372 -0.3517 0.8733
vn -0.9947 0.0160 -0.1011
vn -0.9424 0.3277 0.0658
vn -0.8422 0.1437 0.5195
vn -0.9612 -0.0245 0.2747
vn -0.8535 0.0339 0.5200
vn 0.0222 -0.2449 0.9693
vn 0.2531 0.0088 0.9674
vn 0.2259 -0.0004 0.9741
vn 0.6023 -0.6656 0.4406
vn 0.8920 -0.2136 -0.3984
vn 0.9385 -0.0901 -0.3331
vn 0.9094 -0.3947 -0.1313
vn 0.7152 -0.6226 0.3175
vn 0.5899 -0.5658 0.5761
vn 0.3692 -0.0743 -0.9264
vn -0.9453 0.1508 -0.2891
vn -0.9419 -0.0125 -0.3355
vn -0.8171 0.0600 -0.5733
vn -0.6962 0.2833 -0.6596
vn -0.8495 0.1631 -0.5017
vn -0.8035 -0.1946 -0.5626
vn 0.0515 0.3739 -0.9260
vn -0.4111 0.0641 -0.9093
vn 0.4886 0.3464 -0.8008
vn 0.1446 0.1830 -0.9724
vn 0.3279 0.2061 -0.9219
vn -0.6572 0.6497 0.3819
vn -0.8695 0.3755 0.3208
vn -0.7865 0.5423 0.2956
vn -0.9432 0.2603 -0.2063
vn 0.3869 0.2232 -0.8947
vn 0.4855 0.3825 -0.7861
vn 0.1480 -0.0758 -0.9861
vn 0.8677 0.3772 -0.3238
vn 0.9876 -0.0378 0.1520
vn 0.6601 0.5801 -0.4772
vn -0.9666 -0.1229 0.2250
vn -0.7872 0.1410 0.6004
vn -0.8056 0.3915 0.4446
vn -0.9098 0.3973 -0.1200
vn -0.4806 0.8399 0.2520
vn 0.4602 0.0901 0.8832
vn 0.2169 -0.2248 0.9499
vn 0.2476 0.3317 0.9103
vn 0.4422 -0.7264 0.5261
vn 0.6305 -0.2614 0.7308
vn 0.9113 -0.1290 -0.3909
vn 0.4637 -0.1110 -0.8790
vn 0.6507 -0.2347 -0.7222
vn 0.2587 0.3507 0.9001
vn 0.2086 0.3904 0.8967
vn 0.2725 0.9621 -0.0117
vn 0.8885 -0.2757 0.3667
vn 0.9619 -0.0730 0.2634
vn 0.9177 -0.2372 0.3186
vn 0.5129 -0.6700 0.5365
vn 0.6868 -0.6678 0.2870
vn 0.3196 -0.8837 0.3419
vn 0.2721 -0.2271 0.9351
vn 0.1470 -0.8076 0.5711
vn 0.2675 -0.4926 0.8281
vn -0.8206 0.3272 -0.4684
vn -0.5631 -0.2346 -0.7924
vn 0.0078 0.0857 0.9963
vn 0.4349 -0.0788 0.8970
vn 0.2552 0.0360 0.9662
vn -0.7154 0.3830 0.5843
vn -0.4826 0.0530 0.8742
vn 0.7177 0.0338 0.6955
vn 0.7842 0.1353 0.6055
vn 0.6677 0.3451 0.6596
vn 0.4947 -0.1052 0.8626
vn -0.7769 0.3617 0.5153
vn 0.0696 -0.4419 0.8943
vn -0.4929 0.2816 -0.8233
vn -0.2725 0.3246 -0.9057
vn 0.1883 -0.4138 -0.8907
vn 0.2776 -0.4957 -0.8229
vn -0.0291 -0.4884 -0.8721
vn 0.0336 0.0622 -0.9975
vn 0.2632 -0.5366 -0.8017
vn -0.9970 -0.0719 0.0265
vn -0.9595 -0.2763 0.0548
vn 0.3121 0.0103 0.9500
vn 0.4787 0.2054 0.8536
vn 0.4733 -0.1520 0.8676
vn 0.7632 0.4786 0.4339
vn 0.8072 0.0049 0.5902
vn 0.8068 0.3818 0.4508
vn -0.1958 -0.1457 0.9697
vn -0.0876 0.0117 0.9961
vn 0.1147 -0.2888 0.9505
vn 0.6306 0.0416 -0.7749
vn 0.5531 0.2500 -0.7947
vn -0.4357 0.1661 0.8846
vn -0.8666 -0.2305 0.4424
vn -0.5807 0.3311 0.7437
vn -0.2215 0.9751 0.0046
vn -0.0323 0.9976 0.0609
vn 0.3758 -0.4593 -0.8048
vn -0.4349 0.4649 0.7711
vn -0.7897 0.6135 -0.0039
vn -0.9266 0.3364 0.1682
vn -0.9014 0.0680 -0.4276
vn -0.8420 -0.0147 -0.5392
vn -0.3681 -0.0694 0.9272
vn -0.2266 -0.1312 0.9651
vn 0.2177 -0.2449 0.9448
vn 0.4476 -0.7353 0.5088
vn 0.3993 -0.6493 0.6472
vn 0.1495 -0.9456 0.2888
vn 0.7740 -0.0197 -0.6328
vn 0.8160 -0.2343 -0.5283
vn 0.5729 -0.6871 0.4468
vn 0.5770 -0.2314 0.7833
vn 0.2876 -0.4143 0.8635
vn 0.5887 -0.5260 0.6138
vn 0.9113 -0.4038 -0.0806
vn 0.6955 -0.7015 0.1554
vn -0.2749 0.1543 0.9490
vn -0.5085 0.1571 0.8466
vn -0.1859 -0.5238 0.8313
vn 0.6010 0.3189 -0.7328
vn 0.6240 0.2513 -0.7398
vn 0.3543 0.1941 -0.9147
vn 0.4600 -0.0324 -0.8873
vn 0.0457 0.0253 -0.9986
vn 0.1737 0.1800 -0.9682
vn 0.3326 -0.1208 -0.9353
vn 0.4675 -0.2452 -0.8493
vn 0.8581 -0.1160 0.5001
vn 0.8742 0.3229 0.3626
vn 0.6453 -0.0825 0.7594
vn 0.8160 -0.5720 0.0829
vn 0.6939 -0.4455 0.5657
vn 0.8947 -0.4421 -0.0633
vn 0.6377 -0.0980 0.7639
vn -0.6279 -0.3701 0.6846
vn -0.4926 -0.1507 0.8571
vn -0.2983 -0.2949 0.9077
vn 0.8356 0.2654 0.4809
vn 0.6827 -0.3780 0.6253
vn 0.6933 -0.2190 0.6866
vn 0.6550 0.6644 0.3599
vn 0.6750 0.5269 0.5164
vn 0.0995 0.1954 0.9756
vn 0.1983 0.4386 0.8765
vn 0.1552 -0.3927 0.9065
vn -0.1070 -0.0915 0.9900
vn 0.0411 -0.3283 0.9437
vn -0.3642 -0.7746 0.5170
vn -0.2050 -0.8362 0.5086
vn -0.1263 -0.8637 0.4879
vn 0.0001 -0.6680 0.7441
vn -0.1191 -0.6153 0.7793
vn 0.5298 -0.2759 0.8020
vn 0.0941 0.7494 -0.6554
vn -0.0322 0.3984 -0.9166
vn 0.2191 0.6702 -0.7091
vn -0.1264 -0.2748 -0.9531
vn -0.2681 -0.1897 -0.9445
vn -0.8667 0.2082 0.4534
vn -0.9096 0.0123 0.4152
vn -0.9098 -0.1498 0.3869
vn -0.9980 -0.0483 -0.0415
vn -0.6492 -0.1598 0.7436
vn -0.7110 0.1241 0.6922
vn -0.6786 -0.3339 0.6542
vn -0.3818 -0.0477 0.9230
vn -0.9943 0.0053 0.1068
vn -0.2208 -0.6305 -0.7440
vn -0.4724 -0.5643 -0.6770
vn -0.3562 -0.5874 -0.7267
vn 0.1734 -0.0696 -0.9824
vn 0.5754 -0.1079 -0.8107
vn -0.2955 -0.3913 -0.8715
vn -0.2410 0.2675 -0.9329
vn -0.0092 0.4925 -0.8702
vn -0.9960 0.0648 0.0617
vn -0.8993 0.4174 0.1299
vn -0.7335 0.6263 -0.2638
vn 0.6063 0.0656 0.7925
vn 0.6493 -0.4948 0.5776
vn 0.6248 -0.2143 0.7507
vn -0.8354 -0.5190 -0.1807
vn -0.7667 -0.2660 -0.5842
vn -0.6831 -0.5893 0.4313
vn -0.7879 -0.4725 0.3948
vn 0.0702 0.5855 0.8076
vn -0.1775 0.7015 0.6902
vn -0.2612 0.0255 0.9649
vn -0.5260 0.3065 0.7932
vn -0.8629 -0.3928 -0.3179
vn -0.7988 -0.5554 -0.2309
vn -0.6598 -0.7050 -0.2598
vn -0.2757 -0.7331 0.6217
vn 0.9972 -0.0649 -0.0370
vn 0.9729 -0.1310 0.1906
vn -0.1141 0.1243 0.9857
vn 0.1177 0.3803 0.9173
vn -0.5072 0.2413 0.8273
vn -0.8798 -0.0377 -0.4739
vn -0.5550 -0.6984 0.4518
vn -0.8029 0.0354 0.5950
vn 0.8189 0.5739 -0.0094
vn 0.6435 0.7258 0.2430
vn 0.0697 -0.4494 0.8906
vn -0.0542 -0.3975 0.9160
vn -0.1043 0.9925 -0.0640
vn 0.3747 0.8823 -0.2848
vn 0.4574 0.8402 0.2913
vn -0.5075 0.1456 0.8492
vn -0.6928 0.0439 0.7197
vn -0.7563 0.2593 0.6005
vn -0.4282 -0.0494 0.9023
vn -0.2186 0.0445 0.9748
vn -0.7814 -0.3788 0.4959
vn -0.5828 -0.6178 0.5278
vn -0.5420 -0.5200 0.6602
vn -0.5550 0.3344 0.7617
vn -0.8358 0.1826 0.5177
vn -0.6901 -0.2199 0.6895
vn 0.8560 -0.0419 0.5152
vn 0.9160 0.3941 -0.0740
vn 0.8579 -0.2257 -0.4616
vn 0.7941 -0.6076 0.0139
vn 0.9403 -0.2571 0.2227
vn 0.3293 0.1958 -0.9237
vn 0.3731 -0.1465 -0.9161
vn 0.1163 -0.1629 -0.9797
vn 0.4866 -0.0249 -0.8732
vn 0.1793 0.1113 -0.9774
vn -0.6758 0.2701 0.6858
vn -0.2138 0.4099 0.8867
vn -0.3291 0.1572 0.9311
vn -0.5784 0.2045 0.7897
vn -0.5738 0.0852 0.8145
vn -0.2150 0.1149 0.9698
vn -0.8729 -0.0630 0.4838
vn -0.6259 -0.3422 0.7007
vn -0.7856 -0.4021 0.4703
vn 0.4627 -0.4343 0.7728
vn -0.1267 -0.6266 0.7689
vn -0.3235 0.2715 0.9064
vn -0.7470 -0.3174 0.5841
vn -0.3056 -0.6314 0.7127
vn -0.9749 -0.2018 -0.0944
vn -0.8884 -0.0589 -0.4553
vn -0.8699 -0.4774 -0.1238
vn -0.4598 0.1818 0.8692
vn -0.4576 -0.0155 0.8890
vn 0.6215 0.1038 0.7765
vn 0.9057 -0.2561 0.3378
vn 0.7161 -0.0859 0.6927
vn 0.1564 0.7424 0.6514
vn 0.4476 0.7324 0.5130
vn 0.1304 0.7772 0.6156
vn 0.9252 -0.1545 -0.3467
vn 0.8809 -0.3655 0.3008
vn 0.9367 -0.0380 0.3479
vn 0.4270 0.2095 0.8796
vn 0.2293 0.8083 -0.5423
vn 0.3408 0.6985 -0.6292
vn -0.3117 -0.7022 0.6401
vn -0.0139 -0.7076 0.7065
vn -0.2463 0.2093 0.9463
vn -0.9887 0.0515 0.1403
vn -0.7226 0.1572 -0.6731
vn 0.7497 0.6524 0.1107
vn 0.5921 0.6789 0.4342
vn 0.4671 0.8815 0.0691
vn -0.3941 0.8399 -0.3730
vn -0.5810 0.7934 -0.1818
vn 0.9427 -0.0474 0.3302
vn 0.6972 -0.1568 0.6995
vn 0.5987 -0.0089 0.8009
vn 0.4714 0.8146 -0.3379
vn 0.3388 0.8767 -0.3414
vn 0.8734 -0.4684 0.1333
vn 0.3394 -0.7476 0.5708
vn 0.4955 -0.2765 0.8234
vn 0.6940 -0.1437 0.7055
vn -0.8524 -0.3059 0.4241
vn -0.8061 -0.2918 0.5147
vn -0.7268 -0.4693 0.5015
vn -0.6026 -0.7051 0.3737
vn -0.4806 -0.5713 0.6653
vn -0.2884 0.9495 0.1234
vn -0.1099 0.9547 -0.2765
vn -0.1712 0.9392 -0.2975
vn -0.3526 0.7261 -0.5903
vn -0.5952 0.3012 0.7450
vn 0.3374 -0.5788 0.7424
vn 0.4447 -0.4908 0.7492
vn 0.5845 -0.0993 0.8053
vn -0.0269 -0.7500 0.6609
vn -0.0305 -0.6666 0.7447
vn -0.8900 0.4081 -0.2031
vn -0.9980 0.0579 0.0231
vn -0.8202 0.4973 0.2828
vn -0.9498 0.0671 0.3054
vn -0.8871 -0.3649 0.2824
vn -0.9758 -0.0578 -0.2108
vn -0.5100 0.8554 -0.0901
vn -0.3941 0.8780 0.2715
vn -0.6600 0.7471 0.0784
vn -0.5929 0.7786 -0.2054
vn -0.4780 0.8737 -0.0902
vn 0.1363 0.3403 0.9304
vn 0.3368 0.3246 0.8838
vn 0.3831 0.4776 0.7906
vn -0.1944 -0.4648 0.8638
vn -0.4703 -0.5880 0.6581
vn 0.6950 -0.3516 -0.6271
vn 0.8305 -0.4866 -0.2711
vn -0.6465 -0.2120 0.7328
vn -0.7461 -0.0385 0.6647
vn -0.8038 -0.0980 0.5868
vn -0.3000 0.0222 0.9536
vn -0.4975 -0.1967 0.8449
vn -0.3732 -0.3141 0.8730
vn -0.1002 -0.3748 -0.9217
vn 0.2184 -0.6588 -0.7199
vn -0.2974 -0.0659 -0.9525
vn -0.6178 0.1596 -0.7700
vn 0.5485 -0.7848 0.2884
vn 0.1511 -0.8399 0.5213
vn -0.0779 -0.8919 0.4454
vn -0.1322 -0.3553 0.9254
vn -0.6107 0.1154 0.7834
vn 0.1964 0.2879 0.9373
vn 0.3749 0.9267 0.0253
vn -0.7251 -0.1419 0.6739
vn -0.9185 -0.3755 -0.1235
vn -0.6079 -0.3714 -0.7018
vn -0.8032 -0.5514 -0.2256
vn 0.1840 -0.7114 0.6782
vn 0.3153 -0.7311 0.6050
vn 0.3639 -0.0277 0.9310
vn 0.1874 -0.0203 0.9821
vn 0.5140 0.2780 0.8115
vn 0.2278 0.4225 0.8773
vn 0.2818 0.4721 0.8352
vn -0.6549 0.6062 -0.4512
vn -0.6995 0.5184 -0.4918
vn -0.8145 0.5366 -0.2205
vn -0.5388 0.1762 0.8238
vn -0.2111 0.1749 0.9617
vn -0.1329 -0.2432 0.9608
vn -0.0153 -0.5168 0.8559
vn -0.7701 -0.2380 -0.5918
vn -0.6740 -0.5972 -0.4346
vn -0.7484 -0.6319 -0.2014
vn -0.6048 -0.6443 -0.4679
vn -0.7353 -0.6368 -0.2318
vn 0.3970 -0.8962 0.1979
vn 0.9632 0.0683 0.2599
vn 0.5722 -0.1064 0.8131
vn 0.2829 -0.4743 0.8336
vn -0.5405 0.0605 0.8391
vn -0.5891 0.1134 0.8001
vn 0.9736 -0.0816 0.2129
vn 0.5007 -0.6421 -0.5805
vn 0.1183 -0.3029 -0.9456
vn -0.9971 0.0704 0.0276
vn -0.1379 0.2417 0.9605
vn 0.6029 0.1395 0.7855
vn 0.2359 0.1866 0.9537
vn 0.4064 0.3144 0.8579
vn -0.0793 -0.4470 0.8910
vn -0.1485 0.1033 0.9835
vn 0.0989 -0.5572 0.8245
vn 0.3767 0.2812 0.8826
vn 0.5655 0.3276 0.7568
vn 0.8469 0.2563 0.4659
vn -0.9275 -0.0684 0.3674
vn -0.6733 0.0103 0.7393
vn -0.8539 -0.0821 0.5138
vn -0.1708 -0.8018 0.5725
vn 0.0724 -0.6777 0.7317
vn -0.0524 -0.9185 0.3918
vn 0.2848 -0.6683 0.6872
vn 0.0504 -0.6496 0.7586
vn 0.4437 -0.6517 0.6151
vn -0.8560 -0.4693 0.2169
vn -0.8762 -0.4808 -0.0342
vn -0.9771 -0.2126 -0.0117
vn -0.4322 0.3402 0.8351
vn -0.7714 0.5383 0.3392
vn -0.7498 -0.3014 0.5889
vn -0.7939 -0.3649 0.4863
vn -0.6123 -0.5386 0.5788
vn -0.5757 0.0792 -0.8138
vn -0.6864 0.1899 -0.7020
vn 0.2222 -0.8229 -0.5229
vn 0.2051 -0.8380 -0.5056
vn 0.0639 0.5480 -0.8340
vn 0.2785 0.4669 -0.8393
vn -0.9109 -0.4010 0.0971
vn -0.9518 -0.1645 -0.2589
vn -0.2806 -0.0043 0.9598
vn -0.3577 -0.3110 0.8805
vn -0.1375 -0.4238 0.8952
vn -0.6222 -0.1447 0.7694
vn -0.7186 -0.1464 0.6798
vn -0.7009 -0.7120 -0.0421
vn -0.4819 -0.8686 0.1150
vn -0.7907 -0.4765 -0.3842
vn 0.2312 -0.1327 -0.9638
vn 0.0938 -0.0035 -0.9956
vn 0.1284 -0.1184 -0.9846
vn 0.8401 -0.5414 0.0337
vn 0.6927 0.3387 -0.6368
vn 0.7649 0.5862 -0.2669
vn 0.8606 0.2433 -0.4474
vn 0.8986 -0.0395 -0.4369
vn -0.3265 -0.2877 0.9003
vn -0.1877 -0.0818 0.9788
vn -0.4176 0.0450 0.9075
vn 0.0477 -0.7992 0.5991
vn 0.9189 0.3364 0.2058
vn 0.2794 0.8566 0.4337
vn 0.7821 0.4999 0.3720
vn 0.1572 0.9472 0.2793
vn -0.1618 -0.3322 0.9292
vn -0.2611 -0.5324 0.8052
vn -0.4503 0.3032 0.8398
vn -0.5831 0.4495 0.6767
vn 0.1422 0.9375 -0.3176
vn -0.6328 0.7743 0.0014
vn -0.2044 0.0285 -0.9785
vn -0.5424 0.2407 -0.8049
vn -0.7601 0.1252 -0.6376
vn -0.0467 0.4227 -0.9051
vn -0.9895 -0.1286 -0.0660
vn -0.9434 0.1275 -0.3060
vn -0.9916 0.0077 -0.1291
vn 0.9137 -0.3966 0.0883
vn 0.8790 -0.0828 -0.4695
vn 0.9572 0.2420 -0.1585
vn 0.3989 0.1145 -0.9098
vn -0.8168 -0.3772 -0.4364
vn -0.4882 -0.2261 -0.8429
vn -0.8472 -0.5278 0.0605
vn -0.9752 0.1672 -0.1446
vn 0.5465 0.7164 0.4336
vn 0.8485 -0.4401 0.2936
vn 0.6167 -0.6285 0.4739
vn 0.9896 -0.0495 0.1347
vn 0.9019 -0.1179 0.4156
vn 0.2387 -0.1336 0.9618
vn -0.2546 0.2220 0.9412
vn -0.7118 0.6792 -0.1785
vn -0.7871 0.5553 0.2685
vn -0.9778 -0.0686 0.1978
vn -0.3131 -0.8415 0.4401
vn -0.3468 -0.9377 -0.0185
vn 0.2926 -0.6372 0.7129
vn 0.6416 -0.0831 -0.7625
vn 0.7315 -0.1255 -0.6701
vn 0.5846 -0.1021 -0.8048
vn 0.7894 0.4234 -0.4445
vn 0.4662 0.1397 -0.8735
vn 0.7292 0.5378 -0.4230
vn 0.2608 0.2041 -0.9436
vn 0.0046 0.5577 -0.8300
vn -0.0875 0.4797 -0.8730
vn 0.9405 -0.3290 0.0844
vn 0.7566 -0.6219 0.2019
vn 0.8885 -0.4233 -0.1770
vn 0.8300 -0.3515 -0.4330
vn 0.9518 -0.2785 -0.1285
vn 0.9230 -0.2323 0.3067
vn 0.7002 -0.6741 0.2352
vn 0.8102 -0.5603 0.1719
vn -0.0768 -0.9117 0.4035
vn -0.2509 -0.8600 0.4442
vn -0.1274 0.0388 -0.9911
vn 0.0997 -0.0479 -0.9938
vn 0.1798 0.0706 -0.9812
vn -0.5124 -0.5868 -0.6269
vn 0.3964 0.9174 0.0341
vn 0.2726 0.8754 -0.3991
vn -0.0045 0.9808 -0.1950
vn 0.3735 -0.1447 0.9163
vn 0.5242 -0.3296 0.7852
vn 0.3077 0.2004 0.9301
vn 0.8149 -0.3719 0.4445
vn 0.4866 -0.1763 0.8556
vn -0.1899 0.6301 0.7529
vn -0.4845 0.6091 0.6278
vn -0.0574 0.1531 0.9865
vn -0.4646 0.1851 0.8659
vn -0.2961 0.1727 0.9394
vn -0.5495 -0.1758 0.8168
vn -0.1749 0.5781 -0.7970
vn -0.1043 0.0228 -0.9943
vn -0.6152 0.7345 0.2863
vn -0.4922 0.6965 0.5220
vn -0.0677 0.7962 0.6012
vn -0.0120 0.2170 0.9761
vn -0.1044 -0.0467 0.9934
vn -0.0711 0.1632 0.9840
vn -0.3924 0.3319 0.8578
vn -0.9183 0.2951 0.2637
vn -0.9706 0.0283 0.2391
vn -0.2017 -0.5072 -0.8378
vn -0.3902 -0.1077 -0.9144
vn -0.4884 -0.1857 -0.8526
vn -0.7769 -0.2414 -0.5815
vn -0.8068 0.0325 -0.5899
vn 0.0228 0.3265 0.9449
vn -0.4062 0.4603 0.7894
vn -0.2399 -0.1183 0.9636
vn -0.4367 0.2969 0.8492
vn -0.6696 0.2408 0.7025
vn 0.5733 0.0493 -0.8178
vn 0.8771 -0.3028 -0.3727
vn -0.9270 -0.2786 0.2511
vn -0.6760 -0.4147 0.6091
vn -0.7469 -0.6069 -0.2715
vn 0.2265 -0.6138 0.7562
vn 0.3822 -0.3718 0.8459
vn 0.5750 -0.3543 0.7374
vn 0.4619 0.4941 -0.7366
vn 0.4864 0.0042 -0.8737
vn 0.2847 0.2681 0.9203
vn -0.5922 0.2251 0.7737
vn -0.7993 0.5822 0.1488
vn -0.8570 0.3146 0.4081
vn 0.5820 -0.0260 0.8127
vn 0.4462 -0.1560 0.8812
vn 0.4689 -0.3144 0.8254
vn 0.2454 0.0697 0.9669
vn -0.4312 0.1934 0.8813
vn -0.2395 -0.0088 0.9709
vn -0.4709 -0.2295 0.8518
vn -0.4828 -0.2544 0.8379
vn 0.6105 0.4767 -0.6325
vn -0.2700 0.3054 0.9131
vn 0.3009 -0.7769 0.5530
vn 0.3937 -0.8384 0.3768
vn 0.6617 -0.2095 -0.7199
vn 0.9536 -0.2710 0.1312
vn 0.9734 -0.1635 0.1605
vn -0.9817 -0.1674 -0.0911
vn -0.9974 0.0139 -0.0699
vn -0.1665 0.3806 0.9096
vn -0.3853 -0.2720 0.8818
vn -0.5094 0.0396 0.8596
vn -0.1545 -0.1314 0.9792
vn -0.2716 0.1194 0.9550
vn 0.1503 -0.2545 0.9553
vn 0.4702 0.3459 0.8119
vn -0.1429 -0.2422 0.9596
vn 0.6735 -0.0590 0.7367
vn -0.9525 -0.2268 -0.2034
vn -0.9620 0.0625 -0.2658
vn -0.8192 -0.5553 0.1427
vn -0.6988 -0.6176 0.3607
vn -0.8112 -0.4588 -0.3626
vn 0.9326 0.3568 -0.0528
vn 0.8615 0.4264 0.2756
vn 0.9581 -0.1502 0.2438
vn 0.9484 0.1646 0.2709
vn 0.0711 -0.5471 0.8340
vn -0.4571 -0.2326 0.8584
vn -0.5237 -0.4368 0.7314
vn -0.1289 -0.1685 0.9772
vn 0.0497 -0.4629 0.8850
vn -0.0743 -0.6169 0.7835
vn 0.6350 0.1171 -0.7636
vn 0.4330 0.2124 -0.8760
vn -0.0221 -0.1654 -0.9860
vn 0.2842 -0.0638 -0.9566
vn -0.0689 0.9933 0.0926
vn 0.0371 0.9920 -0.1202
vn 0.1048 -0.0770 0.9915
vn -0.6005 -0.1109 0.7919
vn -0.4127 0.0005 0.9108
vn 0.0961 0.5354 0.8391
vn -0.1824 0.5046 0.8438
vn -0.0646 0.4328 0.8991
vn -0.5998 -0.2040 0.7737
vn -0.9378 0.1411 0.3171
vn -0.9476 0.2041 0.2456
vn -0.8545 -0.1917 0.4827
vn 0.8921 0.3548 -0.2795
vn 0.7495 0.5074 -0.4252
vn 0.9186 0.3865 -0.0824
vn 0.6392 0.2858 -0.7139
vn 0.5764 0.3796 -0.7236
vn 0.7957 0.0926 -0.5985
vn 0.8560 0.3879 -0.3415
vn 0.7430 0.4247 -0.5172
vn 0.9748 0.1666 -0.1483
vn 0.3440 -0.3121 -0.8856
vn 0.4095 -0.1926 -0.8917
vn -0.9939 0.0114 -0.1096
vn -0.9575 -0.1911 0.2159
vn -0.9974 0.0697 0.0182
vn 0.9224 -0.0682 -0.3801
vn 0.9174 -0.3695 -0.1478
vn 0.8897 -0.3957 0.2275
vn 0.7649 0.0462 -0.6425
vn 0.8699 -0.2475 -0.4266
vn -0.9622 0.1162 0.2462
vn -0.8463 0.3196 -0.4262
vn -0.7705 -0.0028 0.6374
vn -0.9231 0.1668 0.3465
vn -0.7473 0.6014 -0.2826
vn -0.4859 0.1826 -0.8547
vn -0.4758 0.4066 -0.7799
vn -0.4085 0.1130 -0.9057
vn -0.9968 -0.0706 0.0370
vn -0.9604 -0.2651 0.0851
vn -0.9776 -0.1028 -0.1835
vn -0.0217 -0.5054 0.8625
vn 0.2041 -0.3258 0.9231
vn -0.0419 -0.0900 0.9950
vn 0.6812 -0.3042 0.6659
vn 0.7029 -0.1341 -0.6985
vn 0.8110 -0.3298 -0.4831
vn 0.2957 -0.2670 -0.9172
vn 0.3109 -0.4017 -0.8613
vn 0.5175 0.8437 0.1427
vn -0.0733 0.9772 0.1993
vn 0.1460 0.9604 0.2373
vn 0.2375 0.1122 0.9648
vn 0.6331 0.2344 0.7377
vn 0.2038 0.5387 0.8175
vn 0.7528 -0.6134 0.2386
vn 0.9668 -0.0605 -0.2483
vn 0.4581 0.2778 0.8443
vn 0.5832 0.3268 0.7436
vn 0.1112 -0.0627 0.9918
vn 0.1101 -0.0741 0.9911
vn -0.0935 -0.7134 0.6944
vn -0.3988 0.2918 -0.8693
vn 0.2078 -0.9115 -0.3548
vn 0.2513 -0.8356 -0.4885
vn 0.2230 -0.9000 -0.3744
vn -0.8350 -0.1622 -0.5257
vn -0.4252 0.0791 -0.9016
vn -0.2583 0.4004 -0.8791
vn -0.2723 0.3639 -0.8907
vn 0.5015 0.4728 -0.7245
vn 0.6941 0.7173 0.0608
vn 0.3067 0.9450 -0.1136
vn 0.9731 0.1184 -0.1978
vn 0.6126 0.6514 -0.4476
vn -0.3902 -0.8283 0.4021
vn 0.2051 -0.1181 -0.9716
vn 0.4059 -0.3566 -0.8415
vn 0.3793 -0.3086 -0.8722
vn 0.4870 -0.1000 -0.8676
vn 0.3292 0.0220 -0.9440
vn -0.8662 -0.0940 0.4907
vn -0.9035 -0.0201 0.4281
vn -0.1404 0.3416 0.9293
vn -0.2760 -0.5787 0.7674
vn -0.3583 -0.5117 0.7808
vn -0.3677 -0.3535 0.8601
vn 0.0101 0.9956 0.0927
vn -0.3445 0.8947 0.2844
vn 0.3388 0.7935 0.5055
vn 0.9028 -0.2726 0.3326
vn -0.6200 -0.1102 0.7768
vn -0.7621 -0.0587 0.6448
vn 0.7751 -0.1485 0.6141
vn 0.6983 -0.2099 0.6843
vn -0.9204 -0.3401 0.1926
vn -0.6642 -0.7261 0.1779
vn -0.4737 -0.7804 0.4080
vn -0.4190 -0.8154 0.3994
vn -0.4508 -0.8178 0.3578
vn -0.4554 0.4834 0.7476
vn 0.5036 0.2378 0.8305
vn 0.4439 0.4248 0.7890
vn -0.0797 -0.4876 0.8694
vn -0.2444 -0.3266 0.9130
vn 0.0599 -0.6573 0.7512
vn -0.7065 -0.6746 -0.2139
vn -0.7164 -0.1908 -0.6711
vn -0.9453 -0.2200 -0.2409
vn 0.7369 0.3108 0.6003
vn 0.4637 -0.6820 0.5655
vn -0.8893 0.3096 -0.3365
vn 0.9922 -0.0297 -0.1207
vn -0.1137 0.3936 0.9122
vn -0.3309 0.4939 0.8041
vn -0.7922 0.3333 0.5112
vn -0.0866 -0.1935 0.9773
vn -0.0994 0.4974 0.8618
vn 0.5147 0.0009 0.8574
vn 0.4855 -0.0781 0.8707
vn 0.0645 -0.1704 0.9832
vn 0.3577 0.0194 0.9336
vn 0.1778 -0.3769 0.9090
vn -0.3326 -0.3115 0.8901
vn -0.2455 -0.3952 0.8851
vn -0.9058 0.2164 0.3641
vn -0.3783 0.0523 0.9242
vn -0.2105 0.0507 0.9763
vn 0.1104 -0.6980 -0.7075
vn -0.4060 -0.6245 -0.6672
vn 0.0834 -0.5895 -0.8034
vn -0.2115 -0.6031 -0.7691
vn -0.0553 -0.8555 -0.5148
vn -0.6035 -0.5941 -0.5318
vn -0.9013 0.3229 -0.2888
vn -0.7635 0.3812 -0.5213
vn -0.7853 0.2296 -0.5749
vn -0.8390 0.0905 -0.5365
vn 0.4925 -0.4357 -0.7534
vn 0.5655 -0.0609 -0.8225
vn 0.4734 -0.5433 -0.6933
vn 0.3839 -0.9221 0.0489
vn 0.2681 -0.9291 -0.2548
vn 0.7137 -0.6310 -0.3042
vn 0.9049 -0.1737 -0.3885
vn 0.7692 -0.6389 -0.0083
vn 0.9544 0.0327 0.2967
vn 0.8516 -0.0317 0.5232
vn -0.7721 0.1169 -0.6245
vn -0.8558 0.1986 -0.4776
vn -0.6765 0.4611 -0.5741
vn -0.7363 0.6610 0.1443
# 1877 vertex normals

o heliosbust_helios
g heliosbust_helios
s 1
f 1//1 2//2 3//3 
f 4//4 5//5 6//6 
f 7//7 8//8 9//9 
f 10//10 11//11 12//12 
f 13//13 14//14 15//15 
f 16//16 17//17 18//18 
f 19//19 20//20 21//21 
f 22//22 8//23 23//24 
f 24//25 25//26 26//27 
f 27//28 28//29 29//30 
f 30//31 31//32 32//33 
f 33//34 34//35 31//32 
f 35//36 36//37 37//38 
f 38//39 39//40 40//41 
f 41//42 42//43 43//44 
f 44//45 45//46 46//47 
f 47//48 48//49 49//50 
f 9//51 50//52 51//53 
f 52//54 53//55 16//16 
f 54//56 55//57 56//58 
f 57//59 28//29 58//60 
f 59//61 60//62 61//63 
f 62//64 63//65 64//66 
f 65//67 66//68 67//69 
f 10//10 12//70 68//71 
f 69//72 70//73 71//74 
f 72//75 73//76 74//77 
f 75//78 76//79 77//80 
f 78//81 79//82 80//83 
f 81//84 82//85 83//86 
f 84//87 85//88 86//89 
f 87//90 88//91 89//92 
f 90//93 91//94 92//95 
f 35//36 37//96 93//97 
f 94//98 95//99 96//100 
f 97//101 98//102 99//103 
f 2//2 1//1 100//104 
f 101//105 102//106 103//107 
f 104//108 105//109 106//110 
f 107//111 108//112 9//9 
f 48//49 47//48 109//113 
f 29//30 28//29 57//114 
f 110//115 111//116 112//117 
f 113//118 114//119 115//120 
f 116//121 117//122 118//123 
f 119//124 71//125 70//126 
f 120//127 121//128 67//129 
f 122//130 17//17 16//16 
f 123//131 124//132 125//133 
f 126//134 127//135 124//136 
f 76//79 128//137 129//138 
f 130//139 131//140 20//20 
f 132//141 133//142 134//143 
f 135//144 136//145 26//146 
f 29//147 137//148 27//28 
f 138//149 139//150 140//151 
f 141//152 38//153 142//154 
f 143//155 144//156 145//157 
f 146//158 147//159 148//160 
f 149//161 150//162 68//163 
f 151//164 117//165 152//166 
f 153//167 39//40 38//168 
f 154//169 155//170 82//171 
f 156//172 157//173 158//174 
f 159//175 160//176 161//177 
f 162//178 163//179 164//180 
f 6//6 85//88 165//181 
f 166//182 167//183 168//184 
f 118//185 3//3 169//186 
f 170//187 171//188 172//189 
f 173//190 106//191 105//192 
f 174//193 156//172 158//194 
f 22//195 23//196 175//197 
f 176//198 177//199 178//200 
f 101//105 103//201 144//202 
f 179//203 121//204 120//205 
f 91//206 41//207 43//208 
f 180//209 181//210 182//211 
f 111//212 110//115 183//213 
f 184//214 185//215 186//216 
f 187//217 188//218 189//219 
f 173//190 105//220 190//221 
f 191//222 139//223 192//224 
f 193//225 194//226 89//227 
f 195//228 13//229 196//230 
f 197//231 198//232 199//233 
f 200//234 201//235 202//236 
f 203//237 129//238 56//239 
f 204//240 205//241 206//242 
f 66//243 207//244 208//245 
f 171//246 170//187 209//247 
f 210//248 31//32 30//31 
f 211//249 212//250 213//251 
f 146//158 211//249 213//251 
f 115//252 214//253 113//254 
f 110//255 112//256 215//257 
f 24//25 216//258 25//26 
f 168//184 167//183 217//259 
f 218//260 219//261 220//262 
f 107//263 221//264 108//265 
f 222//266 7//267 223//268 
f 134//143 94//98 96//100 
f 224//269 44//45 46//47 
f 225//270 226//271 227//272 
f 228//273 229//274 147//275 
f 230//276 231//277 232//278 
f 233//279 208//280 234//281 
f 235//282 236//283 237//284 
f 238//285 239//286 240//287 
f 241//288 51//289 95//290 
f 242//291 243//292 244//293 
f 163//294 245//295 246//296 
f 247//297 248//298 145//157 
f 249//299 250//300 247//301 
f 251//302 252//303 87//304 
f 253//305 254//306 151//164 
f 255//307 256//308 257//309 
f 258//310 255//311 259//312 
f 185//313 260//314 72//315 
f 159//316 261//317 262//318 
f 197//319 263//320 264//321 
f 265//322 238//323 240//324 
f 266//325 221//264 267//326 
f 55//327 268//328 269//329 
f 270//330 271//331 272//332 
f 273//333 137//334 274//335 
f 275//336 276//337 277//338 
f 61//339 60//62 278//340 
f 86//341 5//342 45//343 
f 279//344 280//345 281//346 
f 282//347 283//348 284//349 
f 285//350 286//351 11//11 
f 287//352 288//353 289//354 
f 290//355 142//356 38//39 
f 150//162 291//357 292//358 
f 71//74 293//359 69//72 
f 41//207 91//94 90//360 
f 3//3 294//361 169//186 
f 295//362 296//363 297//364 
f 298//365 76//79 75//78 
f 38//153 299//366 153//367 
f 300//368 118//123 117//122 
f 77//80 203//369 301//370 
f 74//371 73//372 302//373 
f 175//197 23//196 277//374 
f 303//375 97//376 304//377 
f 305//378 306//379 215//380 
f 216//381 307//382 25//383 
f 258//384 259//385 308//386 
f 239//387 80//388 309//389 
f 159//390 161//391 261//392 
f 211//393 243//394 310//395 
f 44//396 224//397 311//398 
f 84//399 44//45 272//400 
f 47//48 49//50 312//401 
f 313//402 314//403 315//404 
f 62//405 316//406 317//407 
f 83//86 82//85 62//408 
f 96//100 95//99 79//409 
f 318//410 319//411 320//412 
f 321//413 179//203 120//205 
f 182//211 322//414 180//209 
f 21//415 323//416 19//417 
f 324//418 325//419 182//211 
f 93//97 326//420 35//421 
f 169//186 116//121 118//185 
f 125//422 124//423 327//424 
f 205//425 328//426 329//427 
f 330//428 331//429 104//430 
f 332//431 333//432 334//433 
f 335//434 138//435 140//436 
f 336//437 286//438 337//439 
f 18//18 52//54 16//16 
f 218//440 338//441 219//442 
f 184//443 186//444 283//445 
f 61//63 339//446 59//61 
f 100//104 340//447 2//2 
f 248//448 341//449 342//450 
f 343//451 344//452 345//453 
f 346//454 115//455 114//456 
f 123//457 125//458 279//459 
f 347//460 103//461 348//462 
f 349//463 36//37 350//464 
f 351//465 243//466 350//464 
f 94//98 352//467 95//99 
f 7//468 353//469 354//470 
f 355//471 24//472 356//473 
f 357//474 57//475 358//476 
f 297//477 359//478 360//479 
f 359//480 297//481 296//482 
f 85//483 361//484 362//485 
f 363//486 358//487 166//182 
f 92//488 209//489 170//490 
f 364//491 360//479 33//34 
f 283//348 183//492 284//493 
f 365//494 366//495 337//496 
f 367//497 368//498 119//499 
f 228//500 369//501 229//502 
f 370//503 51//289 371//504 
f 158//505 255//506 258//310 
f 372//507 24//508 26//27 
f 217//259 373//509 168//184 
f 53//510 173//511 190//221 
f 296//512 295//513 374//514 
f 375//515 376//516 197//517 
f 377//518 78//519 49//520 
f 61//521 278//522 275//523 
f 378//524 61//525 379//526 
f 380//527 170//528 172//189 
f 381//529 382//530 383//531 
f 384//532 208//280 233//279 
f 385//533 181//534 180//535 
f 193//225 89//536 88//537 
f 252//538 293//539 386//540 
f 145//541 387//542 142//543 
f 100//544 342//545 341//546 
f 250//547 249//548 388//549 
f 389//550 250//551 388//552 
f 390//553 291//554 150//555 
f 139//556 191//557 391//558 
f 176//559 275//336 277//338 
f 303//560 304//561 392//562 
f 62//563 393//564 316//565 
f 64//566 393//567 62//64 
f 56//568 394//569 395//570 
f 395//571 394//572 267//573 
f 246//574 245//295 396//575 
f 245//576 262//577 261//578 
f 195//579 14//580 13//581 
f 397//582 195//579 280//583 
f 289//584 288//585 398//586 
f 224//587 46//588 399//589 
f 220//590 219//591 400//592 
f 51//53 50//52 401//593 
f 402//594 160//176 159//175 
f 403//595 402//596 185//597 
f 404//598 405//599 406//600 
f 407//601 236//602 322//603 
f 222//604 223//605 408//606 
f 409//607 99//103 410//608 
f 22//22 269//609 8//23 
f 411//610 412//611 413//612 
f 15//613 14//614 4//615 
f 414//616 415//617 315//618 
f 338//619 416//620 106//191 
f 417//621 221//622 266//623 
f 418//624 152//166 117//625 
f 231//277 418//626 232//278 
f 240//627 419//628 154//629 
f 81//630 198//631 197//231 
f 112//632 378//524 215//633 
f 420//634 305//378 215//380 
f 421//635 39//636 153//637 
f 422//638 423//639 254//640 
f 329//641 328//642 327//643 
f 316//644 207//645 66//243 
f 302//646 202//647 74//648 
f 202//649 201//650 60//651 
f 22//22 424//652 269//609 
f 301//370 203//369 200//653 
f 65//654 348//655 327//656 
f 179//657 348//658 65//659 
f 226//660 311//661 425//662 
f 40//663 426//664 425//665 
f 279//344 102//666 280//667 
f 427//668 428//669 287//670 
f 137//334 273//333 366//671 
f 286//672 336//673 273//674 
f 429//675 204//676 206//677 
f 263//678 196//679 264//680 
f 332//681 334//682 430//683 
f 431//684 432//685 334//686 
f 422//638 254//687 253//688 
f 70//689 367//690 119//124 
f 181//210 324//691 182//211 
f 20//692 19//19 16//16 
f 353//693 51//694 241//695 
f 353//469 433//696 354//697 
f 434//698 435//699 213//700 
f 150//162 292//701 435//702 
f 283//703 436//704 437//705 
f 183//706 283//707 111//708 
f 438//709 439//710 390//711 
f 369//712 228//713 438//714 
f 272//715 89//716 270//717 
f 440//718 226//271 225//270 
f 271//719 362//485 361//720 
f 361//721 272//332 271//331 
f 95//99 80//83 79//409 
f 441//722 309//723 80//724 
f 431//684 76//725 298//726 
f 359//478 33//34 360//479 
f 442//727 443//728 131//729 
f 20//20 131//140 21//21 
f 231//730 444//731 445//732 
f 36//37 349//463 37//38 
f 34//733 298//365 75//78 
f 244//293 34//35 242//291 
f 314//403 414//616 315//618 
f 414//734 168//735 373//509 
f 164//736 446//737 162//738 
f 73//739 72//740 260//741 
f 306//742 305//743 307//382 
f 58//60 28//29 447//744 
f 17//745 157//746 18//18 
f 256//747 255//748 63//749 
f 127//135 448//750 124//751 
f 205//752 329//753 206//754 
f 449//755 118//756 299//757 
f 450//758 141//759 1//1 
f 246//296 77//760 163//294 
f 301//761 302//762 451//763 
f 11//764 452//765 453//766 
f 184//767 403//768 185//769 
f 142//356 398//770 143//771 
f 143//771 145//541 142//543 
f 247//297 145//157 144//156 
f 347//460 454//772 103//461 
f 24//773 372//507 455//774 
f 356//775 24//773 455//774 
f 343//776 136//777 135//778 
f 133//142 343//779 345//780 
f 274//781 456//782 138//783 
f 192//784 456//785 194//786 
f 128//787 56//239 129//238 
f 330//788 333//432 331//789 
f 457//790 458//791 366//495 
f 457//790 447//792 458//791 
f 12//793 335//794 68//71 
f 335//434 12//795 138//435 
f 276//796 175//797 277//798 
f 459//799 60//62 201//650 
f 196//679 13//800 264//801 
f 376//802 375//803 49//520 
f 365//804 337//805 460//806 
f 460//807 453//808 452//809 
f 154//169 419//810 155//170 
f 155//811 419//812 461//813 
f 177//814 378//815 379//816 
f 305//817 420//818 113//819 
f 407//820 237//284 236//821 
f 462//822 66//823 208//824 
f 463//825 345//826 344//827 
f 304//828 97//829 463//830 
f 118//123 300//368 299//757 
f 300//831 117//832 151//833 
f 464//834 322//835 182//836 
f 464//837 407//601 322//835 
f 210//248 30//31 465//838 
f 326//839 171//840 465//841 
f 132//842 26//146 133//142 
f 466//843 319//411 318//410 
f 104//844 331//845 105//109 
f 188//846 467//847 189//848 
f 43//44 42//849 249//548 
f 321//850 464//851 182//852 
f 109//113 318//410 320//853 
f 455//854 318//410 373//855 
f 351//465 350//464 36//37 
f 30//856 32//857 351//465 
f 214//858 115//859 135//860 
f 25//383 307//382 305//743 
f 257//861 259//312 255//862 
f 155//863 468//864 469//865 
f 423//866 421//867 254//868 
f 87//869 225//870 227//272 
f 221//871 470//872 108//873 
f 50//874 220//875 401//876 
f 436//877 283//878 186//879 
f 60//62 59//880 186//881 
f 293//882 252//538 69//883 
f 251//884 69//885 252//538 
f 350//886 148//887 349//463 
f 148//888 211//249 146//158 
f 49//889 48//49 377//518 
f 320//412 319//890 377//891 
f 45//892 397//893 471//894 
f 471//895 287//896 428//897 
f 472//898 473//899 474//900 
f 102//901 279//902 472//903 
f 53//510 52//54 173//511 
f 475//904 338//619 476//905 
f 18//906 475//907 476//905 
f 156//908 400//909 219//910 
f 412//911 411//912 107//263 
f 107//263 267//326 221//264 
f 159//913 185//597 402//596 
f 477//914 260//314 185//313 
f 84//399 86//341 44//45 
f 86//341 45//915 44//45 
f 478//916 161//917 212//918 
f 212//250 434//919 213//251 
f 169//920 479//921 93//922 
f 326//923 172//924 171//246 
f 123//925 279//926 281//927 
f 195//928 196//929 126//930 
f 480//931 31//932 210//933 
f 364//934 442//935 360//936 
f 229//937 119//938 368//939 
f 418//626 231//277 445//940 
f 197//941 481//942 81//943 
f 481//944 197//945 265//946 
f 482//947 8//8 7//948 
f 98//102 482//949 7//950 
f 53//55 20//692 16//16 
f 20//20 295//951 130//139 
f 358//476 57//475 483//952 
f 57//59 58//60 483//953 
f 203//954 56//58 55//57 
f 424//955 22//956 484//957 
f 384//958 235//959 237//960 
f 180//961 404//962 406//963 
f 122//964 233//965 63//966 
f 233//967 385//968 384//969 
f 137//148 29//147 362//485 
f 357//970 29//30 57//475 
f 146//971 438//972 228//973 
f 228//974 147//159 146//158 
f 396//975 245//976 261//578 
f 243//977 478//978 310//979 
f 258//980 308//981 461//982 
f 371//983 309//984 441//985 
f 91//206 43//208 325//419 
f 323//986 92//95 91//94 
f 413//987 269//988 268//989 
f 56//568 395//990 54//991 
f 358//476 483//952 485//992 
f 217//259 167//183 356//775 
f 4//4 6//6 165//181 
f 4//615 315//404 486//993 
f 145//541 342//994 387//542 
f 248//298 487//995 145//157 
f 241//996 95//997 352//998 
f 433//999 352//1000 354//697 
f 440//1001 89//716 272//715 
f 272//1002 44//396 311//1003 
f 221//871 218//1004 470//1005 
f 417//621 416//1006 221//622 
f 389//550 248//1007 488//1008 
f 488//1009 248//1010 247//297 
f 354//1011 223//268 7//267 
f 134//143 223//1012 94//1013 
f 489//1014 101//1015 144//1016 
f 288//585 489//1017 398//586 
f 116//1018 230//1019 232//1020 
f 169//920 93//922 490//1021 
f 70//1022 491//1023 367//690 
f 151//164 152//166 253//305 
f 81//1024 83//1025 198//1026 
f 316//1027 198//1028 317//1029 
f 392//1030 346//1031 114//1032 
f 277//1033 392//1034 176//1035 
f 492//1036 493//1037 402//1038 
f 402//1039 11//1040 492//1041 
f 469//1042 82//171 155//170 
f 257//1043 62//1044 82//1045 
f 100//104 1//1 141//1046 
f 142//154 387//1047 141//152 
f 77//80 129//1048 203//369 
f 76//79 129//138 77//80 
f 110//115 494//1049 183//213 
f 58//1050 494//1051 306//1052 
f 399//1053 427//1054 290//1055 
f 38//39 40//41 290//355 
f 133//142 345//780 134//143 
f 345//826 99//1056 409//1057 
f 150//1058 391//1059 390//1060 
f 150//1061 149//1062 140//1063 
f 164//1064 302//1065 73//1066 
f 495//1067 73//1068 446//1069 
f 51//1070 158//1071 371//1072 
f 174//193 158//194 51//1073 
f 454//1074 347//460 247//1075 
f 179//1076 496//1077 247//1078 
f 497//1079 275//1080 278//1081 
f 497//1082 459//1083 201//1084 
f 283//1085 282//1086 184//1087 
f 403//1088 184//1089 452//1090 
f 78//81 80//1091 265//1092 
f 49//520 78//1093 376//802 
f 273//1094 138//1095 12//1096 
f 273//1097 274//781 138//783 
f 498//1098 49//1099 375//803 
f 312//401 49//50 498//1100 
f 391//1101 191//1102 390//1103 
f 386//1104 390//1103 191//1105 
f 435//699 434//698 160//1106 
f 10//1107 68//1108 493//1109 
f 327//1110 66//1111 65//67 
f 66//1112 327//643 328//1113 
f 494//1114 365//1115 183//213 
f 284//1116 183//1117 365//1118 
f 316//1119 393//564 207//1120 
f 393//1121 64//566 234//1122 
f 154//1123 82//171 81//1124 
f 154//1125 81//1126 481//1127 
f 499//1128 381//1129 383//531 
f 381//1130 3//1131 42//1132 
f 4//615 486//1133 15//613 
f 415//1134 47//48 312//401 
f 460//1135 337//805 285//1136 
f 286//1137 285//1138 337//1139 
f 324//1140 16//1141 19//1142 
f 324//1140 19//1142 323//1143 
f 500//1144 148//1145 147//1146 
f 147//1147 229//1148 444//1149 
f 245//295 163//1150 162//1151 
f 262//1152 245//1153 162//1154 
f 316//1155 501//1156 198//1157 
f 328//1158 316//644 66//243 
f 472//1159 474//1160 348//1161 
f 327//656 348//1162 474//1163 
f 76//725 431//684 334//686 
f 76//725 334//433 333//432 
f 165//1164 85//88 313//402 
f 313//402 85//483 362//485 
f 69//1165 251//1166 70//1167 
f 422//1168 491//1169 70//1170 
f 274//1171 271//1172 270//717 
f 274//1173 270//1174 456//1175 
f 339//1176 112//1177 111//1178 
f 437//1179 111//708 283//707 
f 126//1180 196//1181 127//1182 
f 196//1183 263//1184 429//1185 
f 502//1186 420//1187 503//1188 
f 420//818 502//1189 113//1190 
f 407//1191 120//1192 67//1193 
f 67//1194 66//1195 462//822 
f 290//1055 427//1196 289//1197 
f 287//352 289//354 427//1198 
f 346//454 343//1199 115//1200 
f 343//776 135//778 115//1201 
f 504//1202 329//1203 327//1204 
f 448//1205 329//1206 504//1207 
f 92//95 323//416 21//415 
f 21//1208 131//1209 443//1210 
f 12//12 11//11 286//1211 
f 286//672 273//674 12//1212 
f 104//1213 417//1214 266//1215 
f 394//1216 330//428 104//1217 
f 182//1218 43//1219 249//1220 
f 182//211 325//419 43//1219 
f 173//190 338//619 106//191 
f 173//1221 476//905 338//619 
f 484//957 22//1222 200//653 
f 200//234 22//195 201//1223 
f 27//1224 137//1225 366//671 
f 27//1224 366//495 458//791 
f 151//1226 299//1227 300//368 
f 151//1228 153//1229 299//1230 
f 31//32 34//35 32//33 
f 34//35 244//1231 32//1232 
f 190//1233 374//1234 53//1235 
f 467//1236 188//1237 190//1238 
f 23//1239 97//1240 303//1241 
f 23//24 8//23 482//947 
f 397//1242 4//4 14//614 
f 14//580 195//579 397//1243 
f 60//62 186//881 74//77 
f 202//1244 60//1245 74//1246 
f 25//383 305//743 135//1247 
f 135//1248 26//27 25//26 
f 38//153 141//152 450//1249 
f 450//1249 299//366 38//153 
f 275//523 379//1250 61//1251 
f 275//1252 176//1253 178//1254 
f 302//1255 301//1256 202//1257 
f 202//1258 301//1259 200//1260 
f 340//447 100//1261 341//1262 
f 340//1263 389//550 2//1264 
f 180//535 235//1265 384//1266 
f 180//1267 384//1268 385//533 
f 296//1269 432//1270 359//480 
f 430//1271 187//217 189//219 
f 428//1272 45//892 471//894 
f 46//47 45//1273 428//1274 
f 421//1275 226//1276 426//1277 
f 426//1278 226//1276 425//1279 
f 496//1280 249//1281 247//1282 
f 321//1283 182//1284 249//1285 
f 441//722 80//1091 370//1286 
f 371//1287 441//1288 370//1289 
f 51//53 401//593 174//1290 
f 156//1291 174//1292 400//909 
f 345//780 408//1293 134//143 
f 223//1012 134//143 408//1294 
f 344//1295 343//1199 346//1296 
f 392//1297 304//1298 346//1299 
f 211//1300 148//1301 350//1302 
f 350//1303 243//1304 211//393 
f 3//3 2//2 42//1305 
f 388//552 2//1264 389//550 
f 193//1306 252//1307 386//1308 
f 192//1309 194//786 193//1310 
f 302//373 164//180 163//179 
f 451//1311 302//1312 163//1313 
f 186//216 185//215 72//1314 
f 186//881 72//1315 74//77 
f 161//1316 434//1317 212//1318 
f 434//698 161//1319 160//1106 
f 227//1320 421//1321 423//1322 
f 227//1323 226//1324 421//1275 
f 151//1325 254//1326 153//1229 
f 421//635 153//1327 254//868 
f 378//524 112//1328 61//525 
f 339//446 61//1329 112//1330 
f 362//485 363//486 166//182 
f 29//147 363//486 362//485 
f 274//1171 137//334 271//1172 
f 271//719 137//148 362//485 
f 374//1234 295//1331 53//510 
f 20//1332 53//55 295//1333 
f 109//113 414//616 373//855 
f 318//410 109//113 373//855 
f 71//74 438//1334 293//359 
f 71//1335 369//712 438//714 
f 359//480 432//1270 431//684 
f 359//1336 431//1337 33//34 
f 414//616 47//48 415//1134 
f 47//48 414//616 109//113 
f 189//1338 332//1339 430//1340 
f 333//432 332//1341 331//789 
f 117//1342 232//1020 418//1343 
f 505//1344 117//122 116//121 
f 63//749 255//748 17//1345 
f 506//1346 17//745 122//1347 
f 84//87 361//484 85//483 
f 361//721 84//399 272//400 
f 315//404 4//615 165//1164 
f 315//404 165//1164 313//402 
f 500//1348 147//1349 444//1350 
f 349//463 444//1351 37//38 
f 155//811 461//813 308//981 
f 155//863 308//1352 468//1353 
f 79//82 78//519 377//1354 
f 319//1355 79//82 377//891 
f 277//1356 23//1357 303//1241 
f 303//1358 392//1359 277//1360 
f 169//1361 294//1362 172//1363 
f 172//1364 326//923 169//1365 
f 395//1366 411//1367 413//1368 
f 268//1369 395//1370 413//1371 
f 263//1184 204//1372 429//1373 
f 204//1374 263//1375 197//1376 
f 40//1377 399//1378 290//1379 
f 399//1380 40//663 425//1381 
f 56//568 330//1382 394//569 
f 56//1383 128//787 330//788 
f 382//1384 170//1385 380//1386 
f 170//490 90//1387 92//488 
f 162//1388 446//1389 262//1390 
f 446//1069 73//739 260//1391 
f 269//1392 413//612 412//611 
f 269//609 412//1393 8//23 
f 242//291 246//574 396//575 
f 75//78 77//80 246//296 
f 98//102 410//1394 99//103 
f 222//266 98//1395 7//267 
f 282//1396 284//1397 452//1398 
f 282//1399 452//1400 184//1087 
f 354//1401 94//1402 223//1403 
f 354//1404 352//1405 94//1406 
f 205//1407 199//233 198//232 
f 501//1408 205//1409 198//1410 
f 425//1381 224//269 399//1380 
f 311//398 224//397 425//1381 
f 455//1411 217//259 356//775 
f 455//1412 373//855 217//259 
f 383//1413 294//361 499//1414 
f 382//1384 380//1386 383//1415 
f 493//1416 68//1417 435//702 
f 68//163 150//162 435//702 
f 309//1418 419//1419 239//1420 
f 240//627 239//286 419//628 
f 355//1421 58//60 216//1422 
f 24//472 355//471 216//258 
f 156//1423 18//18 157//746 
f 18//906 156//1424 475//1425 
f 132//1426 319//890 466//1427 
f 96//100 79//82 319//1355 
f 16//16 385//1428 122//130 
f 385//1429 233//1430 122//1431 
f 431//1337 298//726 33//1432 
f 33//34 298//365 34//35 
f 445//1433 444//1149 229//1148 
f 368//1434 445//1433 229//1148 
f 236//283 406//1435 405//1436 
f 322//603 236//602 405//1437 
f 503//1438 378//1439 502//1440 
f 378//815 177//814 502//1441 
f 467//1442 190//1443 105//1444 
f 189//1445 467//1446 105//1444 
f 59//1447 436//1448 186//1449 
f 339//1450 436//1451 59//1452 
f 502//1453 177//1454 113//1190 
f 177//1455 114//1456 113//1457 
f 108//1458 50//1459 9//1460 
f 50//874 108//873 470//872 
f 209//1461 443//728 442//727 
f 210//933 209//1462 480//931 
f 472//1159 348//1161 103//1463 
f 102//106 472//1464 103//107 
f 55//1465 424//1466 484//1467 
f 269//1468 424//1469 55//1470 
f 87//1471 227//1320 423//1472 
f 423//1473 251//1474 87//304 
f 109//113 320//853 48//49 
f 48//49 320//412 377//891 
f 82//1475 469//1476 257//1477 
f 257//1478 469//1479 259//1480 
f 132//842 466//1481 26//146 
f 466//843 372//507 26//27 
f 324//418 323//1143 325//419 
f 325//419 323//986 91//206 
f 242//291 396//575 243//292 
f 243//977 396//1482 478//916 
f 391//1483 140//1484 139//556 
f 391//1485 150//1061 140//1063 
f 499//1486 294//361 3//1487 
f 381//1488 499//1489 3//1131 
f 353//1490 9//51 51//53 
f 9//1491 353//1492 7//7 
f 126//930 123//131 281//927 
f 123//131 126//134 124//132 
f 58//1050 447//1493 494//1051 
f 457//1494 494//1495 447//1493 
f 175//1496 276//1497 201//1498 
f 175//1499 201//1223 22//195 
f 491//1500 152//1501 367//1502 
f 368//1503 367//1502 152//1504 
f 504//1207 124//1505 448//1205 
f 327//1506 124//1507 504//1508 
f 76//725 333//1509 128//1510 
f 128//787 333//432 330//788 
f 67//69 121//1511 65//67 
f 179//1512 65//1513 121//204 
f 243//1514 351//465 244//1231 
f 32//857 244//1231 351//465 
f 412//911 107//263 8//1515 
f 107//111 9//9 8//8 
f 67//1516 462//1517 407//1518 
f 237//1519 407//1520 462//1521 
f 218//1522 416//1523 338//619 
f 416//1006 218//1524 221//622 
f 465//838 30//31 35//1525 
f 326//1526 465//841 35//1527 
f 360//1528 442//935 131//1529 
f 130//139 360//1530 131//140 
f 477//1531 159//1532 262//1533 
f 159//1534 477//1535 185//1536 
f 449//755 1//1 118//756 
f 118//185 1//1 3//3 
f 394//1216 104//1217 266//1537 
f 267//573 394//572 266//1538 
f 209//1462 210//933 171//840 
f 210//248 465//841 171//1539 
f 146//1540 213//1541 291//357 
f 439//710 291//554 390//711 
f 193//1306 88//1542 252//1307 
f 252//303 88//91 87//1543 
f 141//1544 387//1545 100//544 
f 387//1545 342//545 100//544 
f 272//1002 311//1003 440//1546 
f 226//660 440//1547 311//661 
f 438//1334 390//1548 293//1549 
f 293//539 390//1103 386//1104 
f 372//507 466//843 318//410 
f 318//410 455//774 372//507 
f 403//1550 11//1551 402//1039 
f 403//1088 452//1552 11//1553 
f 446//737 164//736 495//1554 
f 73//1555 495//1556 164//1557 
f 342//1558 145//1559 487//1560 
f 342//450 487//1561 248//448 
f 484//957 200//653 203//369 
f 203//954 55//1465 484//1467 
f 143//771 398//770 489//1562 
f 144//1563 143//155 489//1564 
f 15//15 312//1565 13//13 
f 486//1133 312//1565 15//613 
f 237//1566 208//1567 384//1568 
f 208//824 237//1569 462//822 
f 180//961 322//1570 404//962 
f 405//1571 404//1572 322//1573 
f 158//505 258//310 371//1574 
f 258//1575 309//984 371//983 
f 420//1187 215//1576 503//1577 
f 378//1439 503//1578 215//1579 
f 89//716 440//718 225//870 
f 87//90 89//92 225//1580 
f 456//1581 192//784 139//1582 
f 138//149 456//1583 139//150 
f 213//1584 292//1585 291//357 
f 213//1584 435//1586 292//1585 
f 454//1587 144//202 103//1588 
f 454//1074 247//1075 144//1589 
f 284//1116 365//1118 460//1590 
f 460//807 452//1591 284//1592 
f 116//1018 93//1593 230//1019 
f 93//97 37//96 230//1594 
f 247//301 250//300 488//1595 
f 389//550 488//1008 250//551 
f 347//1596 179//1597 247//1598 
f 348//1599 179//657 347//1596 
f 346//1296 304//1600 344//1601 
f 463//1602 344//827 304//1603 
f 485//992 356//473 167//183 
f 355//471 356//473 485//992 
f 36//37 30//856 351//465 
f 35//1604 30//856 36//37 
f 63//749 62//1605 256//1606 
f 62//1044 257//1043 256//1607 
f 376//1608 265//1609 197//1610 
f 265//1611 376//1612 78//1613 
f 194//1614 456//1175 270//1174 
f 270//717 89//1615 194//1616 
f 501//1617 316//1618 328//1619 
f 205//425 501//1620 328//426 
f 341//1621 389//1622 340//1623 
f 389//1624 341//449 248//448 
f 130//1625 297//477 360//1626 
f 130//139 295//951 297//477 
f 253//1627 491//1628 422//1629 
f 152//166 491//1630 253//305 
f 133//1631 136//1632 343//1633 
f 26//146 136//145 133//1631 
f 64//1634 233//1635 234//1636 
f 64//1637 63//1638 233//965 
f 275//1639 178//1640 379//1641 
f 177//1642 379//1643 178//1644 
f 336//437 337//439 366//1645 
f 366//671 273//1646 336//437 
f 207//1647 393//1648 234//1649 
f 234//1650 208//1651 207//244 
f 176//1035 392//1652 114//1653 
f 176//198 114//1654 177//1655 
f 251//1656 422//1657 70//1658 
f 423//1473 422//1659 251//1660 
f 198//1661 83//1025 317//1662 
f 83//1663 62//1664 317//1665 
f 397//1242 5//5 4//4 
f 45//343 5//342 397//1666 
f 265//322 80//1091 238//323 
f 80//388 239//387 238//1667 
f 418//1668 445//1669 368//1434 
f 368//1503 152//1504 418//1670 
f 156//908 219//1671 475//1672 
f 475//904 219//1673 338//619 
f 280//1674 471//894 397//893 
f 471//895 280//667 102//1675 
f 41//42 381//1676 42//43 
f 41//207 90//360 381//529 
f 339//1176 111//1178 437//1677 
f 339//1678 437//1677 436//1679 
f 416//1680 417//1681 106//191 
f 104//108 106//110 417//1682 
f 362//485 166//182 313//402 
f 314//403 313//402 166//182 
f 161//917 478//1683 261//1684 
f 478//1685 396//1686 261//1687 
f 195//928 281//346 280//1674 
f 195//928 126//930 281//1688 
f 216//1422 58//1050 307//382 
f 307//382 58//1050 306//1052 
f 407//1191 464//1689 120//1192 
f 464//1690 321//850 120//1691 
f 473//1692 279//459 125//458 
f 472//903 279//1693 473//1694 
f 242//1695 75//78 246//1696 
f 75//78 242//1695 34//733 
f 23//1239 482//1697 97//1240 
f 97//1698 482//949 98//102 
f 332//1699 189//1700 331//1701 
f 189//1445 105//1444 331//1702 
f 309//1418 461//1703 419//1419 
f 258//980 461//1704 309//984 
f 220//590 400//592 401//876 
f 400//1705 174//1290 401//593 
f 369//1706 71//1335 119//1707 
f 119//1708 229//1709 369//1710 
f 170//490 382//1384 90//1387 
f 382//530 381//529 90//93 
f 265//1711 240//1712 481//942 
f 481//1713 240//627 154//1714 
f 157//1715 17//1345 255//748 
f 255//1716 158//1717 157//1718 
f 262//1533 260//1391 477//1531 
f 446//1389 260//1719 262//1720 
f 46//1721 428//1274 427//1722 
f 399//1723 46//1724 427//1054 
f 214//1725 305//817 113//819 
f 214//858 135//1726 305//378 
f 92//1727 21//415 443//728 
f 209//489 92//488 443//728 
f 415//617 312//1565 486//1133 
f 415//617 486//993 315//618 
f 345//826 463//825 99//1056 
f 463//1728 97//101 99//1729 
f 296//512 374//514 187//1730 
f 187//1730 430//1731 296//1732 
f 169//1365 326//923 479//1733 
f 326//1734 93//1735 479//1736 
f 199//1737 205//241 204//240 
f 204//1738 197//1739 199//1737 
f 127//1740 429//1741 206//1742 
f 429//1743 127//1744 196//1745 
f 85//88 6//6 86//89 
f 86//1746 6//6 5//1747 
f 444//1748 349//463 500//1749 
f 349//463 148//1750 500//1749 
f 288//353 287//1751 102//1752 
f 471//895 102//1675 287//896 
f 125//422 327//1753 474//1754 
f 125//1755 474//900 473//899 
f 493//1756 435//699 160//1757 
f 160//1758 402//1038 493//1759 
f 494//1051 110//1760 306//1052 
f 110//1761 215//1762 306//1763 
f 505//1764 116//1765 232//1020 
f 232//1766 117//1342 505//1344 
f 211//1767 310//395 212//250 
f 310//1768 478//978 212//1769 
f 42//849 388//549 249//548 
f 388//552 42//1770 2//1264 
f 288//1771 102//106 101//1772 
f 288//1773 101//1774 489//1014 
f 408//1775 345//1776 409//1777 
f 222//1778 408//1779 409//1780 
f 206//754 329//753 448//1781 
f 448//1782 127//1740 206//1742 
f 241//1783 352//1784 433//1785 
f 433//1786 353//693 241//1787 
f 357//970 363//1788 29//147 
f 358//487 363//486 357//474 
f 299//1789 450//1790 449//1791 
f 449//755 450//758 1//1 
f 16//16 181//534 385//1428 
f 181//210 16//1141 324//691 
f 285//350 11//1792 453//1793 
f 453//1794 460//1795 285//1136 
f 375//1796 197//1797 264//1798 
f 375//1799 264//1800 13//800 
f 409//607 410//608 222//1778 
f 98//1395 222//266 410//1801 
f 421//1802 426//1277 39//1803 
f 426//1804 40//1805 39//1806 
f 267//573 411//1807 395//1808 
f 107//263 411//912 267//1809 
f 209//1810 442//727 480//1811 
f 442//727 364//1812 480//1811 
f 469//1813 468//1814 259//1815 
f 259//385 468//1816 308//386 
f 380//1817 294//361 383//1413 
f 380//1818 172//1363 294//1362 
f 476//1819 52//54 18//18 
f 52//1820 476//905 173//1221 
f 116//1018 490//1821 93//1593 
f 490//1822 116//121 169//186 
f 63//1823 17//1824 506//1825 
f 63//1826 506//1827 122//1828 
f 220//262 470//1829 218//1830 
f 470//1831 220//875 50//874 
f 149//1062 335//1832 140//1063 
f 149//1833 68//1834 335//794 
f 480//931 364//934 31//932 
f 33//34 31//32 364//491 
f 370//1835 80//83 95//99 
f 370//1836 95//290 51//289 
f 28//29 27//28 458//791 
f 458//1837 447//744 28//29 
f 498//1098 375//803 13//1838 
f 312//401 498//1098 13//13 
f 485//992 483//952 355//471 
f 483//953 58//60 355//1421 
f 497//1082 278//1839 459//1840 
f 459//1841 278//340 60//62 
f 55//327 54//1842 268//328 
f 395//990 268//1843 54//991 
f 485//992 167//183 358//476 
f 166//182 358//487 167//183 
f 374//1234 190//1844 188//1845 
f 187//1846 374//1847 188//1848 
f 492//1041 11//1040 10//10 
f 10//1849 493//1109 492//1850 
f 77//80 451//1311 163//1313 
f 301//370 451//1851 77//80 
f 334//1852 432//685 430//1853 
f 296//1732 430//1731 432//685 
f 192//1854 193//1855 386//1856 
f 192//1857 386//1858 191//1859 
f 457//1860 365//1115 494//1114 
f 365//494 457//1861 366//495 
f 438//1862 146//971 439//1863 
f 439//1863 146//971 291//357 
f 168//184 314//403 166//182 
f 414//734 314//403 168//735 
f 142//356 290//355 398//770 
f 289//1864 398//1865 290//1866 
f 321//413 496//1867 179//1868 
f 321//1869 249//1870 496//1871 
f 231//730 37//38 444//731 
f 37//96 231//730 230//1594 
f 180//961 406//1872 235//1873 
f 236//283 235//282 406//1435 
f 132//141 96//100 319//1355 
f 132//141 134//143 96//100 
f 276//1874 275//1875 497//1876 
f 497//1082 201//1084 276//1877 
# 1008 faces

