# 3ds Max Wavefront OBJ Exporter v0.99 - (c)2007 guruware
# File Created: 30.05.2025 04:54:05

#
# object Botones
#

v  0.9012 1.0066 0.1620
v  0.9012 1.0066 0.3288
v  0.8604 0.6662 0.3180
v  0.8597 0.6602 0.1570
v  0.8027 0.9137 -0.1461
v  0.8092 0.9642 -0.1202
v  0.8480 0.9579 -0.1193
v  0.8478 0.8999 -0.0940
v  0.8330 0.8757 -0.0586
v  0.8330 0.8757 -0.1077
v  0.8417 0.9427 -0.3618
v  0.8374 0.9092 -0.3446
v  0.8505 0.9210 -0.3863
v  0.7950 0.8543 -0.3669
v  0.7979 0.8770 -0.4373
v  0.8353 0.8593 -0.4224
v  0.8092 0.9642 -0.1978
v  0.8462 0.9444 -0.1851
v  0.8495 0.9695 -0.2348
v  0.7979 0.8770 -0.2857
v  0.8392 0.8897 -0.2932
v  0.8342 0.8506 -0.2538
v  0.8504 0.9075 -0.2348
v  0.8323 0.8699 -0.2219
v  0.8330 0.8757 -0.2593
v  0.8051 0.9330 -0.1749
v  0.8074 0.9504 -0.0322
v  0.8027 0.9137 -0.0202
v  0.8440 0.9274 -0.0247
v  0.8424 0.9486 -0.0703
v  0.8390 0.9220 -0.0435
v  0.8501 0.9185 -0.0753
v  0.8338 0.8477 -0.3863
v  0.8353 0.8593 -0.3502
v  0.8092 0.9642 -0.3493
v  0.8002 0.8944 -0.3265
v  0.8454 0.9261 -0.3314
v  0.8440 0.9274 -0.1416
v  0.8392 0.8897 -0.1416
v  0.8342 0.8506 -0.0642
v  0.8370 0.8728 -0.0335
v  0.8074 0.9504 -0.4373
v  0.8480 0.9579 -0.4225
v  0.8462 0.9444 -0.4360
v  0.8462 0.9444 -0.3366
v  0.8491 0.9665 -0.3674
v  0.8357 0.8964 -0.2744
v  0.8074 0.9504 -0.2857
v  0.8491 0.9665 -0.2538
v  0.8462 0.9444 -0.2845
v  0.7962 0.8632 -0.1978
v  0.8353 0.8593 -0.1987
v  0.8392 0.8897 -0.1764
v  0.7946 0.8512 -0.2348
v  0.8392 0.8897 -0.4448
v  0.8424 0.9486 -0.3992
v  0.8478 0.8999 -0.3972
v  0.8379 0.7932 -0.3624
v  0.8266 0.7253 -0.3597
v  0.8302 0.7287 -0.4264
v  0.8372 0.7872 -0.0387
v  0.8286 0.7153 -0.0384
v  0.8288 0.7167 -0.1202
v  0.8374 0.7883 -0.1217
v  0.7951 0.6750 0.4155
v  0.8762 0.7638 0.4057
v  0.8915 0.9256 0.4205
v  0.7935 0.6619 0.0493
v  0.8374 0.7889 -0.1986
v  0.8289 0.7176 -0.1966
v  0.8294 0.7218 -0.2825
v  0.8363 1.0185 0.0500
v  0.8364 1.0194 0.4264
v  0.8909 0.9204 0.0541
v  0.8708 0.7531 0.0541
v  0.8385 0.7975 -0.4309
v  0.8378 0.7920 -0.2860
v  0.8370 0.8728 -0.3367
v  0.8424 0.9486 -0.0961
v  0.8390 0.9220 -0.1228
v  0.8424 0.9486 -0.2477
v  0.8424 0.9486 -0.2219
v  0.8454 0.9261 -0.1799
v  0.8493 0.9118 -0.2220
v  0.8491 0.9547 -0.0492
v  0.8495 0.9695 -0.0832
v  0.8330 0.8757 -0.4109
v  0.8342 0.8849 -0.3526
v  0.8338 0.8477 -0.0832
v  0.7950 0.8543 -0.0637
v  0.7979 0.8770 -0.1341
v  0.9013 1.0074 0.4222
v  0.8440 0.9274 -0.2932
v  0.8416 0.9086 -0.1734
v  0.8357 0.8964 -0.1951
v  0.8372 0.8621 -0.1171
v  0.8107 0.9761 -0.3863
v  0.8501 0.9628 -0.4042
v  0.8357 0.8964 -0.0435
v  0.8431 0.9084 -0.0254
v  0.8610 0.6710 0.4116
v  0.8594 0.6582 0.0534
v  0.9012 1.0066 0.0541
v  0.8357 0.8511 -0.2348
v  0.8440 0.9274 -0.4448
v  0.8107 0.9761 -0.2348
v  0.8395 0.8058 -0.1815
v  0.8111 0.8105 -0.1802
v  0.7982 0.7028 -0.1787
v  0.8115 0.8132 -0.3042
v  0.8399 0.8098 -0.3455
v  0.8116 0.8145 -0.3442
v  0.7990 0.7091 -0.3407
v  0.8121 0.8186 -0.4487
v  0.8363 0.8060 -0.0200
v  0.8109 0.8090 -0.0200
v  0.7979 0.7002 -0.0200
v  0.8111 0.8099 -0.1402
v  0.8265 0.6981 -0.0213
v  0.7981 0.7018 -0.1387
v  0.8267 0.6997 -0.1374
v  0.8394 0.8052 -0.1389
v  0.8274 0.7052 -0.2993
v  0.7987 0.7073 -0.3006
v  0.8299 0.7151 -0.4401
v  0.7996 0.7145 -0.4444
v  0.8276 0.7071 -0.3420
v  0.8103 0.9731 -0.0637
# 128 vertices

vn 0.9975 -0.0710 -0.0000
vn 0.9975 -0.0703 -0.0002
vn 0.9868 -0.1618 0.0019
vn 0.9866 -0.1633 0.0014
vn 0.0403 0.3066 -0.9510
vn 0.0765 0.5829 -0.8089
vn 0.1132 0.5774 -0.8086
vn 0.9208 -0.3901 -0.0000
vn 0.8435 -0.4698 0.2603
vn 0.8435 -0.4698 -0.2603
vn 0.9350 0.2408 0.2602
vn 0.8893 -0.1145 0.4428
vn 0.9659 -0.0407 0.2557
vn -0.1236 -0.9430 -0.3091
vn -0.1052 -0.8021 -0.5879
vn -0.0682 -0.8065 -0.5873
vn 0.1052 0.8022 0.5877
vn 0.1419 0.7967 0.5875
vn 0.1604 0.9375 0.3089
vn -0.0764 -0.5827 -0.8091
vn -0.0394 -0.5874 -0.8083
vn 0.9225 -0.3770 0.0832
vn 0.8355 -0.5322 0.1368
vn 0.0765 0.5829 0.8089
vn 0.1132 0.5774 0.8086
vn 0.0403 0.3066 0.9510
vn 0.0770 0.3011 0.9505
vn 0.9431 0.3032 0.1368
vn 0.9068 0.0212 0.4211
vn 0.9831 0.0926 0.1579
vn -0.1300 -0.9915 -0.0000
vn -0.0929 -0.9957 -0.0000
vn -0.0866 -0.9472 0.3088
vn 0.0369 -0.0051 -0.9993
vn -0.0032 -0.3112 -0.9503
vn -0.0401 -0.3062 -0.9511
vn -0.0682 -0.8065 0.5873
vn -0.0394 -0.5874 0.8083
vn -0.0764 -0.5827 0.8091
vn 0.1052 0.8022 -0.5877
vn 0.1419 0.7967 -0.5875
vn 0.8718 -0.2502 -0.4211
vn 0.9553 -0.1231 -0.2689
vn -0.1052 -0.8021 0.5879
vn -0.0866 -0.9472 -0.3088
vn 0.9431 0.3032 -0.1368
vn 0.9659 -0.0407 -0.2557
vn 0.9225 0.1436 -0.3582
vn 0.9929 -0.1191 -0.0000
vn -0.0050 -0.0413 0.9991
vn 0.0571 -0.0416 0.9975
vn 0.0574 -0.0342 0.9978
vn -0.0576 -0.9974 0.0426
vn -0.1190 -0.9916 0.0516
vn -0.1191 -0.9927 0.0197
vn 0.1191 0.9929 -0.0000
vn 0.1191 0.9928 -0.0091
vn 0.1799 0.9837 -0.0034
vn 0.9917 -0.1203 0.0460
vn 0.9917 -0.1205 0.0439
vn 0.1799 0.9837 -0.0000
vn 0.0008 0.0067 -1.0000
vn 0.0000 0.0000 -1.0000
vn 0.0610 -0.0073 -0.9981
vn -0.0579 -0.9979 0.0302
vn 0.0613 -0.0048 -0.9981
vn -0.0401 -0.3062 0.9511
vn -0.0032 -0.3112 0.9503
vn 0.0369 -0.0051 0.9993
vn 0.7394 -0.2942 -0.6056
vn 0.7395 -0.2930 -0.6060
vn 0.7658 -0.0992 -0.6354
vn 0.9350 0.2408 -0.2602
vn 0.9350 -0.2799 -0.2177
vn 0.9067 0.0212 -0.4211
vn 0.9225 0.1436 0.3582
vn 0.1604 0.9375 -0.3089
vn 0.1666 0.9860 -0.0091
vn -0.0026 -0.0213 0.9998
vn 0.0001 0.0002 -1.0000
vn 0.0770 0.3011 -0.9505
vn 0.8718 -0.2502 0.4211
vn 0.8505 0.5260 -0.0000
vn 0.8464 0.4956 -0.1950
vn 0.1237 0.9430 -0.3090
vn 0.9446 -0.2055 0.2559
vn 0.0001 0.0002 1.0000
vn 0.0440 -0.0471 0.9979
vn 0.9921 -0.1189 -0.0393
vn -0.0713 -0.9973 0.0197
vn 0.1671 0.9859 -0.0000
vn 0.9921 -0.1190 -0.0388
vn 0.7921 0.0949 0.6030
vn 0.7922 0.0961 0.6026
vn 0.7660 -0.0979 0.6354
vn 0.9897 0.1434 -0.0000
vn 0.1667 0.9860 -0.0000
vn 0.1300 0.9915 -0.0000
vn 0.9870 -0.0817 0.1386
vn 0.9702 -0.2114 0.1181
vn 0.9918 -0.1277 -0.0000
vn 0.9625 -0.2712 -0.0000
vn 0.9661 -0.2435 0.0858
vn -0.0699 -0.9962 0.0516
vn 0.9831 -0.1739 0.0568
vn 0.0485 0.0010 -0.9988
vn 0.9836 -0.1735 -0.0500
vn 0.0372 0.0096 0.9993
vn 0.0017 0.0139 0.9999
vn 0.1191 0.9926 0.0220
vn 0.1546 0.9877 0.0220
vn 0.0399 0.0292 0.9988
vn 0.0040 0.0335 0.9994
vn 0.1190 0.9921 0.0399
vn 0.1548 0.9871 0.0399
vn 0.0449 -0.0270 0.9986
vn 0.9969 -0.0571 0.0549
vn 0.6963 -0.6116 0.3756
vn 0.6964 -0.6111 0.3763
vn 0.6841 -0.7021 0.1976
vn 0.0353 -0.0042 0.9994
vn 0.0000 0.0000 1.0000
vn 0.1191 0.9928 0.0080
vn 0.1544 0.9880 0.0080
vn 0.0351 -0.0042 0.9994
vn -0.0839 -0.9964 -0.0135
vn -0.1191 -0.9928 -0.0135
vn -0.0835 -0.9964 -0.0135
vn 0.0334 -0.0181 -0.9993
vn 0.0338 -0.0181 -0.9993
vn -0.0017 -0.0139 -0.9999
vn 0.0307 -0.0377 -0.9988
vn 0.0318 -0.0378 -0.9988
vn -0.0040 -0.0335 -0.9994
vn -0.1190 -0.9922 -0.0373
vn -0.0831 -0.9958 -0.0373
vn 0.1541 0.9880 0.0080
vn 0.1538 0.9879 0.0220
vn 0.0295 -0.0454 -0.9985
vn 0.0311 -0.0456 -0.9985
vn -0.0050 -0.0413 -0.9991
vn -0.1190 -0.9916 -0.0516
vn -0.0829 -0.9952 -0.0516
vn -0.0845 -0.9951 -0.0516
vn 0.9971 -0.0585 -0.0483
vn 0.0479 -0.0057 -0.9988
vn 0.1534 0.9874 0.0399
vn -0.0842 -0.9958 -0.0373
vn 0.0364 0.0097 0.9993
vn 0.0384 0.0294 0.9988
vn 0.1236 0.9430 0.3090
vn 0.6963 -0.6116 -0.3756
vn 0.6964 -0.6111 -0.3763
vn 0.7154 -0.4709 -0.5162
vn 0.8157 0.2694 0.5119
vn 0.1236 0.9430 -0.3090
vn 0.8344 0.4073 -0.3713
vn 0.8345 0.4077 -0.3707
vn 0.8464 0.4957 -0.1946
vn 0.9812 -0.1264 0.1458
vn 0.9754 -0.1711 0.1387
vn 0.7155 -0.4700 -0.5168
vn -0.1236 -0.9430 0.3091
vn 0.9634 -0.2641 0.0451
vn 0.9350 -0.2799 0.2177
vn 0.9870 -0.0817 -0.1386
vn 0.9963 -0.0096 -0.0856
vn 0.9754 -0.1711 -0.1387
vn 0.9963 -0.0096 0.0856
vn 0.6799 -0.7333 -0.0000
vn 0.6841 -0.7021 -0.1976
vn 0.9998 0.0179 -0.0000
vn 0.9922 -0.0415 0.1178
vn 0.9634 -0.2641 -0.0451
vn 0.7154 -0.4709 0.5162
vn 0.9989 0.0109 0.0450
vn 0.9989 0.0109 -0.0450
vn 0.8344 0.4073 0.3713
vn 0.8345 0.4077 0.3707
vn 0.8158 0.2702 0.5113
vn 0.8464 0.4957 0.1946
vn 0.8464 0.4956 0.1950
vn 0.7395 -0.2930 0.6060
vn 0.7394 -0.2942 0.6056
vn 0.7658 -0.0992 0.6354
vn 0.6841 -0.7020 -0.1980
vn 0.9922 -0.0415 -0.1178
vn 0.8560 -0.3726 0.3582
vn 0.1237 0.9430 0.3090
vn 0.6841 -0.7020 0.1980
vn 0.9947 -0.1022 -0.0149
vn 0.9905 -0.1368 -0.0158
vn 0.9952 -0.0125 0.0971
vn 0.9906 -0.1359 0.0148
vn 0.9944 -0.1048 -0.0146
vn 0.9901 -0.1387 -0.0202
vn 0.9942 -0.0142 0.1065
vn 0.9909 -0.1335 0.0147
vn 0.9902 -0.1389 -0.0169
vn 0.9953 -0.0088 0.0966
vn 0.9947 -0.1022 -0.0138
vn 0.9906 -0.1359 0.0138
vn 0.9950 -0.0984 0.0176
vn 0.9691 -0.2270 -0.0968
vn 0.9697 -0.2208 0.1044
vn 0.9949 -0.0990 0.0207
vn 0.8157 0.2694 -0.5119
vn 0.9948 -0.1009 0.0162
vn 0.9699 -0.2233 -0.0972
vn 0.9953 -0.0120 -0.0965
vn 0.9700 -0.2234 0.0962
vn 0.9693 -0.2215 -0.1066
# 212 vertex normals

o Botones
g Botones
s 1
f 1//1 2//2 3//3 
f 3//3 4//4 1//1 
s 39
f 5//5 6//6 7//7 
s 36
f 8//8 9//9 10//10 
s 46
f 11//11 12//12 13//13 
s 49
f 14//14 15//15 16//16 
s 44
f 17//17 18//18 19//19 
f 20//20 21//21 22//16 
s 41
f 23//22 24//23 25//10 
s 44
f 17//17 26//24 18//25 
s 39
f 27//24 28//26 29//27 
s 36
f 30//28 31//29 32//30 
s 49
f 14//31 33//32 34//33 
f 35//24 36//26 37//27 
s 39
f 38//34 39//35 5//36 
f 40//37 41//38 28//39 
s 49
f 42//40 43//41 44//7 
f 35//17 45//18 46//19 
s 41
f 25//10 47//42 23//43 
s 44
f 48//40 49//41 50//7 
f 51//44 52//37 53//38 
f 22//45 54//14 20//15 
s 49
f 15//20 55//21 16//16 
s 46
f 56//46 57//47 44//48 
s off
f 58//49 59//49 60//49 
f 61//49 62//49 63//49 
f 63//49 64//49 61//49 
s 3
f 65//50 66//51 67//52 
s 6
f 3//53 65//54 68//55 
s off
f 69//49 70//49 71//49 
s 4
f 72//56 73//57 2//58 
s 1
f 2//2 67//59 66//60 
s 4
f 2//58 1//61 72//56 
s 7
f 68//62 72//63 74//64 
s 6
f 68//55 4//65 3//53 
s 7
f 74//64 75//66 68//62 
s off
f 60//49 76//49 58//49 
f 71//49 77//49 69//49 
s 49
f 36//67 78//68 37//69 
s 47
f 11//70 37//71 12//72 
s 36
f 79//46 32//30 80//73 
f 10//10 80//42 8//74 
s 41
f 23//43 50//75 81//46 
f 82//28 83//76 84//13 
s 39
f 27//24 29//25 85//18 
f 86//77 7//41 6//40 
s 46
f 44//48 57//47 87//42 
f 87//10 57//74 88//23 
s 39
f 89//45 90//14 91//15 
s 4
f 92//78 2//58 73//57 
s 3
f 67//52 73//79 65//50 
s 44
f 20//80 48//5 93//81 
f 94//69 83//27 26//26 
s 41
f 83//76 95//82 84//13 
s 37
f 89//83 10//83 9//84 
s 39
f 91//15 96//16 89//45 
s 49
f 42//40 97//85 98//77 
s 36
f 99//82 32//86 31//29 
s 39
f 41//68 100//69 28//87 
s 3
f 65//50 101//88 66//51 
s 1
f 66//60 3//3 2//2 
f 1//1 4//4 75//89 
s 6
f 102//90 4//65 68//55 
s 4
f 72//56 1//61 103//91 
s 1
f 75//89 74//92 1//1 
s 44
f 22//45 104//32 54//31 
s 42
f 104//83 25//83 24//84 
s 44
f 20//80 93//34 21//35 
s 41
f 23//43 47//42 50//75 
s 47
f 87//93 55//94 105//95 
s 49
f 105//34 55//35 15//36 
s 46
f 56//46 11//11 13//96 
s 49
f 46//19 98//97 97//98 
s 44
f 53//68 26//67 51//39 
s 50
f 37//99 78//100 12//101 
f 33//102 88//101 34//103 
s 6
f 65//54 3//53 101//104 
s 1
f 66//60 101//105 3//3 
s 7
f 75//66 102//106 68//62 
s 1
f 102//107 75//89 4//4 
s 39
f 28//39 90//44 40//37 
s 49
f 36//39 14//44 34//37 
s 47
f 33//83 87//83 88//84 
s 49
f 16//16 33//45 14//14 
s 41
f 81//46 82//28 84//96 
s 44
f 106//98 19//97 49//77 
s 20
f 107//108 108//109 109//109 
s 18
f 110//110 108//110 107//111 
s 49
f 15//80 42//5 105//81 
s 13
f 111//112 112//113 113//113 
s 12
f 114//114 112//114 111//115 
s 3
f 67//52 92//116 73//79 
s 1
f 2//2 92//117 67//59 
s 39
f 7//7 38//81 5//5 
s 37
f 80//118 7//119 79//120 
s 31
f 115//121 116//122 117//122 
s 30
f 118//123 116//123 115//124 
s 31
f 117//122 119//125 115//121 
s 28
f 119//126 117//127 120//127 
f 120//127 121//128 119//126 
s 29
f 122//129 121//130 120//131 
s 22
f 77//132 123//133 124//134 
s 21
f 109//135 124//135 123//136 
s 30
f 115//124 122//137 118//123 
s 29
f 120//131 118//131 122//129 
s 18
f 107//111 77//138 110//110 
s 22
f 124//134 110//134 77//132 
s 11
f 76//139 125//140 126//141 
s 10
f 126//142 125//143 127//144 
s 1
f 1//1 74//92 103//145 
s 7
f 72//63 103//146 74//64 
s 11
f 126//141 114//141 76//139 
s 12
f 111//115 76//147 114//114 
s 21
f 123//136 70//148 109//135 
s 20
f 109//109 70//149 107//108 
s 13
f 113//113 127//150 111//112 
s 10
f 127//144 113//142 126//142 
s 39
f 128//151 85//19 86//97 
s 37
f 30//152 85//153 31//154 
s 39
f 39//35 96//21 91//20 
s 37
f 39//94 80//93 10//155 
s 39
f 6//156 128//98 86//97 
s 44
f 48//40 106//85 49//77 
f 104//33 52//37 51//44 
s 42
f 24//157 52//158 104//159 
s 45
f 83//99 94//160 95//101 
f 52//103 95//101 53//161 
s 49
f 37//27 45//25 35//24 
s 47
f 45//162 37//71 11//70 
s 36
f 80//73 32//30 8//47 
f 9//9 8//8 32//86 
s 39
f 89//32 40//33 90//163 
s 40
f 9//101 40//164 89//102 
s 46
f 57//47 56//46 13//96 
f 88//23 57//8 13//165 
s 40
f 41//100 99//101 31//101 
f 99//101 41//100 40//164 
s 50
f 88//101 78//100 34//103 
s 49
f 34//37 78//38 36//39 
s 40
f 80//101 38//166 7//167 
f 38//166 80//101 39//168 
f 29//99 31//101 85//169 
f 31//101 100//160 41//100 
s 42
f 81//170 19//170 82//171 
s 45
f 82//101 19//172 18//173 
f 22//174 25//101 104//102 
f 25//101 22//174 21//168 
s 47
f 43//119 56//118 44//175 
s 50
f 46//176 56//101 98//177 
s 40
f 86//172 79//101 7//167 
f 86//172 85//169 30//101 
s 47
f 87//178 16//179 55//180 
f 33//83 16//181 87//182 
s 49
f 42//6 44//7 105//81 
s 47
f 105//183 44//184 87//185 
s 39
f 91//20 5//36 39//35 
s 47
f 46//186 11//171 56//170 
s 50
f 45//173 11//101 46//176 
s 44
f 83//27 18//25 26//24 
s 45
f 18//173 83//99 82//101 
s 44
f 48//6 50//7 93//81 
s 45
f 93//166 50//187 47//101 
f 21//168 93//166 47//101 
s 42
f 25//155 21//180 47//93 
s 46
f 12//12 88//188 13//165 
s 50
f 88//101 12//101 78//100 
s 45
f 50//187 49//177 81//101 
f 19//172 81//101 49//177 
s 37
f 10//178 96//179 39//180 
f 89//83 96//181 10//182 
s 49
f 97//98 35//189 46//19 
s 41
f 23//22 84//165 24//23 
f 23//43 81//46 84//96 
s 44
f 51//44 54//163 104//33 
s 47
f 43//119 98//190 56//120 
s 49
f 98//77 43//41 42//40 
s 27
f 62//191 61//192 115//193 
f 115//193 61//192 64//194 
s 9
f 59//195 58//196 111//197 
f 111//197 58//196 76//198 
s 36
f 32//86 99//82 9//9 
s 40
f 40//164 9//101 99//101 
s 19
f 69//199 107//200 70//201 
f 107//200 69//199 77//202 
f 77//202 71//203 123//204 
f 123//204 71//203 70//201 
s 9
f 111//197 127//205 59//195 
f 60//206 59//195 127//205 
s 44
f 26//67 53//68 94//69 
s 45
f 94//160 53//161 95//101 
s 41
f 95//82 24//23 84//165 
s 42
f 52//158 24//157 95//207 
s 27
f 63//208 121//209 122//210 
f 119//211 121//209 63//208 
s 9
f 76//198 60//206 125//212 
f 127//205 125//212 60//206 
s 40
f 30//101 79//101 86//172 
s 36
f 32//30 79//46 30//28 
s 27
f 64//194 122//210 115//193 
f 122//210 64//194 63//208 
f 115//193 119//211 62//191 
f 63//208 62//191 119//211 
s 40
f 31//101 29//99 100//160 
s 39
f 100//69 29//27 28//26 
f 85//19 128//151 27//17 
s 44
f 19//97 106//98 17//151 
# 206 faces

#
# object Pc
#

v  -0.3521 0.5028 -0.3802
v  -0.3336 0.5212 -0.5685
v  0.8149 0.4450 -0.4786
v  -0.1632 2.0743 -0.3871
v  -0.1483 2.0658 -0.1894
v  0.8207 1.7968 -0.1639
v  -0.1992 1.4724 0.8123
v  0.9295 1.3995 0.6506
v  0.9293 1.5633 0.6510
v  0.7929 0.4256 -0.3171
v  -0.1739 1.8514 0.7855
v  -0.3027 0.9113 -0.8180
v  -0.2641 1.0988 -0.8190
v  0.6600 0.4555 -0.6653
v  0.8463 1.7799 0.1337
v  0.8472 1.7814 -0.0296
v  -0.1480 2.0680 -0.0000
v  0.9560 1.7232 0.0299
v  0.9013 1.0981 -0.0000
v  0.9529 1.6114 -0.1294
v  -0.4927 0.1636 0.1846
v  -0.4102 0.1706 0.3528
v  0.6726 0.1636 -0.0000
v  -0.4515 0.4077 -0.2193
v  -0.9804 0.4750 -0.2191
v  -0.9773 0.4826 -0.4366
v  -0.8845 1.3641 0.9272
v  -0.8997 1.1454 0.9390
v  -0.3708 1.0816 0.9426
v  0.0754 0.1636 -0.5973
v  -0.0967 0.1636 -0.5295
v  -0.1739 1.8514 -0.7855
v  -0.1506 2.0462 -0.7696
v  0.8175 1.7679 -0.6654
v  0.8852 1.0797 -0.4928
v  0.9487 1.5599 -0.6409
v  0.9013 1.0981 -0.1620
v  0.8918 1.0844 -0.6600
v  -0.1965 1.6633 -0.8042
v  -0.3447 1.2993 0.9515
v  -0.3026 1.5141 0.9289
v  -0.8483 1.5803 0.9390
v  -0.2372 2.1935 -0.0000
v  -0.7749 2.2541 -0.0000
v  -0.7733 2.2508 0.2194
v  0.9521 1.6044 0.3498
v  0.9592 1.5809 0.1589
v  0.8126 0.4252 0.1572
v  0.8136 0.4334 0.3165
v  -0.3345 0.5135 0.3790
v  -0.4508 0.4155 0.4370
v  -0.4498 0.4219 0.6586
v  -0.9758 0.4891 0.6561
v  -0.3329 0.5268 0.7692
v  -0.3130 0.5242 0.5679
v  0.6600 0.4554 0.6653
v  -0.2661 1.9532 -0.8973
v  -0.2928 1.7333 -0.9202
v  -0.8206 1.7960 -0.9165
v  -0.9306 0.9493 -0.9010
v  -0.3800 0.8696 -0.9075
v  -0.4231 0.6452 -0.8973
v  -0.2376 2.1905 -0.2195
v  -0.7733 2.2508 -0.2194
v  -0.7928 2.0166 -0.8935
v  0.0754 0.1636 0.5568
v  0.2609 0.1706 0.5709
v  0.6434 0.1636 -0.1846
v  0.7770 0.0525 -0.2280
v  0.6722 0.0525 -0.4336
v  -0.9571 0.4716 0.4392
v  -0.4497 0.4226 -0.6586
v  -0.4508 0.4155 -0.4370
v  -0.9498 0.7076 -0.8934
v  -0.7928 2.0166 0.8935
v  -0.8206 1.7960 0.9165
v  -0.2928 1.7333 0.9202
v  -0.9187 1.0774 0.7685
v  -0.9030 1.2439 0.7780
v  -0.7757 1.5651 0.7595
v  0.7935 0.6619 0.0493
v  0.8670 0.9273 -0.4911
v  0.8388 0.5773 0.3203
v  0.7951 0.6750 0.4155
v  0.8149 0.4450 0.4786
v  -0.4078 0.1636 -0.3511
v  -0.4955 0.1706 -0.1855
v  0.0141 0.1661 -0.1885
v  -0.0641 0.3980 -0.1919
v  0.0754 0.4029 -0.2490
v  -0.7691 2.2430 0.4352
v  -0.2388 2.1829 0.4370
v  -0.2226 2.1755 0.2192
v  -0.1488 2.0597 0.3806
v  -0.1493 2.0520 0.5709
v  0.8433 1.7632 0.4661
v  0.8450 1.7733 0.2985
v  0.9528 1.6108 0.1884
v  -0.9814 0.5164 0.8564
v  -0.4490 0.4289 0.8790
v  -0.4231 0.6452 0.8973
v  -0.2868 0.9106 0.8042
v  -0.3094 0.7223 0.7855
v  0.3033 0.0525 0.7016
v  0.0754 0.1505 0.7144
v  0.6049 0.1636 0.1720
v  0.5258 0.1636 0.3273
v  0.6533 0.1505 0.4199
v  0.8458 1.7695 -0.3568
v  0.9608 1.5941 -0.3403
v  -0.7236 2.0837 -0.1783
v  -0.6922 2.0629 0.7212
v  -0.7985 2.1085 0.5552
v  -0.2400 2.1754 0.6559
v  -0.7659 2.2353 0.6544
v  -0.7459 2.2341 0.8836
v  -0.0031 0.4146 0.2415
v  -0.1261 0.4029 0.1464
v  -0.0850 0.1661 0.1165
v  0.3244 0.4029 -0.0000
v  0.2768 0.4029 0.1464
v  0.2357 0.1661 0.1165
v  -0.6040 0.1505 0.2208
v  -0.5215 0.0525 0.4336
v  -0.8108 2.1072 -0.0000
v  -0.2403 2.1688 -0.8791
v  -0.7674 2.2283 -0.8757
v  -0.7778 2.2187 -0.6407
v  0.8539 0.7693 -0.6506
v  0.8388 0.5773 -0.3203
v  0.8399 0.5864 -0.4990
v  0.8613 0.7646 -0.5064
v  0.8539 0.7693 0.6506
v  0.8613 0.7646 0.5064
v  0.8424 0.6075 0.6202
v  -0.8517 0.7305 -0.7274
v  -0.7757 1.5651 -0.7595
v  -0.9187 1.0774 -0.7686
v  -0.3708 1.0816 -0.9426
v  -0.8996 1.1453 -0.9390
v  -0.8845 1.3641 -0.9272
v  -0.1280 0.1736 -0.6258
v  0.0754 0.1505 -0.7144
v  0.0754 0.0525 -0.7377
v  0.4324 0.1736 -0.4914
v  0.5610 0.1706 -0.3528
v  -0.9680 0.7239 0.3573
v  -0.8875 0.7218 0.1783
v  -0.9804 0.4750 0.2191
v  -0.8875 0.7218 -0.1783
v  -0.9681 0.7234 -0.3572
v  -0.6262 0.0525 -0.2280
v  -0.6623 0.0525 -0.0000
v  -0.6262 0.0525 0.2280
v  0.8123 0.4223 -0.0000
v  -0.3354 0.5062 -0.0000
v  -0.3352 0.5083 -0.1895
v  -0.4519 0.4046 -0.0000
v  -0.9818 0.4720 -0.0000
v  -0.3582 0.0525 -0.5968
v  -0.5215 0.0525 -0.4336
v  0.8269 0.5931 -0.1588
v  -0.3969 0.8654 0.9202
v  -0.9306 0.9493 0.9010
v  -0.9498 0.7076 0.8934
v  -0.8517 0.7307 0.7274
v  -0.8483 1.5803 -0.9390
v  -0.3186 1.5170 -0.9426
v  -0.3287 1.2974 -0.9377
v  -0.2415 1.2870 -0.8246
v  -0.2238 2.1686 -0.4307
v  -0.2400 2.1754 -0.6559
v  -0.1493 2.0520 -0.5709
v  -0.2661 1.9532 0.8973
v  -0.1506 2.0462 0.7696
v  -0.9492 0.7321 -0.7385
v  0.9511 1.5963 -0.4562
v  0.9013 1.0981 0.3287
v  0.9013 1.0981 0.1620
v  0.4621 0.1736 0.5323
v  0.9511 1.5963 0.4562
v  -0.2415 1.2870 0.8246
v  -0.1618 0.3980 -0.0000
v  -0.1661 0.5061 0.0785
v  -0.1301 0.5061 -0.1493
v  -0.1131 0.1661 -0.0612
v  -0.1301 0.4146 -0.1493
v  0.1919 0.1661 -0.1603
v  -0.7871 2.0838 -0.7317
v  -0.7935 2.0898 -0.5417
v  -0.9425 0.8849 0.7667
v  -0.9587 0.7135 0.7576
v  -0.9576 0.7287 0.5423
v  -0.8126 1.9117 0.7448
v  -0.1526 0.0525 0.7016
v  -0.1101 0.1706 0.5709
v  -0.2757 0.1636 0.4832
v  0.9523 1.7242 0.2857
v  0.9617 1.7357 0.1868
v  -0.3582 0.0525 0.5968
v  -0.8182 1.9246 -0.7630
v  -0.6922 2.0629 -0.7212
v  0.1487 0.3980 0.2256
v  0.0754 0.1661 0.1982
v  0.2808 0.5061 0.1493
v  0.1487 0.3980 -0.2256
v  0.0754 0.5061 -0.2539
v  0.2808 0.5061 -0.1493
v  0.3122 0.4029 -0.0770
v  0.4026 0.1636 0.4504
v  0.8805 0.9252 0.5113
v  0.8364 1.0194 0.4264
v  0.8918 1.0844 0.6600
v  0.9705 1.7437 -0.1371
v  0.9708 1.7459 -0.0201
v  0.9610 1.7306 -0.2861
v  0.9704 1.7423 -0.1773
v  0.9705 1.7437 0.1371
v  0.9532 1.6136 0.0300
v  -0.4515 0.4077 0.2193
v  -0.3352 0.5083 0.1895
v  -0.2403 2.1688 0.8791
v  -0.3094 0.7223 -0.7855
v  -0.3328 0.5268 -0.7692
v  -0.9823 0.5089 -0.6469
v  -0.9752 0.4957 -0.8755
v  -0.9576 0.7282 -0.5423
v  -0.2443 1.0967 0.8123
v  -0.7455 2.2482 -0.4392
v  -0.2345 1.4778 -0.8330
v  -0.1483 2.0658 0.1894
v  -0.9606 0.7260 -0.0000
v  0.0754 0.5061 0.2539
v  0.7920 0.4174 -0.1576
v  0.8131 0.0525 -0.0000
v  0.7012 0.1736 0.2033
v  0.9685 1.7244 -0.4583
v  0.9513 1.7458 -0.3370
v  0.2609 0.1706 -0.5709
v  0.3033 0.0525 -0.7016
v  -0.5249 0.1706 -0.0000
v  -0.8675 1.4080 -0.7704
v  -0.8391 1.7437 -0.7608
v  0.5090 0.0525 -0.5968
v  0.9600 1.7189 0.4480
v  -0.7871 2.0837 0.7316
v  -0.4490 0.4291 -0.8790
v  -0.2774 0.1706 -0.4856
v  0.8730 0.9284 0.6575
v  -0.1965 1.6633 0.8042
v  -0.8087 2.1049 0.1785
v  -0.8020 2.0983 0.3606
v  0.9608 1.7269 0.3458
v  -0.8391 1.7437 0.7609
v  -0.8020 2.0983 -0.3607
v  0.8269 0.5931 0.1588
v  0.8346 0.6089 -0.6409
v  0.8730 0.9284 -0.6575
v  -0.8847 1.4102 0.7798
v  0.8363 1.0185 0.0500
v  0.8440 1.7680 -0.1921
v  0.9671 1.7125 -0.6313
v  -0.9994 0.5958 -0.1917
v  -0.9800 0.5599 -0.1321
v  -0.9775 0.5803 -0.0685
v  -0.9788 0.5696 0.0834
v  -1.0006 0.5858 0.1876
v  -0.9994 0.5958 0.0726
v  -0.9732 0.6163 0.1808
v  -0.9823 0.5405 0.0689
v  -1.0024 0.5708 -0.0000
v  -0.9838 0.5278 -0.0636
v  -0.9030 1.2439 -0.7780
v  -0.9713 0.6324 -0.0636
v  -0.9737 0.6120 -0.0000
v  -0.9943 0.6379 0.0555
v  -1.0088 0.5180 0.0233
v  -0.9724 0.6235 -0.1585
v  0.8164 0.4562 0.6313
v  0.5090 0.0525 0.5968
v  0.7770 0.0525 0.2280
v  -0.1526 0.0525 -0.7016
v  0.0754 0.0525 0.7377
v  0.6722 0.0525 0.4336
v  0.8164 0.4562 -0.6313
v  0.9671 1.7125 0.6313
v  -0.9670 0.6684 0.0487
# 287 vertices

vn -0.0772 -0.9960 -0.0446
vn -0.0723 -0.9962 -0.0475
vn 0.0083 -0.9976 -0.0687
vn 0.2715 0.9614 -0.0441
vn 0.2686 0.9629 -0.0260
vn 0.2659 0.9636 -0.0259
vn 0.1296 0.0305 0.9911
vn 0.2478 0.0239 0.9685
vn 0.2423 0.0346 0.9696
vn 0.0006 -0.9983 -0.0585
vn 0.1280 0.0648 0.9897
vn 0.1058 -0.0877 -0.9905
vn 0.1143 -0.0584 -0.9917
vn 0.1034 -0.0865 -0.9909
vn 0.2861 0.9578 0.0257
vn 0.2852 0.9584 -0.0084
vn 0.2676 0.9635 -0.0000
vn 0.9978 -0.0666 -0.0000
vn 0.9929 -0.1191 -0.0000
vn 0.9929 -0.1190 0.0008
vn -0.0121 0.9999 0.0039
vn -0.0103 0.9999 0.0075
vn 0.0127 0.9999 -0.0000
vn -0.1100 -0.9936 -0.0253
vn -0.1356 -0.9904 -0.0254
vn -0.1347 -0.9903 -0.0351
vn -0.0165 0.0020 0.9999
vn -0.0246 -0.0695 0.9973
vn 0.0009 -0.0726 0.9974
vn 0.0000 0.9999 -0.0127
vn -0.0039 0.9999 -0.0121
vn 0.1280 0.0648 -0.9897
vn 0.1268 0.0611 -0.9900
vn 0.1286 0.0598 -0.9899
vn 0.9919 -0.1159 -0.0511
vn 0.2444 -0.0302 -0.9692
vn 0.1312 0.0598 -0.9896
vn 0.0095 -0.0011 1.0000
vn 0.0180 0.0704 0.9974
vn -0.0078 0.0735 0.9973
vn 0.1281 0.9918 -0.0000
vn 0.1027 0.9947 -0.0000
vn 0.1028 0.9944 0.0250
vn 0.9929 -0.1190 0.0004
vn 0.9920 -0.1164 0.0496
vn -0.0056 -0.9994 0.0332
vn 0.0010 -0.9983 0.0584
vn -0.0771 -0.9961 0.0436
vn -0.1106 -0.9933 0.0350
vn -0.1112 -0.9933 0.0313
vn -0.1345 -0.9904 0.0313
vn -0.0684 -0.9966 0.0460
vn -0.0722 -0.9962 0.0480
vn -0.0716 -0.9962 0.0487
vn 0.0204 0.0910 -0.9956
vn 0.0216 0.1009 -0.9947
vn -0.0042 0.1041 -0.9946
vn -0.0277 -0.1002 -0.9946
vn -0.0029 -0.1031 -0.9947
vn -0.0018 -0.0935 -0.9956
vn 0.1280 0.9915 -0.0248
vn 0.1028 0.9944 -0.0250
vn -0.0055 0.0941 -0.9955
vn 0.0000 0.9999 0.0127
vn 0.0039 0.9999 0.0121
vn 0.6945 0.6832 -0.2257
vn 0.9264 0.2263 -0.3010
vn 0.7880 0.2263 -0.5725
vn -0.1351 -0.9902 0.0352
vn -0.1104 -0.9934 -0.0313
vn -0.1102 -0.9933 -0.0351
vn -0.0275 -0.0903 -0.9955
vn -0.0055 0.0941 0.9955
vn -0.0042 0.1041 0.9946
vn 0.0216 0.1009 0.9947
vn -0.1421 0.0796 -0.9866
vn -0.1575 0.0487 -0.9863
vn -0.0713 -0.0441 -0.9965
vn 0.9849 -0.1729 0.0040
vn -0.0103 0.9999 -0.0075
vn -0.0121 0.9999 -0.0039
vn -0.3090 0.0000 -0.9511
vn 0.0000 0.0000 -1.0000
vn 0.1035 0.9940 0.0358
vn 0.1278 0.9912 0.0355
vn 0.1280 0.9915 0.0248
vn 0.2715 0.9614 0.0441
vn 0.2756 0.9601 0.0478
vn 0.2976 0.9518 0.0744
vn 0.2906 0.9552 0.0558
vn 0.9929 -0.1190 0.0006
vn -0.0232 -0.0815 0.9964
vn -0.0017 -0.0841 0.9965
vn -0.0018 -0.0935 0.9956
vn 0.1058 -0.0877 0.9905
vn 0.1006 -0.0920 0.9907
vn 0.1034 -0.0865 0.9909
vn 0.3010 0.2263 0.9264
vn 0.2257 0.6832 0.6945
vn 0.0000 0.6832 0.7303
vn -0.0389 0.9992 -0.0127
vn -0.0331 0.9992 -0.0241
vn 0.1912 0.9717 0.1389
vn 0.2928 0.9546 -0.0553
vn 0.9929 -0.1190 -0.0004
vn -0.1477 -0.9889 0.0186
vn -0.1337 -0.9905 -0.0307
vn -0.2196 -0.9752 -0.0289
vn 0.1278 0.9913 0.0317
vn 0.1038 0.9941 0.0318
vn 0.1063 0.9939 0.0282
vn -0.3090 0.0000 0.9511
vn -0.5878 0.0000 0.8090
vn 1.0000 0.0000 -0.0000
vn 0.9511 0.0000 0.3090
vn -0.6945 0.6832 0.2257
vn -0.5908 0.6832 0.4292
vn -0.1912 0.9717 0.1389
vn -0.0127 0.9992 -0.0389
vn 0.0000 0.9992 -0.0409
vn 0.0000 0.9717 0.2363
vn -0.9579 0.2859 -0.0252
vn -0.9852 0.1703 -0.0206
vn -0.9837 0.1797 -0.0000
vn 0.1269 0.9915 -0.0282
vn 0.1064 0.9939 -0.0282
vn 0.1038 0.9941 -0.0318
vn 0.2257 -0.0818 -0.9708
vn 0.2257 -0.0818 0.9708
vn 0.9911 -0.1217 0.0538
vn 0.9910 -0.1223 0.0548
vn -0.0318 0.0879 0.9956
vn -0.0713 -0.0441 0.9965
vn -0.1393 0.0793 0.9871
vn 0.0009 -0.0726 -0.9974
vn -0.0246 -0.0695 -0.9973
vn -0.0165 0.0020 -0.9999
vn -0.2257 0.6832 -0.6945
vn 0.0000 0.6832 -0.7303
vn 0.0000 0.2263 -0.9741
vn 0.1389 0.9717 -0.1912
vn 0.1912 0.9717 -0.1389
vn 0.5908 0.6832 -0.4292
vn -0.9963 0.0813 0.0266
vn -0.9982 0.0569 0.0175
vn -0.9998 -0.0078 0.0187
vn -0.9998 -0.0078 -0.0186
vn -0.9982 0.0567 -0.0174
vn -0.9964 0.0811 -0.0265
vn -0.6945 0.6832 -0.2257
vn -0.2247 0.9717 -0.0730
vn -0.1912 0.9717 -0.1389
vn -0.9741 0.2263 -0.0000
vn -0.9264 0.2263 0.3010
vn -0.0080 -1.0000 -0.0000
vn -0.0822 -0.9966 -0.0000
vn -0.0809 -0.9964 -0.0261
vn -0.1100 -0.9939 -0.0000
vn -0.1357 -0.9908 -0.0000
vn -0.4292 0.6832 -0.5908
vn -0.5908 0.6832 -0.4292
vn 0.0000 0.9717 -0.2363
vn -0.0730 0.9717 -0.2247
vn 0.0127 0.9992 0.0389
vn 0.9851 -0.1721 0.0033
vn 0.9850 -0.1724 0.0019
vn -0.0029 -0.1031 0.9947
vn -0.0277 -0.1002 0.9946
vn -0.0275 -0.0903 0.9955
vn -0.0318 0.0880 -0.9956
vn -0.0078 0.0735 -0.9973
vn 0.0180 0.0704 -0.9974
vn 0.0095 -0.0011 -1.0000
vn 0.1232 -0.0140 -0.9923
vn 0.1278 0.9912 -0.0355
vn 0.1278 0.9913 -0.0317
vn 0.2796 0.9589 -0.0480
vn 0.2785 0.9593 -0.0456
vn 0.2756 0.9601 -0.0478
vn 0.0204 0.0910 0.9956
vn 0.1268 0.0611 0.9900
vn -0.9914 0.0998 -0.0850
vn -0.9933 0.1151 -0.0061
vn -0.9948 0.1007 -0.0117
vn -0.9995 0.0196 -0.0255
vn 0.9928 -0.1194 -0.0027
vn 0.1389 0.9717 0.1912
vn 0.2796 0.9589 0.0480
vn 0.9928 -0.1194 0.0027
vn 0.9919 -0.1159 0.0511
vn 0.7789 -0.0511 0.6251
vn 0.7769 -0.0932 0.6227
vn 0.7832 -0.0940 0.6146
vn 0.7622 -0.1514 0.6293
vn 0.7679 -0.1510 0.6225
vn 0.7607 -0.1535 0.6307
vn -0.9990 -0.0454 -0.0000
vn -1.0000 0.0000 -0.0000
vn -0.9511 0.0000 -0.3090
vn -0.8090 0.0000 -0.5878
vn -0.5878 0.0000 -0.8090
vn -0.9922 0.1246 -0.0081
vn -0.9939 0.1060 -0.0299
vn -0.9741 0.2246 -0.0246
vn -0.9914 0.0997 0.0851
vn -0.9945 0.1033 -0.0174
vn -0.9933 0.1152 0.0061
vn -0.9995 0.0196 0.0256
vn -0.9984 0.0528 0.0204
vn -0.9929 0.1166 0.0239
vn -0.9816 0.1464 0.1226
vn -0.9857 0.1402 0.0938
vn -0.9904 0.1375 -0.0140
vn 0.0103 0.9999 -0.0075
vn 0.0075 0.9999 -0.0103
vn 0.7303 0.6832 -0.0000
vn -0.2257 0.6832 0.6945
vn -0.0730 0.9717 0.2247
vn -0.1389 0.9717 0.1912
vn -0.0075 0.9999 0.0103
vn -0.0039 0.9999 0.0121
vn 0.3158 0.9476 0.0477
vn 0.3364 0.9405 0.0479
vn 0.3387 0.9397 0.0479
vn 0.3332 0.9427 0.0175
vn 0.3110 0.9503 0.0175
vn -0.5725 0.2263 0.7880
vn -0.4292 0.6832 0.5908
vn -0.1334 -0.0616 0.9891
vn -0.0419 -0.0703 0.9966
vn 0.5878 0.0000 0.8090
vn 0.3090 0.0000 0.9511
vn 0.8090 0.0000 0.5878
vn 0.8082 -0.0454 0.5872
vn 0.9501 -0.0454 0.3087
vn 0.3087 -0.0454 -0.9501
vn 0.3090 0.0000 -0.9511
vn 0.5878 0.0000 -0.8090
vn 0.8090 0.0000 -0.5878
vn 0.0075 0.9999 0.0103
vn 0.0730 0.9717 0.2247
vn -0.0241 0.9992 -0.0331
vn 0.9911 -0.1217 -0.0538
vn 0.9915 -0.1190 -0.0526
vn 0.9915 -0.1190 0.0526
vn 0.9931 -0.1176 -0.0012
vn 0.9963 -0.0860 -0.0018
vn 0.9964 -0.0845 -0.0018
vn 0.9930 -0.1185 0.0001
vn 0.9960 -0.0889 -0.0018
vn 0.9965 -0.0832 -0.0022
vn 0.3323 0.9430 0.0175
vn 0.9929 -0.1190 0.0007
vn 0.9979 -0.0651 -0.0011
vn -0.9579 0.2858 0.0252
vn -0.9546 0.2979 -0.0000
vn -0.9733 0.2137 0.0840
vn -0.9741 0.2246 0.0246
vn -0.9939 0.1061 0.0299
vn -0.1356 -0.9904 0.0254
vn -0.1100 -0.9936 0.0253
vn -0.0808 -0.9964 0.0254
vn 0.8259 0.5635 0.0213
vn 0.8298 0.5575 0.0225
vn 0.8299 0.5574 0.0229
vn 0.1269 0.9915 0.0282
vn 0.7622 -0.1514 -0.6293
vn 0.7560 -0.1484 -0.6375
vn 0.7607 -0.1535 -0.6307
vn 0.1001 -0.0874 -0.9911
vn 0.1006 -0.0921 -0.9907
vn -0.9823 0.1146 0.1485
vn -0.9801 0.1359 0.1444
vn -0.9906 0.1317 0.0359
vn -0.1337 -0.9905 -0.0313
vn -0.1306 -0.9910 -0.0289
vn -0.9967 0.0510 -0.0633
vn -0.9984 0.0529 -0.0204
vn -0.9929 0.1165 -0.0240
vn 0.7762 -0.1299 0.6170
vn 0.7689 -0.1346 0.6251
vn -0.9653 0.2587 -0.0346
vn 0.1035 0.9940 -0.0358
vn 0.7819 -0.0349 -0.6225
vn 0.7754 -0.0308 -0.6307
vn 0.7693 -0.0348 -0.6379
vn 0.7769 -0.0932 -0.6227
vn 0.7789 -0.0511 -0.6251
vn 0.7849 -0.0574 -0.6170
vn 0.2686 0.9629 0.0260
vn 0.8261 0.5632 -0.0163
vn 0.8261 0.5635 -0.0000
vn 0.8307 0.5566 -0.0000
vn -0.9988 0.0488 -0.0000
vn -0.9999 -0.0171 -0.0000
vn 0.3087 -0.0454 0.9501
vn 0.5872 -0.0454 0.8082
vn -0.8090 0.0000 0.5878
vn -0.8082 -0.0454 0.5872
vn -0.5872 -0.0454 0.8082
vn 0.9851 -0.1721 -0.0033
vn 0.9850 -0.1724 -0.0019
vn 0.8082 -0.0454 -0.5872
vn 0.5872 -0.0454 -0.8082
vn 0.9741 0.2263 -0.0000
vn 0.6945 0.6832 0.2257
vn 0.0752 0.9971 0.0149
vn 0.0967 0.9950 0.0240
vn 0.0031 0.9998 0.0194
vn 0.3636 0.9280 -0.0813
vn 0.9956 -0.0939 -0.0002
vn 0.9967 -0.0817 -0.0013
vn 0.9927 -0.1210 0.0024
vn 0.0039 0.9999 -0.0121
vn 0.0730 0.9717 -0.2247
vn 0.2257 0.6832 -0.6945
vn -0.2363 0.9717 -0.0000
vn -0.7303 0.6832 -0.0000
vn -0.0127 0.9999 -0.0000
vn -0.9822 0.1145 -0.1487
vn -0.9920 0.1189 -0.0429
vn -0.9906 0.1317 -0.0360
vn -0.9801 0.1359 -0.1444
vn -0.9902 0.1391 -0.0152
vn -0.9897 0.0932 -0.1086
vn -0.9856 0.0967 -0.1385
vn 0.4292 0.6832 -0.5908
vn 0.9960 -0.0889 0.0018
vn 0.9930 -0.1185 -0.0001
vn 0.9982 -0.0597 0.0068
vn -0.9922 0.1245 0.0081
vn -0.9967 0.0510 0.0633
vn 0.0792 0.9968 -0.0145
vn 0.0063 0.9998 -0.0205
vn -0.0032 0.9998 -0.0182
vn -0.9733 0.2136 -0.0841
vn -0.9904 0.1376 0.0140
vn 0.7681 -0.1448 -0.6238
vn 0.7365 -0.1443 -0.6609
vn -0.1116 -0.9933 -0.0288
vn -0.8082 -0.0454 -0.5872
vn -0.9501 -0.0454 -0.3087
vn 0.0000 -0.0454 -0.9990
vn -0.3087 -0.0454 -0.9501
vn -0.1389 0.9717 -0.1912
vn -0.0075 0.9999 -0.0103
vn 0.1296 0.0305 -0.9911
vn 0.2358 -0.0605 0.9699
vn 0.2444 -0.0302 0.9692
vn 0.9913 -0.1205 0.0531
vn 0.1143 -0.0584 0.9917
vn 0.7849 -0.0574 0.6170
vn 0.7819 -0.0349 0.6225
vn 0.7754 -0.0308 0.6307
vn 0.7763 -0.0333 0.6295
vn 0.7693 -0.0348 0.6379
vn 0.3121 0.9499 -0.0155
vn 0.3342 0.9424 -0.0155
vn 0.3330 0.9428 -0.0155
vn 0.7689 -0.1346 -0.6251
vn 0.7762 -0.1299 -0.6170
vn 0.7679 -0.1510 -0.6225
vn 0.8304 0.5570 0.0142
vn 0.8261 0.5632 0.0163
vn 0.8260 0.5631 0.0235
vn -0.9852 0.1703 0.0206
vn -0.9893 0.1422 0.0332
vn -0.9653 0.2588 0.0346
vn -0.2321 -0.9723 -0.0267
vn -0.2426 -0.9700 -0.0158
vn 0.8259 0.5635 -0.0213
vn 0.8298 0.5576 -0.0225
vn 0.8386 0.5445 -0.0190
vn -0.0031 0.0842 -0.9964
vn 0.0181 0.0816 -0.9965
vn 0.6761 -0.7365 -0.0216
vn 0.6708 -0.7414 -0.0219
vn 0.6708 -0.7413 -0.0200
vn 0.6719 -0.7407 -0.0000
vn 0.6712 -0.7411 -0.0161
vn 0.6762 -0.7366 -0.0140
vn 0.3506 0.9342 0.0662
vn 0.3240 0.9438 0.0655
vn 0.9967 -0.0817 0.0013
vn 0.9956 -0.0939 0.0002
vn 0.9927 -0.1210 -0.0024
vn -0.9897 0.0932 0.1083
vn -0.9857 0.0968 0.1381
vn -0.9937 0.1064 0.0360
vn -0.9948 0.1007 0.0118
vn 0.6712 -0.7411 0.0161
vn 0.6758 -0.7369 0.0139
vn 0.6754 -0.7371 0.0214
vn 0.6768 -0.7362 -0.0000
vn -0.1334 -0.0616 -0.9892
vn -0.1383 -0.0557 -0.9888
vn -0.9902 0.1391 0.0152
vn 0.6767 -0.7360 0.0206
vn 0.6883 -0.7252 0.0188
vn 0.6492 -0.7604 0.0206
vn 0.7560 -0.1484 0.6375
vn 0.7365 -0.1443 0.6609
vn 0.7681 -0.1448 0.6237
vn 0.8304 0.5570 -0.0142
vn 0.8299 0.5574 -0.0229
vn 0.8260 0.5631 -0.0235
vn 0.7800 -0.0415 0.6244
vn 0.7490 -0.0344 0.6616
vn 0.8073 0.5899 0.0200
vn 0.8386 0.5445 0.0190
vn -0.9893 0.1422 -0.0332
vn -0.2196 -0.9752 0.0290
vn -0.1337 -0.9905 0.0307
vn 0.9851 -0.1721 -0.0000
vn -0.0057 -0.9994 -0.0333
vn 0.0121 0.9999 -0.0039
vn 0.9910 -0.1223 -0.0548
vn -0.0684 -0.9967 -0.0445
vn -0.0721 -0.9963 -0.0472
vn 0.9913 -0.1205 -0.0531
vn 0.2358 -0.0605 -0.9699
vn 0.2247 0.9717 0.0730
vn -0.3087 -0.0454 0.9501
vn -0.9920 0.1189 0.0429
vn -0.0410 0.9992 -0.0000
vn 0.0103 0.9999 0.0075
vn 0.0121 0.9999 0.0039
vn 0.6764 -0.7362 -0.0210
vn 0.6471 -0.7621 -0.0201
vn 0.0241 0.9992 0.0331
vn 0.9964 -0.0847 0.0007
vn 0.9962 -0.0867 0.0007
vn 0.9930 -0.1183 -0.0000
vn -0.1124 -0.9932 0.0289
vn -0.1313 -0.9909 0.0288
vn 0.3582 0.9333 -0.0250
vn 0.3808 0.9242 -0.0298
vn 0.3769 0.9258 -0.0290
vn 0.3364 0.9405 -0.0479
vn 0.3158 0.9476 -0.0477
vn -0.9857 0.1402 -0.0938
vn -0.9816 0.1464 -0.1225
vn 0.7832 -0.0940 -0.6146
vn 0.3454 0.9361 -0.0666
vn 0.2423 0.0346 -0.9696
vn 0.6723 -0.7400 0.0199
vn 0.6713 -0.7409 0.0213
vn -0.9511 0.0000 0.3090
vn -0.9501 -0.0454 0.3087
vn 0.7490 -0.0344 -0.6616
vn 0.7800 -0.0415 -0.6244
vn 0.7763 -0.0333 -0.6295
vn 0.0181 0.0816 0.9965
vn -0.0031 0.0842 0.9964
vn -0.0176 0.9998 -0.0000
vn -0.1226 0.0963 0.9878
vn -0.0026 0.9998 0.0197
vn 0.0000 -0.0454 0.9990
vn 0.0000 0.0000 1.0000
vn 0.4292 0.6832 0.5908
vn -0.9906 0.1189 -0.0675
vn -0.9990 0.0411 -0.0153
vn -0.9822 0.1854 0.0317
vn -0.0018 -0.0841 -0.9965
vn -0.0233 -0.0815 -0.9964
vn -0.9906 0.1189 0.0675
vn -0.1115 0.9759 0.1876
vn -0.0227 0.9796 0.1995
vn -0.0119 0.9999 -0.0000
vn 0.9990 -0.0454 -0.0000
vn 0.9501 -0.0454 -0.3087
vn 0.9511 0.0000 -0.3090
vn 0.9964 -0.0581 -0.0616
vn 0.9982 -0.0597 -0.0068
vn 0.2275 0.0377 -0.9730
vn 0.9965 -0.0832 0.0022
vn 0.9978 -0.0665 0.0030
vn -0.5872 -0.0454 -0.8082
vn 0.2876 0.9570 -0.0381
vn 0.3423 0.9390 -0.0325
vn 0.3387 0.9397 -0.0479
vn 0.8073 0.5899 -0.0200
vn -0.9797 0.2006 -0.0000
vn -0.9981 0.0522 -0.0317
vn -0.0612 0.8958 0.4402
vn 0.1232 -0.0140 0.9923
vn -0.9937 0.1064 -0.0360
vn -0.1637 0.0070 0.9865
vn -0.1562 0.0476 0.9866
vn -0.9960 0.0715 -0.0533
vn -0.9990 0.0411 0.0153
vn 0.3010 0.2263 -0.9264
vn -0.2713 -0.8559 -0.4402
vn -0.2537 -0.9465 -0.1995
vn -0.3392 -0.9218 -0.1876
vn 0.9849 -0.1729 -0.0040
vn -0.3010 0.2263 0.9264
vn 0.2785 0.9593 0.0456
vn -0.9804 0.1964 0.0153
vn -0.1440 0.8990 -0.4136
vn -0.0612 0.8958 -0.4402
vn -0.1461 0.6415 -0.7530
vn 0.6871 -0.7263 -0.0186
vn 0.1001 -0.0874 0.9911
vn -0.0127 0.9998 0.0179
vn -0.0055 0.9998 -0.0197
vn 0.1312 0.0598 0.9896
vn 0.0089 -0.9976 0.0687
vn -0.0017 -0.9976 0.0691
vn 0.2167 -0.0892 0.9722
vn 0.5725 0.2263 0.7880
vn 0.5908 0.6832 0.4292
vn 0.9264 0.2263 0.3010
vn -0.3010 0.2263 -0.9264
vn 0.7021 -0.0530 0.7101
vn 0.7001 -0.0256 0.7135
vn 0.7002 -0.0258 0.7135
vn 0.3460 0.9370 0.0492
vn 0.3508 0.9342 0.0639
vn 0.0000 0.2263 0.9741
vn -0.2456 -0.9694 -0.0000
vn 0.9807 -0.1839 0.0668
vn 0.2038 -0.0881 0.9750
vn 0.2582 -0.9661 -0.0000
vn 0.7880 0.2263 0.5725
vn 0.2167 -0.0892 -0.9722
vn -0.0022 -0.9976 -0.0688
vn -0.1512 -0.0564 0.9869
vn 0.3508 0.9342 -0.0640
vn 0.3460 0.9370 -0.0492
vn 0.9978 -0.0661 -0.0030
vn 0.9981 -0.0624 0.0002
vn -0.1637 0.0070 -0.9865
vn 0.3682 -0.0327 -0.9292
vn 0.3703 -0.0240 -0.9286
vn 0.3727 -0.0113 -0.9279
vn 0.3453 0.9361 0.0666
vn 0.3636 0.9280 0.0813
vn 0.3458 0.9360 0.0661
vn -0.1513 -0.0564 -0.9869
vn -0.1440 0.8990 0.4136
vn -0.2480 -0.9688 -0.0000
vn -0.2537 -0.9465 0.1995
vn -0.3392 -0.9218 0.1876
vn -0.1176 0.0922 -0.9888
vn 0.9964 -0.0580 0.0617
vn -0.2318 -0.9724 0.0267
vn 0.2038 -0.0881 -0.9750
vn 0.9807 -0.1839 -0.0668
vn -0.2713 -0.8559 0.4402
vn -0.3526 -0.8394 0.4136
vn 0.0963 0.9951 -0.0226
vn -0.1228 0.0964 -0.9877
vn -0.1387 -0.0556 0.9888
vn -0.2306 -0.9727 0.0267
vn 0.0331 0.9992 -0.0241
vn 0.0389 0.9992 -0.0127
vn -0.2247 0.9717 0.0730
vn 0.0000 0.9992 0.0410
vn 0.3401 0.9404 0.0015
vn 0.3401 0.9404 -0.0015
vn 0.9978 -0.0667 -0.0022
vn -0.0419 -0.0703 -0.9966
vn -0.2301 -0.9728 -0.0267
vn 0.3413 0.9394 0.0317
vn 0.3435 0.9386 0.0331
vn 0.9978 -0.0665 -0.0030
vn 0.9978 -0.0659 -0.0009
vn 0.3413 0.9394 -0.0317
# 569 vertex normals

o Pc
g Pc
s 12
f 129//213 130//214 131//215 
s 10
f 132//216 133//217 134//218 
s 9
f 135//219 136//220 137//221 
s 12
f 131//215 138//222 129//213 
s 9
f 135//219 137//221 139//223 
s 11
f 140//224 141//225 142//226 
s 10
f 143//227 144//228 145//229 
s 6
f 146//230 147//231 148//232 
s 3
f 149//233 150//234 151//235 
s 12
f 152//236 153//237 154//238 
s 9
f 155//239 156//240 157//241 
s 3
f 158//242 159//243 151//235 
s 11
f 160//244 161//245 162//246 
s 6
f 163//231 164//247 165//231 
s 11
f 162//246 166//248 167//249 
s 9
f 168//250 169//251 170//252 
s 10
f 171//253 172//254 173//255 
s 6
f 174//256 136//257 175//231 
s 12
f 176//258 177//259 178//260 
f 179//261 180//262 181//263 
f 182//264 183//265 184//266 
s 11
f 185//267 186//268 187//269 
f 188//270 189//271 190//272 
s 10
f 171//253 191//273 192//274 
s 11
f 187//269 193//275 185//267 
s 3
f 194//276 195//277 151//235 
s 1
f 196//278 197//279 198//280 
s 12
f 181//263 199//281 179//261 
f 200//282 201//283 154//238 
s 11
f 190//272 202//284 188//270 
s 9
f 203//285 204//286 205//287 
s 27
f 206//288 207//289 208//290 
s 8
f 165//231 209//231 210//231 
s 6
f 211//231 212//231 213//291 
s 3
f 214//292 215//293 151//235 
s 150
f 216//294 217//294 218//295 
s 10
f 219//296 220//297 221//298 
f 222//299 223//300 224//301 
f 224//301 225//302 222//299 
s 6
f 175//231 226//303 174//256 
s 9
f 227//304 228//305 229//306 
f 230//307 231//308 184//309 
s 1
f 232//310 195//311 233//312 
f 234//313 235//314 236//315 
s 10
f 134//218 237//316 132//216 
s 6
f 165//231 164//247 238//317 
s 29
f 239//318 240//319 241//320 
s 10
f 242//321 243//322 244//323 
s 150
f 245//324 246//325 247//325 
f 248//326 249//327 250//327 
s 1
f 251//328 252//329 150//330 
f 195//331 194//332 233//333 
s 26
f 192//334 239//335 253//336 
s 10
f 254//337 255//338 256//339 
s 11
f 142//226 141//225 257//340 
s off
f 258//231 259//231 260//231 
s 9
f 135//219 184//309 261//341 
s 6
f 262//231 261//342 263//343 
s 31
f 264//344 265//345 266//346 
s 11
f 267//347 268//348 269//349 
s 1
f 270//350 271//351 272//352 
f 273//353 274//354 198//355 
s 26
f 275//356 276//357 277//358 
f 153//359 278//360 279//361 
s 1
f 280//362 215//363 214//364 
f 281//365 282//366 251//328 
s 12
f 283//367 284//368 285//369 
f 152//236 286//370 287//371 
s 1
f 288//372 289//373 214//364 
f 271//374 270//375 159//376 
s off
f 210//231 209//231 290//231 
s 6
f 211//231 177//377 176//378 
s 9
f 291//379 292//380 293//381 
s 27
f 206//288 208//290 294//382 
s 11
f 295//383 296//384 297//385 
f 166//248 141//225 298//386 
s 10
f 299//387 300//388 256//339 
f 162//389 161//390 301//391 
s 9
f 205//287 302//392 203//285 
f 303//393 139//223 137//221 
s 26
f 202//394 304//395 266//396 
f 279//361 154//397 153//359 
s 6
f 305//398 238//317 164//247 
s 10
f 301//391 237//316 162//389 
s 6
f 136//257 306//231 307//231 
s 1
f 308//399 236//315 235//314 
s 10
f 137//400 224//301 223//300 
s 6
f 309//401 137//402 136//257 
s 9
f 169//403 168//404 310//405 
f 231//406 230//407 291//408 
s 151
f 311//409 312//410 313//411 
s 150
f 314//411 311//411 315//412 
f 250//327 316//326 248//326 
f 216//413 314//412 315//412 
s 26
f 317//414 318//415 256//416 
f 293//417 319//418 320//419 
f 199//420 181//421 321//422 
f 204//423 203//424 322//425 
s 3
f 274//426 273//427 151//235 
s 1
f 197//279 196//278 151//428 
f 323//429 324//430 325//431 
s 3
f 325//432 324//433 151//235 
s 47
f 225//434 326//435 327//436 
s 90
f 146//437 144//438 143//438 
s 1
f 328//439 325//440 252//329 
s 31
f 329//441 265//345 330//442 
s 11
f 296//384 295//383 187//269 
s 150
f 249//443 331//444 332//444 
s 151
f 333//445 249//446 248//447 
f 334//448 335//449 336//450 
s 150
f 316//450 334//450 337//451 
s 3
f 195//277 338//452 151//235 
s 1
f 195//453 308//399 338//454 
s 6
f 257//455 260//231 259//231 
f 164//247 163//231 166//456 
f 339//231 340//231 341//457 
s 36
f 148//458 342//459 343//460 
s 93
f 238//461 344//462 345//463 
s 90
f 143//438 346//464 146//437 
s 6
f 175//231 347//465 346//466 
s 26
f 173//467 172//468 253//336 
f 244//469 243//470 241//471 
s 12
f 277//472 348//473 179//261 
f 178//260 349//474 176//258 
s 10
f 242//475 223//476 222//477 
f 244//323 350//478 242//321 
s 11
f 351//479 190//480 189//481 
f 352//482 351//483 142//226 
s 9
f 170//252 155//239 168//250 
s 26
f 155//484 170//485 208//486 
s 12
f 200//282 353//487 354//488 
s 26
f 354//489 353//490 355//491 
s 9
f 356//492 157//493 291//408 
f 292//380 291//379 157//241 
s 26
f 239//335 192//334 357//494 
s 10
f 357//495 192//274 191//273 
s 11
f 167//496 186//497 185//498 
f 297//499 296//500 358//501 
s 10
f 145//229 359//502 143//227 
f 191//503 171//504 145//505 
s 26
f 360//506 287//507 277//358 
s 12
f 348//473 277//472 287//371 
s 151
f 361//444 331//508 249//509 
f 312//510 246//511 245//512 
s 6
f 259//231 258//231 138//513 
f 362//514 290//231 209//231 
s 151
f 336//451 337//515 334//516 
f 248//447 336//327 333//445 
s 1
f 363//517 151//428 364//518 
s 25
f 278//519 264//520 355//521 
s 26
f 355//491 304//395 354//489 
s 10
f 162//389 237//316 365//522 
s 92
f 365//523 366//524 238//525 
s 3
f 367//526 158//242 151//235 
s 1
f 367//527 368//528 271//351 
f 369//529 281//530 251//328 
s 3
f 369//531 149//233 151//235 
s 26
f 269//532 370//533 265//534 
f 295//535 265//534 371//536 
f 266//396 188//537 202//394 
f 370//533 269//532 268//538 
s 1
f 273//353 372//539 368//528 
s 48
f 326//540 174//256 226//541 
s 6
f 137//402 309//401 373//542 
s 26
f 241//471 374//543 244//469 
f 374//543 322//425 203//424 
f 227//544 320//419 321//422 
s 25
f 276//545 321//546 320//547 
s 26
f 256//416 255//548 317//414 
f 329//549 317//414 255//548 
s 11
f 351//479 352//550 375//551 
s 12
f 354//488 375//552 200//282 
s 150
f 247//325 332//324 245//324 
s 151
f 315//553 311//554 313//411 
f 335//295 218//555 217//556 
s 1
f 214//364 376//557 288//372 
s 3
f 376//558 214//292 151//235 
s 11
f 358//559 167//249 166//248 
f 186//497 167//496 358//501 
s 9
f 135//219 377//560 341//561 
s 6
f 341//457 377//562 339//231 
s 9
f 184//309 135//219 356//563 
f 157//493 356//492 310//405 
s 26
f 277//358 276//357 360//506 
s 9
f 135//564 378//565 205//566 
f 139//567 302//568 205//566 
s 10
f 145//229 144//228 134//218 
s 35
f 144//569 343//570 342//571 
s 11
f 269//349 297//385 267//347 
f 267//572 141//573 140//574 
s 10
f 359//575 145//505 171//504 
f 359//575 221//576 220//577 
s 26
f 379//578 380//579 219//580 
s 29
f 380//581 379//582 239//318 
s 10
f 300//583 301//584 161//585 
s 11
f 255//586 254//587 185//267 
s 12
f 129//588 201//589 200//590 
f 286//591 152//592 285//593 
s 82
f 381//594 225//595 224//595 
s 95
f 381//596 373//597 309//598 
s 26
f 319//418 293//417 292//599 
f 156//600 207//601 206//602 
s 12
f 348//603 349//604 178//605 
f 285//593 284//606 286//591 
s 27
f 208//290 322//607 374//608 
s 26
f 382//609 208//486 170//485 
s 12
f 183//610 182//611 228//612 
s 9
f 229//613 228//614 182//615 
s 10
f 133//616 132//617 299//618 
f 301//584 300//583 299//618 
s 9
f 139//567 303//619 350//620 
s 10
f 242//475 350//621 303//622 
s 26
f 357//494 383//623 239//335 
s 29
f 318//624 330//625 239//318 
s 6
f 166//456 163//231 210//231 
s 8
f 210//231 163//231 165//231 
s 6
f 209//231 283//626 362//514 
s 12
f 285//369 362//627 283//367 
f 177//259 184//266 183//265 
s 6
f 213//291 212//231 263//343 
s 93
f 345//463 148//232 238//461 
s 6
f 238//317 148//232 165//231 
s 3
f 196//628 274//426 151//235 
s 1
f 196//278 198//355 274//354 
f 233//333 324//430 323//429 
f 150//330 252//329 325//440 
s 3
f 150//234 325//432 151//235 
s 6
f 209//231 384//231 176//378 
s 8
f 384//231 209//231 212//231 
s 6
f 259//231 385//629 257//455 
s 12
f 352//630 142//631 131//215 
s 6
f 210//231 386//632 166//456 
s 11
f 141//225 166//248 386//633 
s 1
f 236//315 364//634 234//313 
s 151
f 245//635 361//324 312//325 
s 1
f 215//363 280//362 281//530 
s 3
f 273//427 367//526 151//235 
s 1
f 368//528 367//527 273//353 
s 3
f 215//293 369//531 151//235 
s 1
f 281//530 369//529 215//363 
s 8
f 340//231 262//231 212//231 
s 6
f 263//343 212//231 262//231 
s 26
f 208//486 387//636 155//484 
f 207//601 156//600 155//484 
s 1
f 151//637 234//313 364//634 
s 3
f 235//638 234//639 151//235 
s 8
f 209//231 165//231 388//231 
s 6
f 347//465 175//231 147//231 
s 1
f 324//430 233//333 194//332 
s 3
f 324//433 194//276 151//235 
s 12
f 200//590 130//640 129//588 
f 130//640 200//590 375//641 
s 1
f 376//642 159//376 270//375 
s 3
f 159//243 376//558 151//235 
s 6
f 347//465 147//231 146//230 
s 94
f 146//643 346//644 347//645 
s 26
f 321//422 181//421 227//544 
s 12
f 228//646 227//647 181//263 
s 3
f 338//452 235//638 151//235 
s 1
f 235//314 338//454 308//399 
s 81
f 237//648 366//649 365//650 
s 70
f 344//651 237//652 389//652 
s 10
f 221//298 173//255 219//296 
s 26
f 219//580 173//467 379//578 
f 329//549 193//653 187//654 
f 371//536 187//654 295//535 
s 1
f 288//372 376//557 270//375 
s 11
f 297//499 298//655 141//573 
f 141//573 267//572 297//499 
s 10
f 365//522 390//656 162//389 
s 11
f 164//657 166//248 162//246 
s 9
f 135//219 341//561 136//220 
s 6
f 341//457 306//231 136//257 
s 12
f 180//658 179//659 178//605 
f 178//605 179//659 348//603 
s 150
f 246//660 311//410 314//410 
s 151
f 311//409 246//661 312//660 
s 11
f 185//498 254//662 161//663 
f 161//663 160//664 185//498 
s 47
f 327//436 143//434 225//434 
s 10
f 222//299 225//302 143//227 
s 9
f 350//665 244//666 203//285 
s 26
f 203//424 244//469 374//543 
s 150
f 316//449 216//295 218//295 
s 25
f 278//519 360//667 276//545 
s 26
f 287//507 360//506 278//360 
s 31
f 266//346 304//668 264//344 
s 25
f 304//669 355//521 264//520 
s 151
f 245//635 331//670 361//671 
s 150
f 332//671 331//671 245//324 
s 1
f 214//364 289//373 280//362 
f 308//672 195//311 232//310 
s 159
f 391//673 392//674 393//675 
s 1
f 198//355 372//539 273//353 
s 11
f 190//272 375//676 354//677 
f 375//551 190//480 351//479 
s 153
f 394//674 395//678 396//673 
f 396//679 397//680 394//681 
s 9
f 291//408 229//613 231//406 
f 293//381 229//306 291//379 
s 26
f 265//534 295//535 269//532 
s 11
f 297//385 269//349 295//383 
s 9
f 205//566 169//403 135//564 
f 169//251 205//287 204//286 
s 151
f 248//682 337//683 336//684 
s 150
f 337//684 248//326 316//326 
s 26
f 170//485 204//423 382//609 
s 9
f 204//286 170//252 169//251 
s 6
f 164//247 390//685 365//686 
s 11
f 162//246 390//687 164//657 
s 10
f 191//273 299//387 357//495 
f 299//618 191//503 133//616 
f 173//255 221//298 171//253 
f 171//504 221//576 359//575 
s 9
f 310//405 168//404 157//493 
f 157//241 168//250 155//239 
s 48
f 226//541 327//688 326//540 
s 6
f 327//689 226//303 175//231 
s 26
f 278//360 153//359 287//507 
s 12
f 287//371 153//237 152//236 
f 349//604 348//603 286//591 
f 287//371 286//370 348//473 
s 151
f 217//690 313//413 335//294 
s 26
f 277//358 199//420 275//356 
s 12
f 179//261 199//281 277//472 
s 10
f 134//218 389//691 237//316 
f 134//218 144//228 342//692 
f 389//691 134//218 342//692 
s 70
f 389//652 345//693 344//651 
s 26
f 383//623 357//494 256//416 
s 10
f 256//339 357//495 299//387 
f 161//585 254//694 300//583 
f 256//339 300//388 254//337 
s 11
f 358//501 296//500 186//497 
f 187//269 186//268 296//384 
f 267//347 189//271 188//270 
f 140//574 189//481 267//572 
s 26
f 202//394 354//489 304//395 
s 11
f 354//677 202//284 190//272 
s 10
f 192//274 172//254 171//253 
s 26
f 253//336 172//468 192//334 
s 157
f 398//675 399//695 400//696 
f 398//697 400//680 399//679 
s 12
f 285//593 152//592 201//589 
f 154//238 201//283 152//236 
s 26
f 320//419 227//544 293//417 
s 9
f 229//306 293//381 227//304 
f 310//405 135//564 169//403 
f 135//219 310//698 356//563 
s 10
f 222//477 220//577 242//475 
f 242//321 220//297 219//296 
s 26
f 268//538 401//699 370//533 
s 31
f 265//345 370//700 401//701 
s 12
f 181//263 180//262 228//646 
f 228//612 180//658 183//610 
s 26
f 355//491 353//490 154//397 
s 12
f 154//238 353//487 200//282 
s 9
f 157//241 156//240 292//380 
s 26
f 206//602 292//599 156//600 
s 9
f 350//620 302//568 139//567 
f 203//285 302//392 350//665 
s 11
f 185//267 193//275 255//586 
s 26
f 255//548 193//653 329//549 
s 11
f 188//270 268//348 267//347 
s 26
f 401//699 268//538 188//537 
f 243//470 219//580 380//579 
s 10
f 219//296 243//322 242//321 
s 155
f 402//702 403//703 404//678 
s 1
f 368//704 272//352 271//351 
s 157
f 400//705 398//706 405//707 
f 405//703 398//675 400//696 
s 6
f 385//629 259//231 131//708 
f 138//513 131//708 259//231 
s 1
f 252//329 251//328 282//366 
s 6
f 341//457 340//231 306//231 
s 8
f 307//231 306//231 340//231 
s 1
f 325//440 328//439 323//709 
s 10
f 223//300 303//710 137//400 
f 303//622 223//476 242//475 
s 159
f 406//711 391//673 393//675 
f 391//712 406//713 392//714 
s 12
f 131//215 130//214 352//630 
f 375//641 352//715 130//640 
s 6
f 307//231 175//231 136//257 
f 175//231 307//231 147//231 
s 9
f 182//615 231//406 229//613 
f 184//309 231//308 182//716 
s 11
f 358//501 298//655 297//499 
f 298//386 358//559 166//248 
s 1
f 151//428 363//517 197//279 
s 11
f 189//481 140//574 351//479 
f 142//226 351//483 140//224 
s 26
f 154//397 279//361 355//491 
s 25
f 355//521 279//717 278//519 
s 11
f 185//498 160//664 167//496 
f 167//249 160//244 162//246 
s 26
f 321//422 275//356 199//420 
s 25
f 276//545 275//718 321//546 
s off
f 260//231 210//231 258//231 
s 6
f 386//632 210//231 260//231 
s 150
f 332//444 250//443 249//443 
f 314//410 247//660 246//660 
s 151
f 249//509 333//443 361//444 
s 9
f 205//566 378//565 139//567 
f 139//223 378//719 135//219 
s 10
f 134//218 133//217 145//229 
f 145//505 133//616 191//503 
s 12
f 286//591 284//606 349//604 
f 176//258 349//474 284//368 
s off
f 290//231 258//231 210//231 
s 6
f 258//231 290//231 362//514 
s 9
f 291//408 230//407 356//492 
f 356//563 230//307 184//309 
s 10
f 143//227 359//502 222//299 
f 220//577 222//477 359//575 
s 12
f 285//369 129//213 138//222 
f 201//589 129//588 285//593 
s 10
f 301//391 132//216 237//316 
f 299//618 132//617 301//584 
s 12
f 184//266 213//720 407//721 
s 9
f 184//309 263//722 261//341 
s 12
f 183//265 178//260 177//259 
f 178//605 183//610 180//658 
s 8
f 212//231 211//231 384//231 
s 6
f 176//378 384//231 211//231 
s 1
f 232//310 408//723 308//672 
f 236//724 308//672 408//723 
f 364//518 409//725 363//517 
f 409//725 364//518 236//724 
f 272//352 410//726 270//350 
f 288//372 270//350 410//726 
s 107
f 174//727 326//728 381//729 
s 10
f 225//302 381//730 326//731 
s 1
f 323//709 411//732 233//312 
f 233//312 411//732 232//310 
s 29
f 239//318 379//582 253//733 
s 26
f 253//336 379//578 173//467 
s 6
f 263//343 407//734 213//291 
s 9
f 184//309 407//735 263//722 
s 8
f 307//231 340//231 388//231 
s 105
f 388//736 147//736 307//736 
s 1
f 408//723 412//737 236//724 
f 236//724 412//737 409//725 
s 11
f 257//340 385//738 142//226 
s 12
f 142//631 413//739 131//215 
s 26
f 187//654 371//536 329//549 
s 31
f 329//441 371//740 265//345 
s 10
f 344//741 366//742 237//316 
s 6
f 238//317 366//743 344//744 
s 12
f 138//222 362//627 285//369 
s 6
f 362//514 138//513 258//231 
s 27
f 208//290 207//289 387//745 
s 26
f 155//484 387//636 207//601 
s 101
f 340//746 339//747 262//748 
s 6
f 261//342 262//231 339//231 
f 365//686 305//398 164//247 
s 92
f 238//525 305//525 365//523 
s 10
f 414//749 373//750 224//301 
s 82
f 224//595 373//751 381//594 
s 27
f 208//290 382//752 322//607 
s 26
f 322//425 382//609 204//423 
s 153
f 396//679 395//753 397//697 
f 394//754 397//755 395//756 
s 26
f 380//579 241//471 243//470 
s 29
f 241//320 380//581 239//318 
s 150
f 218//295 334//449 316//449 
s 151
f 335//449 334//448 218//555 
s 6
f 213//291 177//377 211//231 
s 12
f 213//720 184//266 177//259 
s 26
f 292//599 206//602 319//418 
s 27
f 294//382 319//757 206//288 
s 10
f 224//301 137//400 414//749 
s 6
f 373//542 414//758 137//402 
s 11
f 141//225 386//633 257//340 
s 6
f 260//231 257//455 386//632 
s 26
f 256//416 318//415 383//623 
s 29
f 239//318 383//759 318//624 
s 150
f 315//412 217//413 216//413 
s 151
f 217//690 315//553 313//412 
s 11
f 142//226 385//738 413//760 
s 6
f 131//708 413//761 385//629 
s 155
f 415//711 402//702 404//678 
f 403//755 415//762 404//763 
s 25
f 320//547 294//764 276//545 
s 27
f 294//382 320//765 319//757 
s 31
f 330//442 317//766 329//441 
s 29
f 330//625 318//624 317//767 
s 6
f 339//231 377//562 261//342 
s 9
f 261//341 377//560 135//219 
s 1
f 150//768 149//769 251//770 
f 369//529 251//770 149//769 
f 159//376 158//771 271//374 
f 367//527 271//374 158//771 
s 6
f 176//378 283//626 209//231 
s 12
f 284//368 283//367 176//258 
s 6
f 174//256 309//401 136//257 
s 95
f 309//598 174//598 381//596 
s 10
f 146//772 343//773 144//228 
s 6
f 148//232 343//774 146//230 
s 31
f 401//701 266//346 265//345 
s 26
f 188//537 266//396 401//699 
s 105
f 147//736 388//736 165//736 
s 6
f 165//231 148//232 147//231 
s 27
f 374//608 240//775 208//290 
s 29
f 374//776 241//320 240//319 
s 6
f 346//466 327//689 175//231 
s 10
f 143//227 327//777 346//778 
s 6
f 148//232 345//779 342//780 
s 10
f 342//692 345//781 389//691 
# 509 faces

